<?xml version="1.0" encoding="utf-8" standalone="no"?>
<!DOCTYPE svg PUBLIC "-//W3C//DTD SVG 1.1//EN"
  "http://www.w3.org/Graphics/SVG/1.1/DTD/svg11.dtd">
<!-- Created with matplotlib (https://matplotlib.org/) -->
<svg height="422.834062pt" version="1.1" viewBox="0 0 456.84 422.834062" width="456.84pt" xmlns="http://www.w3.org/2000/svg" xmlns:xlink="http://www.w3.org/1999/xlink">
 <defs>
  <style type="text/css">
*{stroke-linecap:butt;stroke-linejoin:round;}
  </style>
 </defs>
 <g id="figure_1">
  <g id="patch_1">
   <path d="M 0 422.834062 
L 456.84 422.834062 
L 456.84 0 
L 0 0 
z
" style="fill:#ffffff;"/>
  </g>
  <g id="axes_1">
   <g id="patch_2">
    <path d="M 59.04 387.72 
L 449.64 387.72 
L 449.64 7.2 
L 59.04 7.2 
z
" style="fill:#ffffff;"/>
   </g>
   <g id="matplotlib.axis_1">
    <g id="xtick_1">
     <g id="line2d_1"/>
     <g id="text_1">
      <!-- 2 -->
      <defs>
       <path d="M 50.34375 8.453125 
L 50.34375 0 
L 3.03125 0 
Q 2.9375 3.171875 4.046875 6.109375 
Q 5.859375 10.9375 9.828125 15.625 
Q 13.8125 20.3125 21.34375 26.46875 
Q 33.015625 36.03125 37.109375 41.625 
Q 41.21875 47.21875 41.21875 52.203125 
Q 41.21875 57.421875 37.46875 61 
Q 33.734375 64.59375 27.734375 64.59375 
Q 21.390625 64.59375 17.578125 60.78125 
Q 13.765625 56.984375 13.71875 50.25 
L 4.6875 51.171875 
Q 5.609375 61.28125 11.65625 66.578125 
Q 17.71875 71.875 27.9375 71.875 
Q 38.234375 71.875 44.234375 66.15625 
Q 50.25 60.453125 50.25 52 
Q 50.25 47.703125 48.484375 43.546875 
Q 46.734375 39.40625 42.65625 34.8125 
Q 38.578125 30.21875 29.109375 22.21875 
Q 21.1875 15.578125 18.9375 13.203125 
Q 16.703125 10.84375 15.234375 8.453125 
z
" id="ArialMT-50"/>
      </defs>
      <g style="fill:#262626;" transform="translate(105.084531 398.377812)scale(0.1 -0.1)">
       <use xlink:href="#ArialMT-50"/>
      </g>
     </g>
    </g>
    <g id="xtick_2">
     <g id="line2d_2"/>
     <g id="text_2">
      <!-- 3 -->
      <defs>
       <path d="M 4.203125 18.890625 
L 12.984375 20.0625 
Q 14.5 12.59375 18.140625 9.296875 
Q 21.78125 6 27 6 
Q 33.203125 6 37.46875 10.296875 
Q 41.75 14.59375 41.75 20.953125 
Q 41.75 27 37.796875 30.921875 
Q 33.84375 34.859375 27.734375 34.859375 
Q 25.25 34.859375 21.53125 33.890625 
L 22.515625 41.609375 
Q 23.390625 41.5 23.921875 41.5 
Q 29.546875 41.5 34.03125 44.421875 
Q 38.53125 47.359375 38.53125 53.46875 
Q 38.53125 58.296875 35.25 61.46875 
Q 31.984375 64.65625 26.8125 64.65625 
Q 21.6875 64.65625 18.265625 61.421875 
Q 14.84375 58.203125 13.875 51.765625 
L 5.078125 53.328125 
Q 6.6875 62.15625 12.390625 67.015625 
Q 18.109375 71.875 26.609375 71.875 
Q 32.46875 71.875 37.390625 69.359375 
Q 42.328125 66.84375 44.9375 62.5 
Q 47.5625 58.15625 47.5625 53.265625 
Q 47.5625 48.640625 45.0625 44.828125 
Q 42.578125 41.015625 37.703125 38.765625 
Q 44.046875 37.3125 47.5625 32.6875 
Q 51.078125 28.078125 51.078125 21.140625 
Q 51.078125 11.765625 44.234375 5.25 
Q 37.40625 -1.265625 26.953125 -1.265625 
Q 17.53125 -1.265625 11.296875 4.34375 
Q 5.078125 9.96875 4.203125 18.890625 
z
" id="ArialMT-51"/>
      </defs>
      <g style="fill:#262626;" transform="translate(202.734531 398.377812)scale(0.1 -0.1)">
       <use xlink:href="#ArialMT-51"/>
      </g>
     </g>
    </g>
    <g id="xtick_3">
     <g id="line2d_3"/>
     <g id="text_3">
      <!-- 4 -->
      <defs>
       <path d="M 32.328125 0 
L 32.328125 17.140625 
L 1.265625 17.140625 
L 1.265625 25.203125 
L 33.9375 71.578125 
L 41.109375 71.578125 
L 41.109375 25.203125 
L 50.78125 25.203125 
L 50.78125 17.140625 
L 41.109375 17.140625 
L 41.109375 0 
z
M 32.328125 25.203125 
L 32.328125 57.46875 
L 9.90625 25.203125 
z
" id="ArialMT-52"/>
      </defs>
      <g style="fill:#262626;" transform="translate(300.384531 398.377812)scale(0.1 -0.1)">
       <use xlink:href="#ArialMT-52"/>
      </g>
     </g>
    </g>
    <g id="xtick_4">
     <g id="line2d_4"/>
     <g id="text_4">
      <!-- 5 -->
      <defs>
       <path d="M 4.15625 18.75 
L 13.375 19.53125 
Q 14.40625 12.796875 18.140625 9.390625 
Q 21.875 6 27.15625 6 
Q 33.5 6 37.890625 10.78125 
Q 42.28125 15.578125 42.28125 23.484375 
Q 42.28125 31 38.0625 35.34375 
Q 33.84375 39.703125 27 39.703125 
Q 22.75 39.703125 19.328125 37.765625 
Q 15.921875 35.84375 13.96875 32.765625 
L 5.71875 33.84375 
L 12.640625 70.609375 
L 48.25 70.609375 
L 48.25 62.203125 
L 19.671875 62.203125 
L 15.828125 42.96875 
Q 22.265625 47.46875 29.34375 47.46875 
Q 38.71875 47.46875 45.15625 40.96875 
Q 51.609375 34.46875 51.609375 24.265625 
Q 51.609375 14.546875 45.953125 7.46875 
Q 39.0625 -1.21875 27.15625 -1.21875 
Q 17.390625 -1.21875 11.203125 4.25 
Q 5.03125 9.71875 4.15625 18.75 
z
" id="ArialMT-53"/>
      </defs>
      <g style="fill:#262626;" transform="translate(398.034531 398.377812)scale(0.1 -0.1)">
       <use xlink:href="#ArialMT-53"/>
      </g>
     </g>
    </g>
    <g id="text_5">
     <!-- Exterior Quality -->
     <defs>
      <path d="M 7.90625 0 
L 7.90625 71.578125 
L 59.671875 71.578125 
L 59.671875 63.140625 
L 17.390625 63.140625 
L 17.390625 41.21875 
L 56.984375 41.21875 
L 56.984375 32.8125 
L 17.390625 32.8125 
L 17.390625 8.453125 
L 61.328125 8.453125 
L 61.328125 0 
z
" id="ArialMT-69"/>
      <path d="M 0.734375 0 
L 19.671875 26.953125 
L 2.15625 51.859375 
L 13.140625 51.859375 
L 21.09375 39.703125 
Q 23.34375 36.234375 24.703125 33.890625 
Q 26.859375 37.109375 28.65625 39.59375 
L 37.40625 51.859375 
L 47.90625 51.859375 
L 29.984375 27.4375 
L 49.265625 0 
L 38.484375 0 
L 27.828125 16.109375 
L 25 20.453125 
L 11.375 0 
z
" id="ArialMT-120"/>
      <path d="M 25.78125 7.859375 
L 27.046875 0.09375 
Q 23.34375 -0.6875 20.40625 -0.6875 
Q 15.625 -0.6875 12.984375 0.828125 
Q 10.359375 2.34375 9.28125 4.8125 
Q 8.203125 7.28125 8.203125 15.1875 
L 8.203125 45.015625 
L 1.765625 45.015625 
L 1.765625 51.859375 
L 8.203125 51.859375 
L 8.203125 64.703125 
L 16.9375 69.96875 
L 16.9375 51.859375 
L 25.78125 51.859375 
L 25.78125 45.015625 
L 16.9375 45.015625 
L 16.9375 14.703125 
Q 16.9375 10.9375 17.40625 9.859375 
Q 17.875 8.796875 18.921875 8.15625 
Q 19.96875 7.515625 21.921875 7.515625 
Q 23.390625 7.515625 25.78125 7.859375 
z
" id="ArialMT-116"/>
      <path d="M 42.09375 16.703125 
L 51.171875 15.578125 
Q 49.03125 7.625 43.21875 3.21875 
Q 37.40625 -1.171875 28.375 -1.171875 
Q 17 -1.171875 10.328125 5.828125 
Q 3.65625 12.84375 3.65625 25.484375 
Q 3.65625 38.578125 10.390625 45.796875 
Q 17.140625 53.03125 27.875 53.03125 
Q 38.28125 53.03125 44.875 45.953125 
Q 51.46875 38.875 51.46875 26.03125 
Q 51.46875 25.25 51.421875 23.6875 
L 12.75 23.6875 
Q 13.234375 15.140625 17.578125 10.59375 
Q 21.921875 6.0625 28.421875 6.0625 
Q 33.25 6.0625 36.671875 8.59375 
Q 40.09375 11.140625 42.09375 16.703125 
z
M 13.234375 30.90625 
L 42.1875 30.90625 
Q 41.609375 37.453125 38.875 40.71875 
Q 34.671875 45.796875 27.984375 45.796875 
Q 21.921875 45.796875 17.796875 41.75 
Q 13.671875 37.703125 13.234375 30.90625 
z
" id="ArialMT-101"/>
      <path d="M 6.5 0 
L 6.5 51.859375 
L 14.40625 51.859375 
L 14.40625 44 
Q 17.4375 49.515625 20 51.265625 
Q 22.5625 53.03125 25.640625 53.03125 
Q 30.078125 53.03125 34.671875 50.203125 
L 31.640625 42.046875 
Q 28.421875 43.953125 25.203125 43.953125 
Q 22.3125 43.953125 20.015625 42.21875 
Q 17.71875 40.484375 16.75 37.40625 
Q 15.28125 32.71875 15.28125 27.15625 
L 15.28125 0 
z
" id="ArialMT-114"/>
      <path d="M 6.640625 61.46875 
L 6.640625 71.578125 
L 15.4375 71.578125 
L 15.4375 61.46875 
z
M 6.640625 0 
L 6.640625 51.859375 
L 15.4375 51.859375 
L 15.4375 0 
z
" id="ArialMT-105"/>
      <path d="M 3.328125 25.921875 
Q 3.328125 40.328125 11.328125 47.265625 
Q 18.015625 53.03125 27.640625 53.03125 
Q 38.328125 53.03125 45.109375 46.015625 
Q 51.90625 39.015625 51.90625 26.65625 
Q 51.90625 16.65625 48.90625 10.90625 
Q 45.90625 5.171875 40.15625 2 
Q 34.421875 -1.171875 27.640625 -1.171875 
Q 16.75 -1.171875 10.03125 5.8125 
Q 3.328125 12.796875 3.328125 25.921875 
z
M 12.359375 25.921875 
Q 12.359375 15.96875 16.703125 11.015625 
Q 21.046875 6.0625 27.640625 6.0625 
Q 34.1875 6.0625 38.53125 11.03125 
Q 42.875 16.015625 42.875 26.21875 
Q 42.875 35.84375 38.5 40.796875 
Q 34.125 45.75 27.640625 45.75 
Q 21.046875 45.75 16.703125 40.8125 
Q 12.359375 35.890625 12.359375 25.921875 
z
" id="ArialMT-111"/>
      <path id="ArialMT-32"/>
      <path d="M 61.96875 7.671875 
Q 68.5625 3.125 74.125 1.03125 
L 71.34375 -5.5625 
Q 63.625 -2.78125 55.953125 3.21875 
Q 48 -1.21875 38.375 -1.21875 
Q 28.65625 -1.21875 20.75 3.46875 
Q 12.84375 8.15625 8.5625 16.640625 
Q 4.296875 25.140625 4.296875 35.796875 
Q 4.296875 46.390625 8.59375 55.078125 
Q 12.890625 63.765625 20.828125 68.3125 
Q 28.765625 72.859375 38.578125 72.859375 
Q 48.484375 72.859375 56.4375 68.140625 
Q 64.40625 63.421875 68.578125 54.953125 
Q 72.75 46.484375 72.75 35.84375 
Q 72.75 27 70.0625 19.9375 
Q 67.390625 12.890625 61.96875 7.671875 
z
M 41.109375 19.78125 
Q 49.3125 17.484375 54.640625 12.9375 
Q 62.984375 20.5625 62.984375 35.84375 
Q 62.984375 44.53125 60.03125 51.015625 
Q 57.078125 57.515625 51.390625 61.109375 
Q 45.703125 64.703125 38.625 64.703125 
Q 28.03125 64.703125 21.046875 57.453125 
Q 14.0625 50.203125 14.0625 35.796875 
Q 14.0625 21.828125 20.96875 14.359375 
Q 27.875 6.890625 38.625 6.890625 
Q 43.703125 6.890625 48.1875 8.796875 
Q 43.75 11.671875 38.8125 12.890625 
z
" id="ArialMT-81"/>
      <path d="M 40.578125 0 
L 40.578125 7.625 
Q 34.515625 -1.171875 24.125 -1.171875 
Q 19.53125 -1.171875 15.546875 0.578125 
Q 11.578125 2.34375 9.640625 5 
Q 7.71875 7.671875 6.9375 11.53125 
Q 6.390625 14.109375 6.390625 19.734375 
L 6.390625 51.859375 
L 15.1875 51.859375 
L 15.1875 23.09375 
Q 15.1875 16.21875 15.71875 13.8125 
Q 16.546875 10.359375 19.234375 8.375 
Q 21.921875 6.390625 25.875 6.390625 
Q 29.828125 6.390625 33.296875 8.421875 
Q 36.765625 10.453125 38.203125 13.9375 
Q 39.65625 17.4375 39.65625 24.078125 
L 39.65625 51.859375 
L 48.4375 51.859375 
L 48.4375 0 
z
" id="ArialMT-117"/>
      <path d="M 40.4375 6.390625 
Q 35.546875 2.25 31.03125 0.53125 
Q 26.515625 -1.171875 21.34375 -1.171875 
Q 12.796875 -1.171875 8.203125 3 
Q 3.609375 7.171875 3.609375 13.671875 
Q 3.609375 17.484375 5.34375 20.625 
Q 7.078125 23.78125 9.890625 25.6875 
Q 12.703125 27.59375 16.21875 28.5625 
Q 18.796875 29.25 24.03125 29.890625 
Q 34.671875 31.15625 39.703125 32.90625 
Q 39.75 34.71875 39.75 35.203125 
Q 39.75 40.578125 37.25 42.78125 
Q 33.890625 45.75 27.25 45.75 
Q 21.046875 45.75 18.09375 43.578125 
Q 15.140625 41.40625 13.71875 35.890625 
L 5.125 37.0625 
Q 6.296875 42.578125 8.984375 45.96875 
Q 11.671875 49.359375 16.75 51.1875 
Q 21.828125 53.03125 28.515625 53.03125 
Q 35.15625 53.03125 39.296875 51.46875 
Q 43.453125 49.90625 45.40625 47.53125 
Q 47.359375 45.171875 48.140625 41.546875 
Q 48.578125 39.3125 48.578125 33.453125 
L 48.578125 21.734375 
Q 48.578125 9.46875 49.140625 6.21875 
Q 49.703125 2.984375 51.375 0 
L 42.1875 0 
Q 40.828125 2.734375 40.4375 6.390625 
z
M 39.703125 26.03125 
Q 34.90625 24.078125 25.34375 22.703125 
Q 19.921875 21.921875 17.671875 20.9375 
Q 15.4375 19.96875 14.203125 18.09375 
Q 12.984375 16.21875 12.984375 13.921875 
Q 12.984375 10.40625 15.640625 8.0625 
Q 18.3125 5.71875 23.4375 5.71875 
Q 28.515625 5.71875 32.46875 7.9375 
Q 36.421875 10.15625 38.28125 14.015625 
Q 39.703125 17 39.703125 22.796875 
z
" id="ArialMT-97"/>
      <path d="M 6.390625 0 
L 6.390625 71.578125 
L 15.1875 71.578125 
L 15.1875 0 
z
" id="ArialMT-108"/>
      <path d="M 6.203125 -19.96875 
L 5.21875 -11.71875 
Q 8.109375 -12.5 10.25 -12.5 
Q 13.1875 -12.5 14.9375 -11.515625 
Q 16.703125 -10.546875 17.828125 -8.796875 
Q 18.65625 -7.46875 20.515625 -2.25 
Q 20.75 -1.515625 21.296875 -0.09375 
L 1.609375 51.859375 
L 11.078125 51.859375 
L 21.875 21.828125 
Q 23.96875 16.109375 25.640625 9.8125 
Q 27.15625 15.875 29.25 21.625 
L 40.328125 51.859375 
L 49.125 51.859375 
L 29.390625 -0.875 
Q 26.21875 -9.421875 24.46875 -12.640625 
Q 22.125 -17 19.09375 -19.015625 
Q 16.0625 -21.046875 11.859375 -21.046875 
Q 9.328125 -21.046875 6.203125 -19.96875 
z
" id="ArialMT-121"/>
     </defs>
     <g style="fill:#262626;" transform="translate(213.329063 413.108437)scale(0.12 -0.12)">
      <use xlink:href="#ArialMT-69"/>
      <use x="66.699219" xlink:href="#ArialMT-120"/>
      <use x="116.699219" xlink:href="#ArialMT-116"/>
      <use x="144.482422" xlink:href="#ArialMT-101"/>
      <use x="200.097656" xlink:href="#ArialMT-114"/>
      <use x="233.398438" xlink:href="#ArialMT-105"/>
      <use x="255.615234" xlink:href="#ArialMT-111"/>
      <use x="311.230469" xlink:href="#ArialMT-114"/>
      <use x="344.53125" xlink:href="#ArialMT-32"/>
      <use x="372.314453" xlink:href="#ArialMT-81"/>
      <use x="450.097656" xlink:href="#ArialMT-117"/>
      <use x="505.712891" xlink:href="#ArialMT-97"/>
      <use x="561.328125" xlink:href="#ArialMT-108"/>
      <use x="583.544922" xlink:href="#ArialMT-105"/>
      <use x="605.761719" xlink:href="#ArialMT-116"/>
      <use x="633.544922" xlink:href="#ArialMT-121"/>
     </g>
    </g>
   </g>
   <g id="matplotlib.axis_2">
    <g id="ytick_1">
     <g id="line2d_5"/>
     <g id="text_6">
      <!-- 100000 -->
      <defs>
       <path d="M 37.25 0 
L 28.46875 0 
L 28.46875 56 
Q 25.296875 52.984375 20.140625 49.953125 
Q 14.984375 46.921875 10.890625 45.40625 
L 10.890625 53.90625 
Q 18.265625 57.375 23.78125 62.296875 
Q 29.296875 67.234375 31.59375 71.875 
L 37.25 71.875 
z
" id="ArialMT-49"/>
       <path d="M 4.15625 35.296875 
Q 4.15625 48 6.765625 55.734375 
Q 9.375 63.484375 14.515625 67.671875 
Q 19.671875 71.875 27.484375 71.875 
Q 33.25 71.875 37.59375 69.546875 
Q 41.9375 67.234375 44.765625 62.859375 
Q 47.609375 58.5 49.21875 52.21875 
Q 50.828125 45.953125 50.828125 35.296875 
Q 50.828125 22.703125 48.234375 14.96875 
Q 45.65625 7.234375 40.5 3 
Q 35.359375 -1.21875 27.484375 -1.21875 
Q 17.140625 -1.21875 11.234375 6.203125 
Q 4.15625 15.140625 4.15625 35.296875 
z
M 13.1875 35.296875 
Q 13.1875 17.671875 17.3125 11.828125 
Q 21.4375 6 27.484375 6 
Q 33.546875 6 37.671875 11.859375 
Q 41.796875 17.71875 41.796875 35.296875 
Q 41.796875 52.984375 37.671875 58.78125 
Q 33.546875 64.59375 27.390625 64.59375 
Q 21.34375 64.59375 17.71875 59.46875 
Q 13.1875 52.9375 13.1875 35.296875 
z
" id="ArialMT-48"/>
      </defs>
      <g style="fill:#262626;" transform="translate(22.174375 335.839747)scale(0.1 -0.1)">
       <use xlink:href="#ArialMT-49"/>
       <use x="55.615234" xlink:href="#ArialMT-48"/>
       <use x="111.230469" xlink:href="#ArialMT-48"/>
       <use x="166.845703" xlink:href="#ArialMT-48"/>
       <use x="222.460938" xlink:href="#ArialMT-48"/>
       <use x="278.076172" xlink:href="#ArialMT-48"/>
      </g>
     </g>
    </g>
    <g id="ytick_2">
     <g id="line2d_6"/>
     <g id="text_7">
      <!-- 200000 -->
      <g style="fill:#262626;" transform="translate(22.174375 277.217942)scale(0.1 -0.1)">
       <use xlink:href="#ArialMT-50"/>
       <use x="55.615234" xlink:href="#ArialMT-48"/>
       <use x="111.230469" xlink:href="#ArialMT-48"/>
       <use x="166.845703" xlink:href="#ArialMT-48"/>
       <use x="222.460938" xlink:href="#ArialMT-48"/>
       <use x="278.076172" xlink:href="#ArialMT-48"/>
      </g>
     </g>
    </g>
    <g id="ytick_3">
     <g id="line2d_7"/>
     <g id="text_8">
      <!-- 300000 -->
      <g style="fill:#262626;" transform="translate(22.174375 218.596137)scale(0.1 -0.1)">
       <use xlink:href="#ArialMT-51"/>
       <use x="55.615234" xlink:href="#ArialMT-48"/>
       <use x="111.230469" xlink:href="#ArialMT-48"/>
       <use x="166.845703" xlink:href="#ArialMT-48"/>
       <use x="222.460938" xlink:href="#ArialMT-48"/>
       <use x="278.076172" xlink:href="#ArialMT-48"/>
      </g>
     </g>
    </g>
    <g id="ytick_4">
     <g id="line2d_8"/>
     <g id="text_9">
      <!-- 400000 -->
      <g style="fill:#262626;" transform="translate(22.174375 159.974332)scale(0.1 -0.1)">
       <use xlink:href="#ArialMT-52"/>
       <use x="55.615234" xlink:href="#ArialMT-48"/>
       <use x="111.230469" xlink:href="#ArialMT-48"/>
       <use x="166.845703" xlink:href="#ArialMT-48"/>
       <use x="222.460938" xlink:href="#ArialMT-48"/>
       <use x="278.076172" xlink:href="#ArialMT-48"/>
      </g>
     </g>
    </g>
    <g id="ytick_5">
     <g id="line2d_9"/>
     <g id="text_10">
      <!-- 500000 -->
      <g style="fill:#262626;" transform="translate(22.174375 101.352526)scale(0.1 -0.1)">
       <use xlink:href="#ArialMT-53"/>
       <use x="55.615234" xlink:href="#ArialMT-48"/>
       <use x="111.230469" xlink:href="#ArialMT-48"/>
       <use x="166.845703" xlink:href="#ArialMT-48"/>
       <use x="222.460938" xlink:href="#ArialMT-48"/>
       <use x="278.076172" xlink:href="#ArialMT-48"/>
      </g>
     </g>
    </g>
    <g id="ytick_6">
     <g id="line2d_10"/>
     <g id="text_11">
      <!-- 600000 -->
      <defs>
       <path d="M 49.75 54.046875 
L 41.015625 53.375 
Q 39.84375 58.546875 37.703125 60.890625 
Q 34.125 64.65625 28.90625 64.65625 
Q 24.703125 64.65625 21.53125 62.3125 
Q 17.390625 59.28125 14.984375 53.46875 
Q 12.59375 47.65625 12.5 36.921875 
Q 15.671875 41.75 20.265625 44.09375 
Q 24.859375 46.4375 29.890625 46.4375 
Q 38.671875 46.4375 44.84375 39.96875 
Q 51.03125 33.5 51.03125 23.25 
Q 51.03125 16.5 48.125 10.71875 
Q 45.21875 4.9375 40.140625 1.859375 
Q 35.0625 -1.21875 28.609375 -1.21875 
Q 17.625 -1.21875 10.6875 6.859375 
Q 3.765625 14.9375 3.765625 33.5 
Q 3.765625 54.25 11.421875 63.671875 
Q 18.109375 71.875 29.4375 71.875 
Q 37.890625 71.875 43.28125 67.140625 
Q 48.6875 62.40625 49.75 54.046875 
z
M 13.875 23.1875 
Q 13.875 18.65625 15.796875 14.5 
Q 17.71875 10.359375 21.1875 8.171875 
Q 24.65625 6 28.46875 6 
Q 34.03125 6 38.03125 10.484375 
Q 42.046875 14.984375 42.046875 22.703125 
Q 42.046875 30.125 38.078125 34.390625 
Q 34.125 38.671875 28.125 38.671875 
Q 22.171875 38.671875 18.015625 34.390625 
Q 13.875 30.125 13.875 23.1875 
z
" id="ArialMT-54"/>
      </defs>
      <g style="fill:#262626;" transform="translate(22.174375 42.730721)scale(0.1 -0.1)">
       <use xlink:href="#ArialMT-54"/>
       <use x="55.615234" xlink:href="#ArialMT-48"/>
       <use x="111.230469" xlink:href="#ArialMT-48"/>
       <use x="166.845703" xlink:href="#ArialMT-48"/>
       <use x="222.460938" xlink:href="#ArialMT-48"/>
       <use x="278.076172" xlink:href="#ArialMT-48"/>
      </g>
     </g>
    </g>
    <g id="text_12">
     <!-- Sale Price -->
     <defs>
      <path d="M 4.5 23 
L 13.421875 23.78125 
Q 14.0625 18.40625 16.375 14.96875 
Q 18.703125 11.53125 23.578125 9.40625 
Q 28.46875 7.28125 34.578125 7.28125 
Q 39.984375 7.28125 44.140625 8.890625 
Q 48.296875 10.5 50.3125 13.296875 
Q 52.34375 16.109375 52.34375 19.4375 
Q 52.34375 22.796875 50.390625 25.3125 
Q 48.4375 27.828125 43.953125 29.546875 
Q 41.0625 30.671875 31.203125 33.03125 
Q 21.34375 35.40625 17.390625 37.5 
Q 12.25 40.1875 9.734375 44.15625 
Q 7.234375 48.140625 7.234375 53.078125 
Q 7.234375 58.5 10.296875 63.203125 
Q 13.375 67.921875 19.28125 70.359375 
Q 25.203125 72.796875 32.421875 72.796875 
Q 40.375 72.796875 46.453125 70.234375 
Q 52.546875 67.671875 55.8125 62.6875 
Q 59.078125 57.71875 59.328125 51.421875 
L 50.25 50.734375 
Q 49.515625 57.515625 45.28125 60.984375 
Q 41.0625 64.453125 32.8125 64.453125 
Q 24.21875 64.453125 20.28125 61.296875 
Q 16.359375 58.15625 16.359375 53.71875 
Q 16.359375 49.859375 19.140625 47.359375 
Q 21.875 44.875 33.421875 42.265625 
Q 44.96875 39.65625 49.265625 37.703125 
Q 55.515625 34.8125 58.484375 30.390625 
Q 61.46875 25.984375 61.46875 20.21875 
Q 61.46875 14.5 58.203125 9.4375 
Q 54.9375 4.390625 48.796875 1.578125 
Q 42.671875 -1.21875 35.015625 -1.21875 
Q 25.296875 -1.21875 18.71875 1.609375 
Q 12.15625 4.4375 8.421875 10.125 
Q 4.6875 15.828125 4.5 23 
z
" id="ArialMT-83"/>
      <path d="M 7.71875 0 
L 7.71875 71.578125 
L 34.71875 71.578125 
Q 41.84375 71.578125 45.609375 70.90625 
Q 50.875 70.015625 54.4375 67.546875 
Q 58.015625 65.09375 60.1875 60.640625 
Q 62.359375 56.203125 62.359375 50.875 
Q 62.359375 41.75 56.546875 35.421875 
Q 50.734375 29.109375 35.546875 29.109375 
L 17.1875 29.109375 
L 17.1875 0 
z
M 17.1875 37.546875 
L 35.6875 37.546875 
Q 44.875 37.546875 48.734375 40.96875 
Q 52.59375 44.390625 52.59375 50.59375 
Q 52.59375 55.078125 50.3125 58.265625 
Q 48.046875 61.46875 44.34375 62.5 
Q 41.9375 63.140625 35.5 63.140625 
L 17.1875 63.140625 
z
" id="ArialMT-80"/>
      <path d="M 40.4375 19 
L 49.078125 17.875 
Q 47.65625 8.9375 41.8125 3.875 
Q 35.984375 -1.171875 27.484375 -1.171875 
Q 16.84375 -1.171875 10.375 5.78125 
Q 3.90625 12.75 3.90625 25.734375 
Q 3.90625 34.125 6.6875 40.421875 
Q 9.46875 46.734375 15.15625 49.875 
Q 20.84375 53.03125 27.546875 53.03125 
Q 35.984375 53.03125 41.359375 48.75 
Q 46.734375 44.484375 48.25 36.625 
L 39.703125 35.296875 
Q 38.484375 40.53125 35.375 43.15625 
Q 32.28125 45.796875 27.875 45.796875 
Q 21.234375 45.796875 17.078125 41.03125 
Q 12.9375 36.28125 12.9375 25.984375 
Q 12.9375 15.53125 16.9375 10.796875 
Q 20.953125 6.0625 27.390625 6.0625 
Q 32.5625 6.0625 36.03125 9.234375 
Q 39.5 12.40625 40.4375 19 
z
" id="ArialMT-99"/>
     </defs>
     <g style="fill:#262626;" transform="translate(15.789375 224.805)rotate(-90)scale(0.12 -0.12)">
      <use xlink:href="#ArialMT-83"/>
      <use x="66.699219" xlink:href="#ArialMT-97"/>
      <use x="122.314453" xlink:href="#ArialMT-108"/>
      <use x="144.53125" xlink:href="#ArialMT-101"/>
      <use x="200.146484" xlink:href="#ArialMT-32"/>
      <use x="227.929688" xlink:href="#ArialMT-80"/>
      <use x="294.628906" xlink:href="#ArialMT-114"/>
      <use x="327.929688" xlink:href="#ArialMT-105"/>
      <use x="350.146484" xlink:href="#ArialMT-99"/>
      <use x="400.146484" xlink:href="#ArialMT-101"/>
     </g>
    </g>
   </g>
   <g id="patch_3">
    <path clip-path="url(#p93ed4c275b)" d="M 68.805 355.563009 
L 146.925 355.563009 
L 146.925 331.088405 
L 68.805 331.088405 
L 68.805 355.563009 
z
" style="fill:#cc5a49;stroke:#474747;stroke-linejoin:miter;stroke-width:1.5;"/>
   </g>
   <g id="patch_4">
    <path clip-path="url(#p93ed4c275b)" d="M 166.455 321.363341 
L 244.575 321.363341 
L 244.575 293.863559 
L 166.455 293.863559 
L 166.455 321.363341 
z
" style="fill:#4586ac;stroke:#474747;stroke-linejoin:miter;stroke-width:1.5;"/>
   </g>
   <g id="patch_5">
    <path clip-path="url(#p93ed4c275b)" d="M 264.105 282.432307 
L 342.225 282.432307 
L 342.225 234.984111 
L 264.105 234.984111 
L 264.105 282.432307 
z
" style="fill:#9e97cc;stroke:#474747;stroke-linejoin:miter;stroke-width:1.5;"/>
   </g>
   <g id="patch_6">
    <path clip-path="url(#p93ed4c275b)" d="M 361.755 206.333583 
L 439.875 206.333583 
L 439.875 141.153756 
L 361.755 141.153756 
L 361.755 206.333583 
z
" style="fill:#777777;stroke:#474747;stroke-linejoin:miter;stroke-width:1.5;"/>
   </g>
   <g id="line2d_11">
    <path clip-path="url(#p93ed4c275b)" d="M 107.865 355.563009 
L 107.865 367.844277 
" style="fill:none;stroke:#474747;stroke-linecap:round;stroke-width:1.5;"/>
   </g>
   <g id="line2d_12">
    <path clip-path="url(#p93ed4c275b)" d="M 107.865 331.088405 
L 107.865 319.364044 
" style="fill:none;stroke:#474747;stroke-linecap:round;stroke-width:1.5;"/>
   </g>
   <g id="line2d_13">
    <path clip-path="url(#p93ed4c275b)" d="M 88.335 367.844277 
L 127.395 367.844277 
" style="fill:none;stroke:#474747;stroke-linecap:round;stroke-width:1.5;"/>
   </g>
   <g id="line2d_14">
    <path clip-path="url(#p93ed4c275b)" d="M 88.335 319.364044 
L 127.395 319.364044 
" style="fill:none;stroke:#474747;stroke-linecap:round;stroke-width:1.5;"/>
   </g>
   <g id="line2d_15">
    <defs>
     <path d="M -0 3.535534 
L 2.12132 0 
L -0 -3.535534 
L -2.12132 -0 
z
" id="mb578c2bfdb" style="stroke:#474747;stroke-linejoin:miter;"/>
    </defs>
    <g clip-path="url(#p93ed4c275b)">
     <use style="fill:#474747;stroke:#474747;stroke-linejoin:miter;" x="107.865" xlink:href="#mb578c2bfdb" y="273.639036"/>
    </g>
   </g>
   <g id="line2d_16">
    <path clip-path="url(#p93ed4c275b)" d="M 205.515 321.363341 
L 205.515 360.106199 
" style="fill:none;stroke:#474747;stroke-linecap:round;stroke-width:1.5;"/>
   </g>
   <g id="line2d_17">
    <path clip-path="url(#p93ed4c275b)" d="M 205.515 293.863559 
L 205.515 253.121404 
" style="fill:none;stroke:#474747;stroke-linecap:round;stroke-width:1.5;"/>
   </g>
   <g id="line2d_18">
    <path clip-path="url(#p93ed4c275b)" d="M 185.985 360.106199 
L 225.045 360.106199 
" style="fill:none;stroke:#474747;stroke-linecap:round;stroke-width:1.5;"/>
   </g>
   <g id="line2d_19">
    <path clip-path="url(#p93ed4c275b)" d="M 185.985 253.121404 
L 225.045 253.121404 
" style="fill:none;stroke:#474747;stroke-linecap:round;stroke-width:1.5;"/>
   </g>
   <g id="line2d_20">
    <g clip-path="url(#p93ed4c275b)">
     <use style="fill:#474747;stroke:#474747;stroke-linejoin:miter;" x="205.515" xlink:href="#mb578c2bfdb" y="368.664982"/>
     <use style="fill:#474747;stroke:#474747;stroke-linejoin:miter;" x="205.515" xlink:href="#mb578c2bfdb" y="370.423636"/>
     <use style="fill:#474747;stroke:#474747;stroke-linejoin:miter;" x="205.515" xlink:href="#mb578c2bfdb" y="367.433924"/>
     <use style="fill:#474747;stroke:#474747;stroke-linejoin:miter;" x="205.515" xlink:href="#mb578c2bfdb" y="370.182701"/>
     <use style="fill:#474747;stroke:#474747;stroke-linejoin:miter;" x="205.515" xlink:href="#mb578c2bfdb" y="242.758241"/>
     <use style="fill:#474747;stroke:#474747;stroke-linejoin:miter;" x="205.515" xlink:href="#mb578c2bfdb" y="250.190314"/>
     <use style="fill:#474747;stroke:#474747;stroke-linejoin:miter;" x="205.515" xlink:href="#mb578c2bfdb" y="244.328133"/>
     <use style="fill:#474747;stroke:#474747;stroke-linejoin:miter;" x="205.515" xlink:href="#mb578c2bfdb" y="231.431336"/>
     <use style="fill:#474747;stroke:#474747;stroke-linejoin:miter;" x="205.515" xlink:href="#mb578c2bfdb" y="248.43166"/>
     <use style="fill:#474747;stroke:#474747;stroke-linejoin:miter;" x="205.515" xlink:href="#mb578c2bfdb" y="240.810825"/>
     <use style="fill:#474747;stroke:#474747;stroke-linejoin:miter;" x="205.515" xlink:href="#mb578c2bfdb" y="249.310987"/>
     <use style="fill:#474747;stroke:#474747;stroke-linejoin:miter;" x="205.515" xlink:href="#mb578c2bfdb" y="237.000408"/>
     <use style="fill:#474747;stroke:#474747;stroke-linejoin:miter;" x="205.515" xlink:href="#mb578c2bfdb" y="244.328133"/>
     <use style="fill:#474747;stroke:#474747;stroke-linejoin:miter;" x="205.515" xlink:href="#mb578c2bfdb" y="217.948321"/>
     <use style="fill:#474747;stroke:#474747;stroke-linejoin:miter;" x="205.515" xlink:href="#mb578c2bfdb" y="251.655859"/>
     <use style="fill:#474747;stroke:#474747;stroke-linejoin:miter;" x="205.515" xlink:href="#mb578c2bfdb" y="171.050877"/>
     <use style="fill:#474747;stroke:#474747;stroke-linejoin:miter;" x="205.515" xlink:href="#mb578c2bfdb" y="244.328133"/>
     <use style="fill:#474747;stroke:#474747;stroke-linejoin:miter;" x="205.515" xlink:href="#mb578c2bfdb" y="167.533568"/>
     <use style="fill:#474747;stroke:#474747;stroke-linejoin:miter;" x="205.515" xlink:href="#mb578c2bfdb" y="180.371744"/>
     <use style="fill:#474747;stroke:#474747;stroke-linejoin:miter;" x="205.515" xlink:href="#mb578c2bfdb" y="247.259224"/>
     <use style="fill:#474747;stroke:#474747;stroke-linejoin:miter;" x="205.515" xlink:href="#mb578c2bfdb" y="190.019134"/>
     <use style="fill:#474747;stroke:#474747;stroke-linejoin:miter;" x="205.515" xlink:href="#mb578c2bfdb" y="230.083035"/>
     <use style="fill:#474747;stroke:#474747;stroke-linejoin:miter;" x="205.515" xlink:href="#mb578c2bfdb" y="221.465629"/>
     <use style="fill:#474747;stroke:#474747;stroke-linejoin:miter;" x="205.515" xlink:href="#mb578c2bfdb" y="250.776532"/>
     <use style="fill:#474747;stroke:#474747;stroke-linejoin:miter;" x="205.515" xlink:href="#mb578c2bfdb" y="239.931498"/>
     <use style="fill:#474747;stroke:#474747;stroke-linejoin:miter;" x="205.515" xlink:href="#mb578c2bfdb" y="250.776532"/>
     <use style="fill:#474747;stroke:#474747;stroke-linejoin:miter;" x="205.515" xlink:href="#mb578c2bfdb" y="203.29287"/>
     <use style="fill:#474747;stroke:#474747;stroke-linejoin:miter;" x="205.515" xlink:href="#mb578c2bfdb" y="238.759062"/>
     <use style="fill:#474747;stroke:#474747;stroke-linejoin:miter;" x="205.515" xlink:href="#mb578c2bfdb" y="250.190314"/>
     <use style="fill:#474747;stroke:#474747;stroke-linejoin:miter;" x="205.515" xlink:href="#mb578c2bfdb" y="237.129376"/>
     <use style="fill:#474747;stroke:#474747;stroke-linejoin:miter;" x="205.515" xlink:href="#mb578c2bfdb" y="213.844795"/>
     <use style="fill:#474747;stroke:#474747;stroke-linejoin:miter;" x="205.515" xlink:href="#mb578c2bfdb" y="226.741592"/>
     <use style="fill:#474747;stroke:#474747;stroke-linejoin:miter;" x="205.515" xlink:href="#mb578c2bfdb" y="247.845442"/>
     <use style="fill:#474747;stroke:#474747;stroke-linejoin:miter;" x="205.515" xlink:href="#mb578c2bfdb" y="249.017878"/>
     <use style="fill:#474747;stroke:#474747;stroke-linejoin:miter;" x="205.515" xlink:href="#mb578c2bfdb" y="249.310987"/>
     <use style="fill:#474747;stroke:#474747;stroke-linejoin:miter;" x="205.515" xlink:href="#mb578c2bfdb" y="247.610954"/>
    </g>
   </g>
   <g id="line2d_21">
    <path clip-path="url(#p93ed4c275b)" d="M 303.165 282.432307 
L 303.165 332.260841 
" style="fill:none;stroke:#474747;stroke-linecap:round;stroke-width:1.5;"/>
   </g>
   <g id="line2d_22">
    <path clip-path="url(#p93ed4c275b)" d="M 303.165 234.984111 
L 303.165 165.188696 
" style="fill:none;stroke:#474747;stroke-linecap:round;stroke-width:1.5;"/>
   </g>
   <g id="line2d_23">
    <path clip-path="url(#p93ed4c275b)" d="M 283.635 332.260841 
L 322.695 332.260841 
" style="fill:none;stroke:#474747;stroke-linecap:round;stroke-width:1.5;"/>
   </g>
   <g id="line2d_24">
    <path clip-path="url(#p93ed4c275b)" d="M 283.635 165.188696 
L 322.695 165.188696 
" style="fill:none;stroke:#474747;stroke-linecap:round;stroke-width:1.5;"/>
   </g>
   <g id="line2d_25">
    <g clip-path="url(#p93ed4c275b)">
     <use style="fill:#474747;stroke:#474747;stroke-linejoin:miter;" x="303.165" xlink:href="#mb578c2bfdb" y="360.399308"/>
     <use style="fill:#474747;stroke:#474747;stroke-linejoin:miter;" x="303.165" xlink:href="#mb578c2bfdb" y="24.496364"/>
     <use style="fill:#474747;stroke:#474747;stroke-linejoin:miter;" x="303.165" xlink:href="#mb578c2bfdb" y="161.08517"/>
     <use style="fill:#474747;stroke:#474747;stroke-linejoin:miter;" x="303.165" xlink:href="#mb578c2bfdb" y="112.429071"/>
     <use style="fill:#474747;stroke:#474747;stroke-linejoin:miter;" x="303.165" xlink:href="#mb578c2bfdb" y="64.604817"/>
     <use style="fill:#474747;stroke:#474747;stroke-linejoin:miter;" x="303.165" xlink:href="#mb578c2bfdb" y="159.659488"/>
     <use style="fill:#474747;stroke:#474747;stroke-linejoin:miter;" x="303.165" xlink:href="#mb578c2bfdb" y="142.91241"/>
     <use style="fill:#474747;stroke:#474747;stroke-linejoin:miter;" x="303.165" xlink:href="#mb578c2bfdb" y="150.533245"/>
     <use style="fill:#474747;stroke:#474747;stroke-linejoin:miter;" x="303.165" xlink:href="#mb578c2bfdb" y="149.0677"/>
     <use style="fill:#474747;stroke:#474747;stroke-linejoin:miter;" x="303.165" xlink:href="#mb578c2bfdb" y="154.636771"/>
     <use style="fill:#474747;stroke:#474747;stroke-linejoin:miter;" x="303.165" xlink:href="#mb578c2bfdb" y="138.808884"/>
     <use style="fill:#474747;stroke:#474747;stroke-linejoin:miter;" x="303.165" xlink:href="#mb578c2bfdb" y="155.222989"/>
     <use style="fill:#474747;stroke:#474747;stroke-linejoin:miter;" x="303.165" xlink:href="#mb578c2bfdb" y="132.946703"/>
     <use style="fill:#474747;stroke:#474747;stroke-linejoin:miter;" x="303.165" xlink:href="#mb578c2bfdb" y="159.326516"/>
     <use style="fill:#474747;stroke:#474747;stroke-linejoin:miter;" x="303.165" xlink:href="#mb578c2bfdb" y="141.816182"/>
    </g>
   </g>
   <g id="line2d_26">
    <path clip-path="url(#p93ed4c275b)" d="M 400.815 206.333583 
L 400.815 287.41516 
" style="fill:none;stroke:#474747;stroke-linecap:round;stroke-width:1.5;"/>
   </g>
   <g id="line2d_27">
    <path clip-path="url(#p93ed4c275b)" d="M 400.815 141.153756 
L 400.815 49.156798 
" style="fill:none;stroke:#474747;stroke-linecap:round;stroke-width:1.5;"/>
   </g>
   <g id="line2d_28">
    <path clip-path="url(#p93ed4c275b)" d="M 381.285 287.41516 
L 420.345 287.41516 
" style="fill:none;stroke:#474747;stroke-linecap:round;stroke-width:1.5;"/>
   </g>
   <g id="line2d_29">
    <path clip-path="url(#p93ed4c275b)" d="M 381.285 49.156798 
L 420.345 49.156798 
" style="fill:none;stroke:#474747;stroke-linecap:round;stroke-width:1.5;"/>
   </g>
   <g id="line2d_30">
    <g clip-path="url(#p93ed4c275b)">
     <use style="fill:#474747;stroke:#474747;stroke-linejoin:miter;" x="400.815" xlink:href="#mb578c2bfdb" y="32.318271"/>
    </g>
   </g>
   <g id="line2d_31">
    <path clip-path="url(#p93ed4c275b)" d="M 68.805 342.666212 
L 146.925 342.666212 
" style="fill:none;stroke:#474747;stroke-linecap:round;stroke-width:1.5;"/>
   </g>
   <g id="line2d_32">
    <path clip-path="url(#p93ed4c275b)" d="M 166.455 309.134539 
L 244.575 309.134539 
" style="fill:none;stroke:#474747;stroke-linecap:round;stroke-width:1.5;"/>
   </g>
   <g id="line2d_33">
    <path clip-path="url(#p93ed4c275b)" d="M 264.105 261.914675 
L 342.225 261.914675 
" style="fill:none;stroke:#474747;stroke-linecap:round;stroke-width:1.5;"/>
   </g>
   <g id="line2d_34">
    <path clip-path="url(#p93ed4c275b)" d="M 361.755 175.568273 
L 439.875 175.568273 
" style="fill:none;stroke:#474747;stroke-linecap:round;stroke-width:1.5;"/>
   </g>
   <g id="patch_7">
    <path d="M 59.04 387.72 
L 59.04 7.2 
" style="fill:none;stroke:#262626;stroke-linecap:square;stroke-linejoin:miter;stroke-width:1.25;"/>
   </g>
   <g id="patch_8">
    <path d="M 449.64 387.72 
L 449.64 7.2 
" style="fill:none;stroke:#262626;stroke-linecap:square;stroke-linejoin:miter;stroke-width:1.25;"/>
   </g>
   <g id="patch_9">
    <path d="M 59.04 387.72 
L 449.64 387.72 
" style="fill:none;stroke:#262626;stroke-linecap:square;stroke-linejoin:miter;stroke-width:1.25;"/>
   </g>
   <g id="patch_10">
    <path d="M 59.04 7.2 
L 449.64 7.2 
" style="fill:none;stroke:#262626;stroke-linecap:square;stroke-linejoin:miter;stroke-width:1.25;"/>
   </g>
  </g>
 </g>
 <defs>
  <clipPath id="p93ed4c275b">
   <rect height="380.52" width="390.6" x="59.04" y="7.2"/>
  </clipPath>
 </defs>
</svg>
