<?xml version="1.0" encoding="utf-8" standalone="no"?>
<!DOCTYPE svg PUBLIC "-//W3C//DTD SVG 1.1//EN"
  "http://www.w3.org/Graphics/SVG/1.1/DTD/svg11.dtd">
<!-- Created with matplotlib (https://matplotlib.org/) -->
<svg height="259.459687pt" version="1.1" viewBox="0 0 366.6 259.459687" width="366.6pt" xmlns="http://www.w3.org/2000/svg" xmlns:xlink="http://www.w3.org/1999/xlink">
 <defs>
  <style type="text/css">
*{stroke-linecap:butt;stroke-linejoin:round;}
  </style>
 </defs>
 <g id="figure_1">
  <g id="patch_1">
   <path d="M 0 259.459687 
L 366.6 259.459687 
L 366.6 0 
L 0 0 
z
" style="fill:#ffffff;"/>
  </g>
  <g id="axes_1">
   <g id="patch_2">
    <path d="M 24.6 224.64 
L 359.4 224.64 
L 359.4 7.2 
L 24.6 7.2 
z
" style="fill:#ffffff;"/>
   </g>
   <g id="matplotlib.axis_1">
    <g id="xtick_1">
     <g id="line2d_1"/>
     <g id="text_1">
      <!-- 10.5 -->
      <defs>
       <path d="M 37.25 0 
L 28.46875 0 
L 28.46875 56 
Q 25.296875 52.984375 20.140625 49.953125 
Q 14.984375 46.921875 10.890625 45.40625 
L 10.890625 53.90625 
Q 18.265625 57.375 23.78125 62.296875 
Q 29.296875 67.234375 31.59375 71.875 
L 37.25 71.875 
z
" id="ArialMT-49"/>
       <path d="M 4.15625 35.296875 
Q 4.15625 48 6.765625 55.734375 
Q 9.375 63.484375 14.515625 67.671875 
Q 19.671875 71.875 27.484375 71.875 
Q 33.25 71.875 37.59375 69.546875 
Q 41.9375 67.234375 44.765625 62.859375 
Q 47.609375 58.5 49.21875 52.21875 
Q 50.828125 45.953125 50.828125 35.296875 
Q 50.828125 22.703125 48.234375 14.96875 
Q 45.65625 7.234375 40.5 3 
Q 35.359375 -1.21875 27.484375 -1.21875 
Q 17.140625 -1.21875 11.234375 6.203125 
Q 4.15625 15.140625 4.15625 35.296875 
z
M 13.1875 35.296875 
Q 13.1875 17.671875 17.3125 11.828125 
Q 21.4375 6 27.484375 6 
Q 33.546875 6 37.671875 11.859375 
Q 41.796875 17.71875 41.796875 35.296875 
Q 41.796875 52.984375 37.671875 58.78125 
Q 33.546875 64.59375 27.390625 64.59375 
Q 21.34375 64.59375 17.71875 59.46875 
Q 13.1875 52.9375 13.1875 35.296875 
z
" id="ArialMT-48"/>
       <path d="M 9.078125 0 
L 9.078125 10.015625 
L 19.09375 10.015625 
L 19.09375 0 
z
" id="ArialMT-46"/>
       <path d="M 4.15625 18.75 
L 13.375 19.53125 
Q 14.40625 12.796875 18.140625 9.390625 
Q 21.875 6 27.15625 6 
Q 33.5 6 37.890625 10.78125 
Q 42.28125 15.578125 42.28125 23.484375 
Q 42.28125 31 38.0625 35.34375 
Q 33.84375 39.703125 27 39.703125 
Q 22.75 39.703125 19.328125 37.765625 
Q 15.921875 35.84375 13.96875 32.765625 
L 5.71875 33.84375 
L 12.640625 70.609375 
L 48.25 70.609375 
L 48.25 62.203125 
L 19.671875 62.203125 
L 15.828125 42.96875 
Q 22.265625 47.46875 29.34375 47.46875 
Q 38.71875 47.46875 45.15625 40.96875 
Q 51.609375 34.46875 51.609375 24.265625 
Q 51.609375 14.546875 45.953125 7.46875 
Q 39.0625 -1.21875 27.15625 -1.21875 
Q 17.390625 -1.21875 11.203125 4.25 
Q 5.03125 9.71875 4.15625 18.75 
z
" id="ArialMT-53"/>
      </defs>
      <g style="fill:#262626;" transform="translate(54.698835 235.297812)scale(0.1 -0.1)">
       <use xlink:href="#ArialMT-49"/>
       <use x="55.615234" xlink:href="#ArialMT-48"/>
       <use x="111.230469" xlink:href="#ArialMT-46"/>
       <use x="139.013672" xlink:href="#ArialMT-53"/>
      </g>
     </g>
    </g>
    <g id="xtick_2">
     <g id="line2d_2"/>
     <g id="text_2">
      <!-- 11.0 -->
      <g style="fill:#262626;" transform="translate(99.850585 235.297812)scale(0.1 -0.1)">
       <use xlink:href="#ArialMT-49"/>
       <use x="55.505859" xlink:href="#ArialMT-49"/>
       <use x="111.121094" xlink:href="#ArialMT-46"/>
       <use x="138.904297" xlink:href="#ArialMT-48"/>
      </g>
     </g>
    </g>
    <g id="xtick_3">
     <g id="line2d_3"/>
     <g id="text_3">
      <!-- 11.5 -->
      <g style="fill:#262626;" transform="translate(144.996867 235.297812)scale(0.1 -0.1)">
       <use xlink:href="#ArialMT-49"/>
       <use x="55.505859" xlink:href="#ArialMT-49"/>
       <use x="111.121094" xlink:href="#ArialMT-46"/>
       <use x="138.904297" xlink:href="#ArialMT-53"/>
      </g>
     </g>
    </g>
    <g id="xtick_4">
     <g id="line2d_4"/>
     <g id="text_4">
      <!-- 12.0 -->
      <defs>
       <path d="M 50.34375 8.453125 
L 50.34375 0 
L 3.03125 0 
Q 2.9375 3.171875 4.046875 6.109375 
Q 5.859375 10.9375 9.828125 15.625 
Q 13.8125 20.3125 21.34375 26.46875 
Q 33.015625 36.03125 37.109375 41.625 
Q 41.21875 47.21875 41.21875 52.203125 
Q 41.21875 57.421875 37.46875 61 
Q 33.734375 64.59375 27.734375 64.59375 
Q 21.390625 64.59375 17.578125 60.78125 
Q 13.765625 56.984375 13.71875 50.25 
L 4.6875 51.171875 
Q 5.609375 61.28125 11.65625 66.578125 
Q 17.71875 71.875 27.9375 71.875 
Q 38.234375 71.875 44.234375 66.15625 
Q 50.25 60.453125 50.25 52 
Q 50.25 47.703125 48.484375 43.546875 
Q 46.734375 39.40625 42.65625 34.8125 
Q 38.578125 30.21875 29.109375 22.21875 
Q 21.1875 15.578125 18.9375 13.203125 
Q 16.703125 10.84375 15.234375 8.453125 
z
" id="ArialMT-50"/>
      </defs>
      <g style="fill:#262626;" transform="translate(190.137679 235.297812)scale(0.1 -0.1)">
       <use xlink:href="#ArialMT-49"/>
       <use x="55.615234" xlink:href="#ArialMT-50"/>
       <use x="111.230469" xlink:href="#ArialMT-46"/>
       <use x="139.013672" xlink:href="#ArialMT-48"/>
      </g>
     </g>
    </g>
    <g id="xtick_5">
     <g id="line2d_5"/>
     <g id="text_5">
      <!-- 12.5 -->
      <g style="fill:#262626;" transform="translate(235.28396 235.297812)scale(0.1 -0.1)">
       <use xlink:href="#ArialMT-49"/>
       <use x="55.615234" xlink:href="#ArialMT-50"/>
       <use x="111.230469" xlink:href="#ArialMT-46"/>
       <use x="139.013672" xlink:href="#ArialMT-53"/>
      </g>
     </g>
    </g>
    <g id="xtick_6">
     <g id="line2d_6"/>
     <g id="text_6">
      <!-- 13.0 -->
      <defs>
       <path d="M 4.203125 18.890625 
L 12.984375 20.0625 
Q 14.5 12.59375 18.140625 9.296875 
Q 21.78125 6 27 6 
Q 33.203125 6 37.46875 10.296875 
Q 41.75 14.59375 41.75 20.953125 
Q 41.75 27 37.796875 30.921875 
Q 33.84375 34.859375 27.734375 34.859375 
Q 25.25 34.859375 21.53125 33.890625 
L 22.515625 41.609375 
Q 23.390625 41.5 23.921875 41.5 
Q 29.546875 41.5 34.03125 44.421875 
Q 38.53125 47.359375 38.53125 53.46875 
Q 38.53125 58.296875 35.25 61.46875 
Q 31.984375 64.65625 26.8125 64.65625 
Q 21.6875 64.65625 18.265625 61.421875 
Q 14.84375 58.203125 13.875 51.765625 
L 5.078125 53.328125 
Q 6.6875 62.15625 12.390625 67.015625 
Q 18.109375 71.875 26.609375 71.875 
Q 32.46875 71.875 37.390625 69.359375 
Q 42.328125 66.84375 44.9375 62.5 
Q 47.5625 58.15625 47.5625 53.265625 
Q 47.5625 48.640625 45.0625 44.828125 
Q 42.578125 41.015625 37.703125 38.765625 
Q 44.046875 37.3125 47.5625 32.6875 
Q 51.078125 28.078125 51.078125 21.140625 
Q 51.078125 11.765625 44.234375 5.25 
Q 37.40625 -1.265625 26.953125 -1.265625 
Q 17.53125 -1.265625 11.296875 4.34375 
Q 5.078125 9.96875 4.203125 18.890625 
z
" id="ArialMT-51"/>
      </defs>
      <g style="fill:#262626;" transform="translate(280.430241 235.297812)scale(0.1 -0.1)">
       <use xlink:href="#ArialMT-49"/>
       <use x="55.615234" xlink:href="#ArialMT-51"/>
       <use x="111.230469" xlink:href="#ArialMT-46"/>
       <use x="139.013672" xlink:href="#ArialMT-48"/>
      </g>
     </g>
    </g>
    <g id="xtick_7">
     <g id="line2d_7"/>
     <g id="text_7">
      <!-- 13.5 -->
      <g style="fill:#262626;" transform="translate(325.576523 235.297812)scale(0.1 -0.1)">
       <use xlink:href="#ArialMT-49"/>
       <use x="55.615234" xlink:href="#ArialMT-51"/>
       <use x="111.230469" xlink:href="#ArialMT-46"/>
       <use x="139.013672" xlink:href="#ArialMT-53"/>
      </g>
     </g>
    </g>
    <g id="text_8">
     <!-- SalePrice -->
     <defs>
      <path d="M 4.5 23 
L 13.421875 23.78125 
Q 14.0625 18.40625 16.375 14.96875 
Q 18.703125 11.53125 23.578125 9.40625 
Q 28.46875 7.28125 34.578125 7.28125 
Q 39.984375 7.28125 44.140625 8.890625 
Q 48.296875 10.5 50.3125 13.296875 
Q 52.34375 16.109375 52.34375 19.4375 
Q 52.34375 22.796875 50.390625 25.3125 
Q 48.4375 27.828125 43.953125 29.546875 
Q 41.0625 30.671875 31.203125 33.03125 
Q 21.34375 35.40625 17.390625 37.5 
Q 12.25 40.1875 9.734375 44.15625 
Q 7.234375 48.140625 7.234375 53.078125 
Q 7.234375 58.5 10.296875 63.203125 
Q 13.375 67.921875 19.28125 70.359375 
Q 25.203125 72.796875 32.421875 72.796875 
Q 40.375 72.796875 46.453125 70.234375 
Q 52.546875 67.671875 55.8125 62.6875 
Q 59.078125 57.71875 59.328125 51.421875 
L 50.25 50.734375 
Q 49.515625 57.515625 45.28125 60.984375 
Q 41.0625 64.453125 32.8125 64.453125 
Q 24.21875 64.453125 20.28125 61.296875 
Q 16.359375 58.15625 16.359375 53.71875 
Q 16.359375 49.859375 19.140625 47.359375 
Q 21.875 44.875 33.421875 42.265625 
Q 44.96875 39.65625 49.265625 37.703125 
Q 55.515625 34.8125 58.484375 30.390625 
Q 61.46875 25.984375 61.46875 20.21875 
Q 61.46875 14.5 58.203125 9.4375 
Q 54.9375 4.390625 48.796875 1.578125 
Q 42.671875 -1.21875 35.015625 -1.21875 
Q 25.296875 -1.21875 18.71875 1.609375 
Q 12.15625 4.4375 8.421875 10.125 
Q 4.6875 15.828125 4.5 23 
z
" id="ArialMT-83"/>
      <path d="M 40.4375 6.390625 
Q 35.546875 2.25 31.03125 0.53125 
Q 26.515625 -1.171875 21.34375 -1.171875 
Q 12.796875 -1.171875 8.203125 3 
Q 3.609375 7.171875 3.609375 13.671875 
Q 3.609375 17.484375 5.34375 20.625 
Q 7.078125 23.78125 9.890625 25.6875 
Q 12.703125 27.59375 16.21875 28.5625 
Q 18.796875 29.25 24.03125 29.890625 
Q 34.671875 31.15625 39.703125 32.90625 
Q 39.75 34.71875 39.75 35.203125 
Q 39.75 40.578125 37.25 42.78125 
Q 33.890625 45.75 27.25 45.75 
Q 21.046875 45.75 18.09375 43.578125 
Q 15.140625 41.40625 13.71875 35.890625 
L 5.125 37.0625 
Q 6.296875 42.578125 8.984375 45.96875 
Q 11.671875 49.359375 16.75 51.1875 
Q 21.828125 53.03125 28.515625 53.03125 
Q 35.15625 53.03125 39.296875 51.46875 
Q 43.453125 49.90625 45.40625 47.53125 
Q 47.359375 45.171875 48.140625 41.546875 
Q 48.578125 39.3125 48.578125 33.453125 
L 48.578125 21.734375 
Q 48.578125 9.46875 49.140625 6.21875 
Q 49.703125 2.984375 51.375 0 
L 42.1875 0 
Q 40.828125 2.734375 40.4375 6.390625 
z
M 39.703125 26.03125 
Q 34.90625 24.078125 25.34375 22.703125 
Q 19.921875 21.921875 17.671875 20.9375 
Q 15.4375 19.96875 14.203125 18.09375 
Q 12.984375 16.21875 12.984375 13.921875 
Q 12.984375 10.40625 15.640625 8.0625 
Q 18.3125 5.71875 23.4375 5.71875 
Q 28.515625 5.71875 32.46875 7.9375 
Q 36.421875 10.15625 38.28125 14.015625 
Q 39.703125 17 39.703125 22.796875 
z
" id="ArialMT-97"/>
      <path d="M 6.390625 0 
L 6.390625 71.578125 
L 15.1875 71.578125 
L 15.1875 0 
z
" id="ArialMT-108"/>
      <path d="M 42.09375 16.703125 
L 51.171875 15.578125 
Q 49.03125 7.625 43.21875 3.21875 
Q 37.40625 -1.171875 28.375 -1.171875 
Q 17 -1.171875 10.328125 5.828125 
Q 3.65625 12.84375 3.65625 25.484375 
Q 3.65625 38.578125 10.390625 45.796875 
Q 17.140625 53.03125 27.875 53.03125 
Q 38.28125 53.03125 44.875 45.953125 
Q 51.46875 38.875 51.46875 26.03125 
Q 51.46875 25.25 51.421875 23.6875 
L 12.75 23.6875 
Q 13.234375 15.140625 17.578125 10.59375 
Q 21.921875 6.0625 28.421875 6.0625 
Q 33.25 6.0625 36.671875 8.59375 
Q 40.09375 11.140625 42.09375 16.703125 
z
M 13.234375 30.90625 
L 42.1875 30.90625 
Q 41.609375 37.453125 38.875 40.71875 
Q 34.671875 45.796875 27.984375 45.796875 
Q 21.921875 45.796875 17.796875 41.75 
Q 13.671875 37.703125 13.234375 30.90625 
z
" id="ArialMT-101"/>
      <path d="M 7.71875 0 
L 7.71875 71.578125 
L 34.71875 71.578125 
Q 41.84375 71.578125 45.609375 70.90625 
Q 50.875 70.015625 54.4375 67.546875 
Q 58.015625 65.09375 60.1875 60.640625 
Q 62.359375 56.203125 62.359375 50.875 
Q 62.359375 41.75 56.546875 35.421875 
Q 50.734375 29.109375 35.546875 29.109375 
L 17.1875 29.109375 
L 17.1875 0 
z
M 17.1875 37.546875 
L 35.6875 37.546875 
Q 44.875 37.546875 48.734375 40.96875 
Q 52.59375 44.390625 52.59375 50.59375 
Q 52.59375 55.078125 50.3125 58.265625 
Q 48.046875 61.46875 44.34375 62.5 
Q 41.9375 63.140625 35.5 63.140625 
L 17.1875 63.140625 
z
" id="ArialMT-80"/>
      <path d="M 6.5 0 
L 6.5 51.859375 
L 14.40625 51.859375 
L 14.40625 44 
Q 17.4375 49.515625 20 51.265625 
Q 22.5625 53.03125 25.640625 53.03125 
Q 30.078125 53.03125 34.671875 50.203125 
L 31.640625 42.046875 
Q 28.421875 43.953125 25.203125 43.953125 
Q 22.3125 43.953125 20.015625 42.21875 
Q 17.71875 40.484375 16.75 37.40625 
Q 15.28125 32.71875 15.28125 27.15625 
L 15.28125 0 
z
" id="ArialMT-114"/>
      <path d="M 6.640625 61.46875 
L 6.640625 71.578125 
L 15.4375 71.578125 
L 15.4375 61.46875 
z
M 6.640625 0 
L 6.640625 51.859375 
L 15.4375 51.859375 
L 15.4375 0 
z
" id="ArialMT-105"/>
      <path d="M 40.4375 19 
L 49.078125 17.875 
Q 47.65625 8.9375 41.8125 3.875 
Q 35.984375 -1.171875 27.484375 -1.171875 
Q 16.84375 -1.171875 10.375 5.78125 
Q 3.90625 12.75 3.90625 25.734375 
Q 3.90625 34.125 6.6875 40.421875 
Q 9.46875 46.734375 15.15625 49.875 
Q 20.84375 53.03125 27.546875 53.03125 
Q 35.984375 53.03125 41.359375 48.75 
Q 46.734375 44.484375 48.25 36.625 
L 39.703125 35.296875 
Q 38.484375 40.53125 35.375 43.15625 
Q 32.28125 45.796875 27.875 45.796875 
Q 21.234375 45.796875 17.078125 41.03125 
Q 12.9375 36.28125 12.9375 25.984375 
Q 12.9375 15.53125 16.9375 10.796875 
Q 20.953125 6.0625 27.390625 6.0625 
Q 32.5625 6.0625 36.03125 9.234375 
Q 39.5 12.40625 40.4375 19 
z
" id="ArialMT-99"/>
     </defs>
     <g style="fill:#262626;" transform="translate(166.321875 249.874687)scale(0.12 -0.12)">
      <use xlink:href="#ArialMT-83"/>
      <use x="66.699219" xlink:href="#ArialMT-97"/>
      <use x="122.314453" xlink:href="#ArialMT-108"/>
      <use x="144.53125" xlink:href="#ArialMT-101"/>
      <use x="200.146484" xlink:href="#ArialMT-80"/>
      <use x="266.845703" xlink:href="#ArialMT-114"/>
      <use x="300.146484" xlink:href="#ArialMT-105"/>
      <use x="322.363281" xlink:href="#ArialMT-99"/>
      <use x="372.363281" xlink:href="#ArialMT-101"/>
     </g>
    </g>
   </g>
   <g id="matplotlib.axis_2">
    <g id="ytick_1">
     <g id="line2d_8"/>
     <g id="text_9">
      <!-- 0.0 -->
      <g style="fill:#262626;" transform="translate(7.2 228.218906)scale(0.1 -0.1)">
       <use xlink:href="#ArialMT-48"/>
       <use x="55.615234" xlink:href="#ArialMT-46"/>
       <use x="83.398438" xlink:href="#ArialMT-48"/>
      </g>
     </g>
    </g>
    <g id="ytick_2">
     <g id="line2d_9"/>
     <g id="text_10">
      <!-- 0.5 -->
      <g style="fill:#262626;" transform="translate(7.2 183.159983)scale(0.1 -0.1)">
       <use xlink:href="#ArialMT-48"/>
       <use x="55.615234" xlink:href="#ArialMT-46"/>
       <use x="83.398438" xlink:href="#ArialMT-53"/>
      </g>
     </g>
    </g>
    <g id="ytick_3">
     <g id="line2d_10"/>
     <g id="text_11">
      <!-- 1.0 -->
      <g style="fill:#262626;" transform="translate(7.2 138.10106)scale(0.1 -0.1)">
       <use xlink:href="#ArialMT-49"/>
       <use x="55.615234" xlink:href="#ArialMT-46"/>
       <use x="83.398438" xlink:href="#ArialMT-48"/>
      </g>
     </g>
    </g>
    <g id="ytick_4">
     <g id="line2d_11"/>
     <g id="text_12">
      <!-- 1.5 -->
      <g style="fill:#262626;" transform="translate(7.2 93.042137)scale(0.1 -0.1)">
       <use xlink:href="#ArialMT-49"/>
       <use x="55.615234" xlink:href="#ArialMT-46"/>
       <use x="83.398438" xlink:href="#ArialMT-53"/>
      </g>
     </g>
    </g>
    <g id="ytick_5">
     <g id="line2d_12"/>
     <g id="text_13">
      <!-- 2.0 -->
      <g style="fill:#262626;" transform="translate(7.2 47.983213)scale(0.1 -0.1)">
       <use xlink:href="#ArialMT-50"/>
       <use x="55.615234" xlink:href="#ArialMT-46"/>
       <use x="83.398438" xlink:href="#ArialMT-48"/>
      </g>
     </g>
    </g>
   </g>
   <g id="patch_3">
    <path clip-path="url(#p5d90de1c40)" d="M 186.26988 224.64 
L 194.712851 224.64 
L 194.712851 216.349618 
L 186.26988 216.349618 
z
" style="fill:#e24a33;opacity:0.4;"/>
   </g>
   <g id="patch_4">
    <path clip-path="url(#p5d90de1c40)" d="M 194.712851 224.64 
L 203.155822 224.64 
L 203.155822 197.69626 
L 194.712851 197.69626 
z
" style="fill:#e24a33;opacity:0.4;"/>
   </g>
   <g id="patch_5">
    <path clip-path="url(#p5d90de1c40)" d="M 203.155822 224.64 
L 211.598793 224.64 
L 211.598793 133.445802 
L 203.155822 133.445802 
z
" style="fill:#e24a33;opacity:0.4;"/>
   </g>
   <g id="patch_6">
    <path clip-path="url(#p5d90de1c40)" d="M 211.598793 224.64 
L 220.041764 224.64 
L 220.041764 102.35687 
L 211.598793 102.35687 
z
" style="fill:#e24a33;opacity:0.4;"/>
   </g>
   <g id="patch_7">
    <path clip-path="url(#p5d90de1c40)" d="M 220.041764 224.64 
L 228.484735 224.64 
L 228.484735 110.647252 
L 220.041764 110.647252 
z
" style="fill:#e24a33;opacity:0.4;"/>
   </g>
   <g id="patch_8">
    <path clip-path="url(#p5d90de1c40)" d="M 228.484735 224.64 
L 236.927706 224.64 
L 236.927706 69.195344 
L 228.484735 69.195344 
z
" style="fill:#e24a33;opacity:0.4;"/>
   </g>
   <g id="patch_9">
    <path clip-path="url(#p5d90de1c40)" d="M 236.927706 224.64 
L 245.370677 224.64 
L 245.370677 125.15542 
L 236.927706 125.15542 
z
" style="fill:#e24a33;opacity:0.4;"/>
   </g>
   <g id="patch_10">
    <path clip-path="url(#p5d90de1c40)" d="M 245.370677 224.64 
L 253.813648 224.64 
L 253.813648 116.865038 
L 245.370677 116.865038 
z
" style="fill:#e24a33;opacity:0.4;"/>
   </g>
   <g id="patch_11">
    <path clip-path="url(#p5d90de1c40)" d="M 253.813648 224.64 
L 262.256619 224.64 
L 262.256619 147.95397 
L 253.813648 147.95397 
z
" style="fill:#e24a33;opacity:0.4;"/>
   </g>
   <g id="patch_12">
    <path clip-path="url(#p5d90de1c40)" d="M 262.256619 224.64 
L 270.69959 224.64 
L 270.69959 168.679924 
L 262.256619 168.679924 
z
" style="fill:#e24a33;opacity:0.4;"/>
   </g>
   <g id="patch_13">
    <path clip-path="url(#p5d90de1c40)" d="M 270.69959 224.64 
L 279.142561 224.64 
L 279.142561 185.260687 
L 270.69959 185.260687 
z
" style="fill:#e24a33;opacity:0.4;"/>
   </g>
   <g id="patch_14">
    <path clip-path="url(#p5d90de1c40)" d="M 279.142561 224.64 
L 287.585532 224.64 
L 287.585532 193.551069 
L 279.142561 193.551069 
z
" style="fill:#e24a33;opacity:0.4;"/>
   </g>
   <g id="patch_15">
    <path clip-path="url(#p5d90de1c40)" d="M 287.585532 224.64 
L 296.028503 224.64 
L 296.028503 208.059237 
L 287.585532 208.059237 
z
" style="fill:#e24a33;opacity:0.4;"/>
   </g>
   <g id="patch_16">
    <path clip-path="url(#p5d90de1c40)" d="M 296.028503 224.64 
L 304.471474 224.64 
L 304.471474 218.422214 
L 296.028503 218.422214 
z
" style="fill:#e24a33;opacity:0.4;"/>
   </g>
   <g id="patch_17">
    <path clip-path="url(#p5d90de1c40)" d="M 304.471474 224.64 
L 312.914445 224.64 
L 312.914445 218.422214 
L 304.471474 218.422214 
z
" style="fill:#e24a33;opacity:0.4;"/>
   </g>
   <g id="patch_18">
    <path clip-path="url(#p5d90de1c40)" d="M 312.914445 224.64 
L 321.357416 224.64 
L 321.357416 218.422214 
L 312.914445 218.422214 
z
" style="fill:#e24a33;opacity:0.4;"/>
   </g>
   <g id="patch_19">
    <path clip-path="url(#p5d90de1c40)" d="M 113.281922 224.64 
L 118.677536 224.64 
L 118.677536 222.203697 
L 113.281922 222.203697 
z
" style="fill:#348abd;opacity:0.4;"/>
   </g>
   <g id="patch_20">
    <path clip-path="url(#p5d90de1c40)" d="M 118.677536 224.64 
L 124.073151 224.64 
L 124.073151 224.64 
L 118.677536 224.64 
z
" style="fill:#348abd;opacity:0.4;"/>
   </g>
   <g id="patch_21">
    <path clip-path="url(#p5d90de1c40)" d="M 124.073151 224.64 
L 129.468766 224.64 
L 129.468766 224.64 
L 124.073151 224.64 
z
" style="fill:#348abd;opacity:0.4;"/>
   </g>
   <g id="patch_22">
    <path clip-path="url(#p5d90de1c40)" d="M 129.468766 224.64 
L 134.86438 224.64 
L 134.86438 222.203697 
L 129.468766 222.203697 
z
" style="fill:#348abd;opacity:0.4;"/>
   </g>
   <g id="patch_23">
    <path clip-path="url(#p5d90de1c40)" d="M 134.86438 224.64 
L 140.259995 224.64 
L 140.259995 219.767395 
L 134.86438 219.767395 
z
" style="fill:#348abd;opacity:0.4;"/>
   </g>
   <g id="patch_24">
    <path clip-path="url(#p5d90de1c40)" d="M 140.259995 224.64 
L 145.655609 224.64 
L 145.655609 224.64 
L 140.259995 224.64 
z
" style="fill:#348abd;opacity:0.4;"/>
   </g>
   <g id="patch_25">
    <path clip-path="url(#p5d90de1c40)" d="M 145.655609 224.64 
L 151.051224 224.64 
L 151.051224 219.767395 
L 145.655609 219.767395 
z
" style="fill:#348abd;opacity:0.4;"/>
   </g>
   <g id="patch_26">
    <path clip-path="url(#p5d90de1c40)" d="M 151.051224 224.64 
L 156.446838 224.64 
L 156.446838 210.022185 
L 151.051224 210.022185 
z
" style="fill:#348abd;opacity:0.4;"/>
   </g>
   <g id="patch_27">
    <path clip-path="url(#p5d90de1c40)" d="M 156.446838 224.64 
L 161.842453 224.64 
L 161.842453 212.458487 
L 156.446838 212.458487 
z
" style="fill:#348abd;opacity:0.4;"/>
   </g>
   <g id="patch_28">
    <path clip-path="url(#p5d90de1c40)" d="M 161.842453 224.64 
L 167.238068 224.64 
L 167.238068 185.65916 
L 161.842453 185.65916 
z
" style="fill:#348abd;opacity:0.4;"/>
   </g>
   <g id="patch_29">
    <path clip-path="url(#p5d90de1c40)" d="M 167.238068 224.64 
L 172.633682 224.64 
L 172.633682 173.477647 
L 167.238068 173.477647 
z
" style="fill:#348abd;opacity:0.4;"/>
   </g>
   <g id="patch_30">
    <path clip-path="url(#p5d90de1c40)" d="M 172.633682 224.64 
L 178.029297 224.64 
L 178.029297 156.423529 
L 172.633682 156.423529 
z
" style="fill:#348abd;opacity:0.4;"/>
   </g>
   <g id="patch_31">
    <path clip-path="url(#p5d90de1c40)" d="M 178.029297 224.64 
L 183.424911 224.64 
L 183.424911 83.334454 
L 178.029297 83.334454 
z
" style="fill:#348abd;opacity:0.4;"/>
   </g>
   <g id="patch_32">
    <path clip-path="url(#p5d90de1c40)" d="M 183.424911 224.64 
L 188.820526 224.64 
L 188.820526 17.554286 
L 183.424911 17.554286 
z
" style="fill:#348abd;opacity:0.4;"/>
   </g>
   <g id="patch_33">
    <path clip-path="url(#p5d90de1c40)" d="M 188.820526 224.64 
L 194.21614 224.64 
L 194.21614 85.770756 
L 188.820526 85.770756 
z
" style="fill:#348abd;opacity:0.4;"/>
   </g>
   <g id="patch_34">
    <path clip-path="url(#p5d90de1c40)" d="M 194.21614 224.64 
L 199.611755 224.64 
L 199.611755 46.789916 
L 194.21614 46.789916 
z
" style="fill:#348abd;opacity:0.4;"/>
   </g>
   <g id="patch_35">
    <path clip-path="url(#p5d90de1c40)" d="M 199.611755 224.64 
L 205.00737 224.64 
L 205.00737 85.770756 
L 199.611755 85.770756 
z
" style="fill:#348abd;opacity:0.4;"/>
   </g>
   <g id="patch_36">
    <path clip-path="url(#p5d90de1c40)" d="M 205.00737 224.64 
L 210.402984 224.64 
L 210.402984 39.481008 
L 205.00737 39.481008 
z
" style="fill:#348abd;opacity:0.4;"/>
   </g>
   <g id="patch_37">
    <path clip-path="url(#p5d90de1c40)" d="M 210.402984 224.64 
L 215.798599 224.64 
L 215.798599 119.878992 
L 210.402984 119.878992 
z
" style="fill:#348abd;opacity:0.4;"/>
   </g>
   <g id="patch_38">
    <path clip-path="url(#p5d90de1c40)" d="M 215.798599 224.64 
L 221.194213 224.64 
L 221.194213 146.678319 
L 215.798599 146.678319 
z
" style="fill:#348abd;opacity:0.4;"/>
   </g>
   <g id="patch_39">
    <path clip-path="url(#p5d90de1c40)" d="M 221.194213 224.64 
L 226.589828 224.64 
L 226.589828 168.605042 
L 221.194213 168.605042 
z
" style="fill:#348abd;opacity:0.4;"/>
   </g>
   <g id="patch_40">
    <path clip-path="url(#p5d90de1c40)" d="M 226.589828 224.64 
L 231.985442 224.64 
L 231.985442 205.14958 
L 226.589828 205.14958 
z
" style="fill:#348abd;opacity:0.4;"/>
   </g>
   <g id="patch_41">
    <path clip-path="url(#p5d90de1c40)" d="M 231.985442 224.64 
L 237.381057 224.64 
L 237.381057 197.840672 
L 231.985442 197.840672 
z
" style="fill:#348abd;opacity:0.4;"/>
   </g>
   <g id="patch_42">
    <path clip-path="url(#p5d90de1c40)" d="M 237.381057 224.64 
L 242.776672 224.64 
L 242.776672 205.14958 
L 237.381057 205.14958 
z
" style="fill:#348abd;opacity:0.4;"/>
   </g>
   <g id="patch_43">
    <path clip-path="url(#p5d90de1c40)" d="M 242.776672 224.64 
L 248.172286 224.64 
L 248.172286 212.458487 
L 242.776672 212.458487 
z
" style="fill:#348abd;opacity:0.4;"/>
   </g>
   <g id="patch_44">
    <path clip-path="url(#p5d90de1c40)" d="M 248.172286 224.64 
L 253.567901 224.64 
L 253.567901 222.203697 
L 248.172286 222.203697 
z
" style="fill:#348abd;opacity:0.4;"/>
   </g>
   <g id="patch_45">
    <path clip-path="url(#p5d90de1c40)" d="M 60.839462 224.64 
L 68.662295 224.64 
L 68.662295 216.25164 
L 60.839462 216.25164 
z
" style="fill:#988ed5;opacity:0.4;"/>
   </g>
   <g id="patch_46">
    <path clip-path="url(#p5d90de1c40)" d="M 68.662295 224.64 
L 76.485127 224.64 
L 76.485127 219.04776 
L 68.662295 219.04776 
z
" style="fill:#988ed5;opacity:0.4;"/>
   </g>
   <g id="patch_47">
    <path clip-path="url(#p5d90de1c40)" d="M 76.485127 224.64 
L 84.307959 224.64 
L 84.307959 224.64 
L 76.485127 224.64 
z
" style="fill:#988ed5;opacity:0.4;"/>
   </g>
   <g id="patch_48">
    <path clip-path="url(#p5d90de1c40)" d="M 84.307959 224.64 
L 92.130791 224.64 
L 92.130791 224.64 
L 84.307959 224.64 
z
" style="fill:#988ed5;opacity:0.4;"/>
   </g>
   <g id="patch_49">
    <path clip-path="url(#p5d90de1c40)" d="M 92.130791 224.64 
L 99.953624 224.64 
L 99.953624 219.04776 
L 92.130791 219.04776 
z
" style="fill:#988ed5;opacity:0.4;"/>
   </g>
   <g id="patch_50">
    <path clip-path="url(#p5d90de1c40)" d="M 99.953624 224.64 
L 107.776456 224.64 
L 107.776456 213.455519 
L 99.953624 213.455519 
z
" style="fill:#988ed5;opacity:0.4;"/>
   </g>
   <g id="patch_51">
    <path clip-path="url(#p5d90de1c40)" d="M 107.776456 224.64 
L 115.599288 224.64 
L 115.599288 213.455519 
L 107.776456 213.455519 
z
" style="fill:#988ed5;opacity:0.4;"/>
   </g>
   <g id="patch_52">
    <path clip-path="url(#p5d90de1c40)" d="M 115.599288 224.64 
L 123.42212 224.64 
L 123.42212 207.863279 
L 115.599288 207.863279 
z
" style="fill:#988ed5;opacity:0.4;"/>
   </g>
   <g id="patch_53">
    <path clip-path="url(#p5d90de1c40)" d="M 123.42212 224.64 
L 131.244953 224.64 
L 131.244953 210.659399 
L 123.42212 210.659399 
z
" style="fill:#988ed5;opacity:0.4;"/>
   </g>
   <g id="patch_54">
    <path clip-path="url(#p5d90de1c40)" d="M 131.244953 224.64 
L 139.067785 224.64 
L 139.067785 165.921477 
L 131.244953 165.921477 
z
" style="fill:#988ed5;opacity:0.4;"/>
   </g>
   <g id="patch_55">
    <path clip-path="url(#p5d90de1c40)" d="M 139.067785 224.64 
L 146.890617 224.64 
L 146.890617 137.960276 
L 139.067785 137.960276 
z
" style="fill:#988ed5;opacity:0.4;"/>
   </g>
   <g id="patch_56">
    <path clip-path="url(#p5d90de1c40)" d="M 146.890617 224.64 
L 154.713449 224.64 
L 154.713449 157.533117 
L 146.890617 157.533117 
z
" style="fill:#988ed5;opacity:0.4;"/>
   </g>
   <g id="patch_57">
    <path clip-path="url(#p5d90de1c40)" d="M 154.713449 224.64 
L 162.536282 224.64 
L 162.536282 129.571916 
L 154.713449 129.571916 
z
" style="fill:#988ed5;opacity:0.4;"/>
   </g>
   <g id="patch_58">
    <path clip-path="url(#p5d90de1c40)" d="M 162.536282 224.64 
L 170.359114 224.64 
L 170.359114 62.465033 
L 162.536282 62.465033 
z
" style="fill:#988ed5;opacity:0.4;"/>
   </g>
   <g id="patch_59">
    <path clip-path="url(#p5d90de1c40)" d="M 170.359114 224.64 
L 178.181946 224.64 
L 178.181946 45.688312 
L 170.359114 45.688312 
z
" style="fill:#988ed5;opacity:0.4;"/>
   </g>
   <g id="patch_60">
    <path clip-path="url(#p5d90de1c40)" d="M 178.181946 224.64 
L 186.004778 224.64 
L 186.004778 70.853393 
L 178.181946 70.853393 
z
" style="fill:#988ed5;opacity:0.4;"/>
   </g>
   <g id="patch_61">
    <path clip-path="url(#p5d90de1c40)" d="M 186.004778 224.64 
L 193.827611 224.64 
L 193.827611 123.979675 
L 186.004778 123.979675 
z
" style="fill:#988ed5;opacity:0.4;"/>
   </g>
   <g id="patch_62">
    <path clip-path="url(#p5d90de1c40)" d="M 193.827611 224.64 
L 201.650443 224.64 
L 201.650443 188.290438 
L 193.827611 188.290438 
z
" style="fill:#988ed5;opacity:0.4;"/>
   </g>
   <g id="patch_63">
    <path clip-path="url(#p5d90de1c40)" d="M 201.650443 224.64 
L 209.473275 224.64 
L 209.473275 205.067159 
L 201.650443 205.067159 
z
" style="fill:#988ed5;opacity:0.4;"/>
   </g>
   <g id="patch_64">
    <path clip-path="url(#p5d90de1c40)" d="M 209.473275 224.64 
L 217.296107 224.64 
L 217.296107 221.84388 
L 209.473275 221.84388 
z
" style="fill:#988ed5;opacity:0.4;"/>
   </g>
   <g id="patch_65">
    <path clip-path="url(#p5d90de1c40)" d="M 217.296107 224.64 
L 225.118939 224.64 
L 225.118939 224.64 
L 217.296107 224.64 
z
" style="fill:#988ed5;opacity:0.4;"/>
   </g>
   <g id="patch_66">
    <path clip-path="url(#p5d90de1c40)" d="M 225.118939 224.64 
L 232.941772 224.64 
L 232.941772 221.84388 
L 225.118939 221.84388 
z
" style="fill:#988ed5;opacity:0.4;"/>
   </g>
   <g id="patch_67">
    <path clip-path="url(#p5d90de1c40)" d="M 232.941772 224.64 
L 240.764604 224.64 
L 240.764604 221.84388 
L 232.941772 221.84388 
z
" style="fill:#988ed5;opacity:0.4;"/>
   </g>
   <g id="line2d_13">
    <path clip-path="url(#p5d90de1c40)" d="M 163.445478 224.608576 
L 169.137961 224.463154 
L 171.984203 224.226249 
L 174.830445 223.770942 
L 177.676686 222.988196 
L 179.099807 222.437309 
L 180.522928 221.759256 
L 181.946049 220.936352 
L 183.369169 219.947391 
L 184.79229 218.765548 
L 186.215411 217.356177 
L 187.638532 215.675027 
L 189.061652 213.667473 
L 190.484773 211.26939 
L 191.907894 208.410182 
L 193.331015 205.018286 
L 194.754136 201.029131 
L 196.177256 196.395057 
L 197.600377 191.096208 
L 199.023498 185.150843 
L 201.86974 171.626515 
L 207.562223 142.579119 
L 208.985343 136.074498 
L 210.408464 130.206422 
L 211.831585 125.047498 
L 213.254706 120.599423 
L 214.677827 116.797753 
L 216.100947 113.527614 
L 217.524068 110.647929 
L 220.37031 105.534433 
L 223.216551 100.820638 
L 224.639672 98.659865 
L 226.062793 96.761441 
L 227.485914 95.259207 
L 228.909034 94.283215 
L 230.332155 93.933746 
L 231.755276 94.262044 
L 233.178397 95.261607 
L 234.601518 96.871415 
L 236.024638 98.989738 
L 237.447759 101.494686 
L 240.294001 107.204532 
L 244.563363 116.473936 
L 258.794571 148.043839 
L 261.640813 154.400899 
L 270.179537 174.148104 
L 273.025779 179.516426 
L 275.87202 184.082675 
L 291.526349 207.065138 
L 294.372591 210.51154 
L 297.218832 213.383979 
L 298.641953 214.583968 
L 300.065074 215.620289 
L 301.488195 216.49321 
L 302.911315 217.208415 
L 304.334436 217.7778 
L 307.180678 218.556894 
L 310.026919 219.028338 
L 315.719402 219.871704 
L 318.565644 220.494158 
L 322.835006 221.683223 
L 328.52749 223.255451 
L 331.373731 223.828978 
L 334.219973 224.216232 
L 338.489335 224.511704 
L 344.181818 224.611215 
L 344.181818 224.611215 
" style="fill:none;stroke:#e24a33;stroke-linecap:round;stroke-width:1.5;"/>
   </g>
   <g id="line2d_14">
    <path clip-path="url(#p5d90de1c40)" d="M 97.87662 224.62212 
L 103.265489 224.483025 
L 107.30714 224.119036 
L 111.348792 223.69703 
L 114.043226 223.639767 
L 116.737661 223.826616 
L 122.126529 224.310018 
L 124.820964 224.245818 
L 127.515398 223.827597 
L 130.209833 223.070073 
L 132.904267 222.209466 
L 134.251484 221.865285 
L 135.598701 221.636588 
L 138.293136 221.547471 
L 140.98757 221.662628 
L 142.334787 221.611149 
L 143.682004 221.387265 
L 145.029222 220.939325 
L 146.376439 220.242248 
L 147.723656 219.297015 
L 149.070873 218.124542 
L 150.41809 216.75488 
L 153.112525 213.509979 
L 154.459742 211.631102 
L 155.806959 209.549181 
L 157.154176 207.238309 
L 159.848611 201.938898 
L 162.543045 195.94076 
L 165.237479 189.159168 
L 166.584697 185.180178 
L 167.931914 180.555335 
L 169.279131 175.098235 
L 170.626348 168.665009 
L 171.973565 161.165483 
L 173.320782 152.560699 
L 174.668 142.861653 
L 177.362434 120.562604 
L 181.404086 84.215482 
L 182.751303 73.382378 
L 184.09852 64.248329 
L 185.445737 57.32978 
L 186.792954 52.900562 
L 188.140171 50.916619 
L 189.487389 51.017122 
L 190.834606 52.610117 
L 194.876257 59.97455 
L 196.223475 61.838822 
L 197.570692 63.153107 
L 198.917909 63.992108 
L 201.612343 65.029124 
L 202.95956 65.839717 
L 204.306778 67.375993 
L 205.653995 70.054779 
L 207.001212 74.201282 
L 208.348429 79.956343 
L 209.695646 87.225753 
L 211.042864 95.69671 
L 217.77895 141.119548 
L 220.473384 156.376213 
L 223.167818 169.815206 
L 224.515035 175.832057 
L 225.862253 181.269007 
L 227.20947 186.015154 
L 228.556687 189.985366 
L 229.903904 193.157468 
L 231.251121 195.592308 
L 232.598339 197.43008 
L 233.945556 198.865051 
L 237.987207 202.72699 
L 239.334424 204.320237 
L 240.681642 206.142247 
L 243.376076 210.280027 
L 246.07051 214.491774 
L 247.417728 216.395488 
L 248.764945 218.074721 
L 250.112162 219.497738 
L 251.459379 220.6628 
L 252.806596 221.592561 
L 254.153813 222.324223 
L 255.501031 222.898583 
L 258.195465 223.709076 
L 260.889899 224.203286 
L 263.584334 224.470566 
L 267.625985 224.611287 
L 268.973203 224.621963 
L 268.973203 224.621963 
" style="fill:none;stroke:#348abd;stroke-linecap:round;stroke-width:1.5;"/>
   </g>
   <g id="line2d_15">
    <path clip-path="url(#p5d90de1c40)" d="M 39.818182 224.609257 
L 45.061513 224.45954 
L 48.557068 224.127437 
L 52.052622 223.473786 
L 55.548176 222.488611 
L 60.791508 220.825669 
L 64.287062 220.034346 
L 66.03484 219.828346 
L 67.782617 219.774924 
L 69.530394 219.883497 
L 71.278171 220.151983 
L 74.773726 221.081245 
L 80.017057 222.725697 
L 81.764834 223.099191 
L 83.512611 223.29858 
L 85.260389 223.290246 
L 87.008166 223.054855 
L 88.755943 222.587994 
L 90.50372 221.901369 
L 92.251497 221.023885 
L 95.747052 218.890956 
L 99.242606 216.665397 
L 100.990383 215.665502 
L 102.738161 214.797272 
L 104.485938 214.08241 
L 106.233715 213.524796 
L 109.729269 212.80902 
L 114.972601 212.068676 
L 116.720378 211.650573 
L 118.468155 210.998753 
L 120.215932 209.989312 
L 121.96371 208.468004 
L 123.711487 206.258868 
L 125.459264 203.189849 
L 127.207041 199.133418 
L 128.954818 194.052879 
L 130.702595 188.040415 
L 134.19815 174.296701 
L 135.945927 167.379629 
L 137.693704 161.039192 
L 139.441481 155.660152 
L 141.189259 151.47958 
L 142.937036 148.535043 
L 144.684813 146.646966 
L 146.43259 145.439356 
L 148.180367 144.396124 
L 149.928145 142.944163 
L 151.675922 140.549779 
L 153.423699 136.811988 
L 155.171476 131.535198 
L 156.919253 124.765613 
L 158.66703 116.781573 
L 163.910362 90.435371 
L 165.658139 82.554759 
L 167.405916 75.755609 
L 169.153694 70.242132 
L 170.901471 66.149892 
L 172.649248 63.600776 
L 174.397025 62.736773 
L 176.144802 63.714162 
L 177.89258 66.6598 
L 179.640357 71.610335 
L 181.388134 78.463873 
L 183.135911 86.967696 
L 184.883688 96.748658 
L 188.379243 118.417515 
L 191.874797 140.367843 
L 195.370351 160.579245 
L 197.118129 169.674033 
L 198.865906 177.984914 
L 200.613683 185.470834 
L 202.36146 192.123419 
L 204.109237 197.963637 
L 205.857015 203.033803 
L 207.604792 207.387252 
L 209.352569 211.079383 
L 211.100346 214.162646 
L 212.848123 216.685766 
L 214.5959 218.69577 
L 216.343678 220.241008 
L 218.091455 221.373814 
L 219.839232 222.152096 
L 221.587009 222.639363 
L 223.334786 222.90277 
L 226.830341 223.018979 
L 237.317004 222.907142 
L 240.812558 223.084707 
L 246.05589 223.634888 
L 251.299221 224.226933 
L 256.542553 224.538517 
L 261.785884 224.614762 
L 261.785884 224.614762 
" style="fill:none;stroke:#988ed5;stroke-linecap:round;stroke-width:1.5;"/>
   </g>
   <g id="patch_68">
    <path d="M 24.6 224.64 
L 24.6 7.2 
" style="fill:none;stroke:#262626;stroke-linecap:square;stroke-linejoin:miter;stroke-width:1.25;"/>
   </g>
   <g id="patch_69">
    <path d="M 359.4 224.64 
L 359.4 7.2 
" style="fill:none;stroke:#262626;stroke-linecap:square;stroke-linejoin:miter;stroke-width:1.25;"/>
   </g>
   <g id="patch_70">
    <path d="M 24.6 224.64 
L 359.4 224.64 
" style="fill:none;stroke:#262626;stroke-linecap:square;stroke-linejoin:miter;stroke-width:1.25;"/>
   </g>
   <g id="patch_71">
    <path d="M 24.6 7.2 
L 359.4 7.2 
" style="fill:none;stroke:#262626;stroke-linecap:square;stroke-linejoin:miter;stroke-width:1.25;"/>
   </g>
  </g>
 </g>
 <defs>
  <clipPath id="p5d90de1c40">
   <rect height="217.44" width="334.8" x="24.6" y="7.2"/>
  </clipPath>
 </defs>
</svg>
