<?xml version="1.0" encoding="utf-8" standalone="no"?>
<!DOCTYPE svg PUBLIC "-//W3C//DTD SVG 1.1//EN"
  "http://www.w3.org/Graphics/SVG/1.1/DTD/svg11.dtd">
<!-- Created with matplotlib (https://matplotlib.org/) -->
<svg height="259.459687pt" version="1.1" viewBox="0 0 401.259333 259.459687" width="401.259333pt" xmlns="http://www.w3.org/2000/svg" xmlns:xlink="http://www.w3.org/1999/xlink">
 <defs>
  <style type="text/css">
*{stroke-linecap:butt;stroke-linejoin:round;}
  </style>
 </defs>
 <g id="figure_1">
  <g id="patch_1">
   <path d="M 0 259.459687 
L 401.259333 259.459687 
L 401.259333 0 
L 0 0 
z
" style="fill:#ffffff;"/>
  </g>
  <g id="axes_1">
   <g id="patch_2">
    <path d="M 52.404688 224.64 
L 387.204688 224.64 
L 387.204688 7.2 
L 52.404688 7.2 
z
" style="fill:#ffffff;"/>
   </g>
   <g id="matplotlib.axis_1">
    <g id="xtick_1">
     <g id="line2d_1"/>
     <g id="text_1">
      <!-- 0 -->
      <defs>
       <path d="M 4.15625 35.296875 
Q 4.15625 48 6.765625 55.734375 
Q 9.375 63.484375 14.515625 67.671875 
Q 19.671875 71.875 27.484375 71.875 
Q 33.25 71.875 37.59375 69.546875 
Q 41.9375 67.234375 44.765625 62.859375 
Q 47.609375 58.5 49.21875 52.21875 
Q 50.828125 45.953125 50.828125 35.296875 
Q 50.828125 22.703125 48.234375 14.96875 
Q 45.65625 7.234375 40.5 3 
Q 35.359375 -1.21875 27.484375 -1.21875 
Q 17.140625 -1.21875 11.234375 6.203125 
Q 4.15625 15.140625 4.15625 35.296875 
z
M 13.1875 35.296875 
Q 13.1875 17.671875 17.3125 11.828125 
Q 21.4375 6 27.484375 6 
Q 33.546875 6 37.671875 11.859375 
Q 41.796875 17.71875 41.796875 35.296875 
Q 41.796875 52.984375 37.671875 58.78125 
Q 33.546875 64.59375 27.390625 64.59375 
Q 21.34375 64.59375 17.71875 59.46875 
Q 13.1875 52.9375 13.1875 35.296875 
z
" id="ArialMT-48"/>
      </defs>
      <g style="fill:#262626;" transform="translate(60.893726 235.297812)scale(0.1 -0.1)">
       <use xlink:href="#ArialMT-48"/>
      </g>
     </g>
    </g>
    <g id="xtick_2">
     <g id="line2d_2"/>
     <g id="text_2">
      <!-- 100000 -->
      <defs>
       <path d="M 37.25 0 
L 28.46875 0 
L 28.46875 56 
Q 25.296875 52.984375 20.140625 49.953125 
Q 14.984375 46.921875 10.890625 45.40625 
L 10.890625 53.90625 
Q 18.265625 57.375 23.78125 62.296875 
Q 29.296875 67.234375 31.59375 71.875 
L 37.25 71.875 
z
" id="ArialMT-49"/>
      </defs>
      <g style="fill:#262626;" transform="translate(91.806 235.297812)scale(0.1 -0.1)">
       <use xlink:href="#ArialMT-49"/>
       <use x="55.615234" xlink:href="#ArialMT-48"/>
       <use x="111.230469" xlink:href="#ArialMT-48"/>
       <use x="166.845703" xlink:href="#ArialMT-48"/>
       <use x="222.460938" xlink:href="#ArialMT-48"/>
       <use x="278.076172" xlink:href="#ArialMT-48"/>
      </g>
     </g>
    </g>
    <g id="xtick_3">
     <g id="line2d_3"/>
     <g id="text_3">
      <!-- 200000 -->
      <defs>
       <path d="M 50.34375 8.453125 
L 50.34375 0 
L 3.03125 0 
Q 2.9375 3.171875 4.046875 6.109375 
Q 5.859375 10.9375 9.828125 15.625 
Q 13.8125 20.3125 21.34375 26.46875 
Q 33.015625 36.03125 37.109375 41.625 
Q 41.21875 47.21875 41.21875 52.203125 
Q 41.21875 57.421875 37.46875 61 
Q 33.734375 64.59375 27.734375 64.59375 
Q 21.390625 64.59375 17.578125 60.78125 
Q 13.765625 56.984375 13.71875 50.25 
L 4.6875 51.171875 
Q 5.609375 61.28125 11.65625 66.578125 
Q 17.71875 71.875 27.9375 71.875 
Q 38.234375 71.875 44.234375 66.15625 
Q 50.25 60.453125 50.25 52 
Q 50.25 47.703125 48.484375 43.546875 
Q 46.734375 39.40625 42.65625 34.8125 
Q 38.578125 30.21875 29.109375 22.21875 
Q 21.1875 15.578125 18.9375 13.203125 
Q 16.703125 10.84375 15.234375 8.453125 
z
" id="ArialMT-50"/>
      </defs>
      <g style="fill:#262626;" transform="translate(136.620618 235.297812)scale(0.1 -0.1)">
       <use xlink:href="#ArialMT-50"/>
       <use x="55.615234" xlink:href="#ArialMT-48"/>
       <use x="111.230469" xlink:href="#ArialMT-48"/>
       <use x="166.845703" xlink:href="#ArialMT-48"/>
       <use x="222.460938" xlink:href="#ArialMT-48"/>
       <use x="278.076172" xlink:href="#ArialMT-48"/>
      </g>
     </g>
    </g>
    <g id="xtick_4">
     <g id="line2d_4"/>
     <g id="text_4">
      <!-- 300000 -->
      <defs>
       <path d="M 4.203125 18.890625 
L 12.984375 20.0625 
Q 14.5 12.59375 18.140625 9.296875 
Q 21.78125 6 27 6 
Q 33.203125 6 37.46875 10.296875 
Q 41.75 14.59375 41.75 20.953125 
Q 41.75 27 37.796875 30.921875 
Q 33.84375 34.859375 27.734375 34.859375 
Q 25.25 34.859375 21.53125 33.890625 
L 22.515625 41.609375 
Q 23.390625 41.5 23.921875 41.5 
Q 29.546875 41.5 34.03125 44.421875 
Q 38.53125 47.359375 38.53125 53.46875 
Q 38.53125 58.296875 35.25 61.46875 
Q 31.984375 64.65625 26.8125 64.65625 
Q 21.6875 64.65625 18.265625 61.421875 
Q 14.84375 58.203125 13.875 51.765625 
L 5.078125 53.328125 
Q 6.6875 62.15625 12.390625 67.015625 
Q 18.109375 71.875 26.609375 71.875 
Q 32.46875 71.875 37.390625 69.359375 
Q 42.328125 66.84375 44.9375 62.5 
Q 47.5625 58.15625 47.5625 53.265625 
Q 47.5625 48.640625 45.0625 44.828125 
Q 42.578125 41.015625 37.703125 38.765625 
Q 44.046875 37.3125 47.5625 32.6875 
Q 51.078125 28.078125 51.078125 21.140625 
Q 51.078125 11.765625 44.234375 5.25 
Q 37.40625 -1.265625 26.953125 -1.265625 
Q 17.53125 -1.265625 11.296875 4.34375 
Q 5.078125 9.96875 4.203125 18.890625 
z
" id="ArialMT-51"/>
      </defs>
      <g style="fill:#262626;" transform="translate(181.435236 235.297812)scale(0.1 -0.1)">
       <use xlink:href="#ArialMT-51"/>
       <use x="55.615234" xlink:href="#ArialMT-48"/>
       <use x="111.230469" xlink:href="#ArialMT-48"/>
       <use x="166.845703" xlink:href="#ArialMT-48"/>
       <use x="222.460938" xlink:href="#ArialMT-48"/>
       <use x="278.076172" xlink:href="#ArialMT-48"/>
      </g>
     </g>
    </g>
    <g id="xtick_5">
     <g id="line2d_5"/>
     <g id="text_5">
      <!-- 400000 -->
      <defs>
       <path d="M 32.328125 0 
L 32.328125 17.140625 
L 1.265625 17.140625 
L 1.265625 25.203125 
L 33.9375 71.578125 
L 41.109375 71.578125 
L 41.109375 25.203125 
L 50.78125 25.203125 
L 50.78125 17.140625 
L 41.109375 17.140625 
L 41.109375 0 
z
M 32.328125 25.203125 
L 32.328125 57.46875 
L 9.90625 25.203125 
z
" id="ArialMT-52"/>
      </defs>
      <g style="fill:#262626;" transform="translate(226.249854 235.297812)scale(0.1 -0.1)">
       <use xlink:href="#ArialMT-52"/>
       <use x="55.615234" xlink:href="#ArialMT-48"/>
       <use x="111.230469" xlink:href="#ArialMT-48"/>
       <use x="166.845703" xlink:href="#ArialMT-48"/>
       <use x="222.460938" xlink:href="#ArialMT-48"/>
       <use x="278.076172" xlink:href="#ArialMT-48"/>
      </g>
     </g>
    </g>
    <g id="xtick_6">
     <g id="line2d_6"/>
     <g id="text_6">
      <!-- 500000 -->
      <defs>
       <path d="M 4.15625 18.75 
L 13.375 19.53125 
Q 14.40625 12.796875 18.140625 9.390625 
Q 21.875 6 27.15625 6 
Q 33.5 6 37.890625 10.78125 
Q 42.28125 15.578125 42.28125 23.484375 
Q 42.28125 31 38.0625 35.34375 
Q 33.84375 39.703125 27 39.703125 
Q 22.75 39.703125 19.328125 37.765625 
Q 15.921875 35.84375 13.96875 32.765625 
L 5.71875 33.84375 
L 12.640625 70.609375 
L 48.25 70.609375 
L 48.25 62.203125 
L 19.671875 62.203125 
L 15.828125 42.96875 
Q 22.265625 47.46875 29.34375 47.46875 
Q 38.71875 47.46875 45.15625 40.96875 
Q 51.609375 34.46875 51.609375 24.265625 
Q 51.609375 14.546875 45.953125 7.46875 
Q 39.0625 -1.21875 27.15625 -1.21875 
Q 17.390625 -1.21875 11.203125 4.25 
Q 5.03125 9.71875 4.15625 18.75 
z
" id="ArialMT-53"/>
      </defs>
      <g style="fill:#262626;" transform="translate(271.064472 235.297812)scale(0.1 -0.1)">
       <use xlink:href="#ArialMT-53"/>
       <use x="55.615234" xlink:href="#ArialMT-48"/>
       <use x="111.230469" xlink:href="#ArialMT-48"/>
       <use x="166.845703" xlink:href="#ArialMT-48"/>
       <use x="222.460938" xlink:href="#ArialMT-48"/>
       <use x="278.076172" xlink:href="#ArialMT-48"/>
      </g>
     </g>
    </g>
    <g id="xtick_7">
     <g id="line2d_7"/>
     <g id="text_7">
      <!-- 600000 -->
      <defs>
       <path d="M 49.75 54.046875 
L 41.015625 53.375 
Q 39.84375 58.546875 37.703125 60.890625 
Q 34.125 64.65625 28.90625 64.65625 
Q 24.703125 64.65625 21.53125 62.3125 
Q 17.390625 59.28125 14.984375 53.46875 
Q 12.59375 47.65625 12.5 36.921875 
Q 15.671875 41.75 20.265625 44.09375 
Q 24.859375 46.4375 29.890625 46.4375 
Q 38.671875 46.4375 44.84375 39.96875 
Q 51.03125 33.5 51.03125 23.25 
Q 51.03125 16.5 48.125 10.71875 
Q 45.21875 4.9375 40.140625 1.859375 
Q 35.0625 -1.21875 28.609375 -1.21875 
Q 17.625 -1.21875 10.6875 6.859375 
Q 3.765625 14.9375 3.765625 33.5 
Q 3.765625 54.25 11.421875 63.671875 
Q 18.109375 71.875 29.4375 71.875 
Q 37.890625 71.875 43.28125 67.140625 
Q 48.6875 62.40625 49.75 54.046875 
z
M 13.875 23.1875 
Q 13.875 18.65625 15.796875 14.5 
Q 17.71875 10.359375 21.1875 8.171875 
Q 24.65625 6 28.46875 6 
Q 34.03125 6 38.03125 10.484375 
Q 42.046875 14.984375 42.046875 22.703125 
Q 42.046875 30.125 38.078125 34.390625 
Q 34.125 38.671875 28.125 38.671875 
Q 22.171875 38.671875 18.015625 34.390625 
Q 13.875 30.125 13.875 23.1875 
z
" id="ArialMT-54"/>
      </defs>
      <g style="fill:#262626;" transform="translate(315.87909 235.297812)scale(0.1 -0.1)">
       <use xlink:href="#ArialMT-54"/>
       <use x="55.615234" xlink:href="#ArialMT-48"/>
       <use x="111.230469" xlink:href="#ArialMT-48"/>
       <use x="166.845703" xlink:href="#ArialMT-48"/>
       <use x="222.460938" xlink:href="#ArialMT-48"/>
       <use x="278.076172" xlink:href="#ArialMT-48"/>
      </g>
     </g>
    </g>
    <g id="xtick_8">
     <g id="line2d_8"/>
     <g id="text_8">
      <!-- 700000 -->
      <defs>
       <path d="M 4.734375 62.203125 
L 4.734375 70.65625 
L 51.078125 70.65625 
L 51.078125 63.8125 
Q 44.234375 56.546875 37.515625 44.484375 
Q 30.8125 32.421875 27.15625 19.671875 
Q 24.515625 10.6875 23.78125 0 
L 14.75 0 
Q 14.890625 8.453125 18.0625 20.40625 
Q 21.234375 32.375 27.171875 43.484375 
Q 33.109375 54.59375 39.796875 62.203125 
z
" id="ArialMT-55"/>
      </defs>
      <g style="fill:#262626;" transform="translate(360.693708 235.297812)scale(0.1 -0.1)">
       <use xlink:href="#ArialMT-55"/>
       <use x="55.615234" xlink:href="#ArialMT-48"/>
       <use x="111.230469" xlink:href="#ArialMT-48"/>
       <use x="166.845703" xlink:href="#ArialMT-48"/>
       <use x="222.460938" xlink:href="#ArialMT-48"/>
       <use x="278.076172" xlink:href="#ArialMT-48"/>
      </g>
     </g>
    </g>
    <g id="text_9">
     <!-- SalePrice -->
     <defs>
      <path d="M 4.5 23 
L 13.421875 23.78125 
Q 14.0625 18.40625 16.375 14.96875 
Q 18.703125 11.53125 23.578125 9.40625 
Q 28.46875 7.28125 34.578125 7.28125 
Q 39.984375 7.28125 44.140625 8.890625 
Q 48.296875 10.5 50.3125 13.296875 
Q 52.34375 16.109375 52.34375 19.4375 
Q 52.34375 22.796875 50.390625 25.3125 
Q 48.4375 27.828125 43.953125 29.546875 
Q 41.0625 30.671875 31.203125 33.03125 
Q 21.34375 35.40625 17.390625 37.5 
Q 12.25 40.1875 9.734375 44.15625 
Q 7.234375 48.140625 7.234375 53.078125 
Q 7.234375 58.5 10.296875 63.203125 
Q 13.375 67.921875 19.28125 70.359375 
Q 25.203125 72.796875 32.421875 72.796875 
Q 40.375 72.796875 46.453125 70.234375 
Q 52.546875 67.671875 55.8125 62.6875 
Q 59.078125 57.71875 59.328125 51.421875 
L 50.25 50.734375 
Q 49.515625 57.515625 45.28125 60.984375 
Q 41.0625 64.453125 32.8125 64.453125 
Q 24.21875 64.453125 20.28125 61.296875 
Q 16.359375 58.15625 16.359375 53.71875 
Q 16.359375 49.859375 19.140625 47.359375 
Q 21.875 44.875 33.421875 42.265625 
Q 44.96875 39.65625 49.265625 37.703125 
Q 55.515625 34.8125 58.484375 30.390625 
Q 61.46875 25.984375 61.46875 20.21875 
Q 61.46875 14.5 58.203125 9.4375 
Q 54.9375 4.390625 48.796875 1.578125 
Q 42.671875 -1.21875 35.015625 -1.21875 
Q 25.296875 -1.21875 18.71875 1.609375 
Q 12.15625 4.4375 8.421875 10.125 
Q 4.6875 15.828125 4.5 23 
z
" id="ArialMT-83"/>
      <path d="M 40.4375 6.390625 
Q 35.546875 2.25 31.03125 0.53125 
Q 26.515625 -1.171875 21.34375 -1.171875 
Q 12.796875 -1.171875 8.203125 3 
Q 3.609375 7.171875 3.609375 13.671875 
Q 3.609375 17.484375 5.34375 20.625 
Q 7.078125 23.78125 9.890625 25.6875 
Q 12.703125 27.59375 16.21875 28.5625 
Q 18.796875 29.25 24.03125 29.890625 
Q 34.671875 31.15625 39.703125 32.90625 
Q 39.75 34.71875 39.75 35.203125 
Q 39.75 40.578125 37.25 42.78125 
Q 33.890625 45.75 27.25 45.75 
Q 21.046875 45.75 18.09375 43.578125 
Q 15.140625 41.40625 13.71875 35.890625 
L 5.125 37.0625 
Q 6.296875 42.578125 8.984375 45.96875 
Q 11.671875 49.359375 16.75 51.1875 
Q 21.828125 53.03125 28.515625 53.03125 
Q 35.15625 53.03125 39.296875 51.46875 
Q 43.453125 49.90625 45.40625 47.53125 
Q 47.359375 45.171875 48.140625 41.546875 
Q 48.578125 39.3125 48.578125 33.453125 
L 48.578125 21.734375 
Q 48.578125 9.46875 49.140625 6.21875 
Q 49.703125 2.984375 51.375 0 
L 42.1875 0 
Q 40.828125 2.734375 40.4375 6.390625 
z
M 39.703125 26.03125 
Q 34.90625 24.078125 25.34375 22.703125 
Q 19.921875 21.921875 17.671875 20.9375 
Q 15.4375 19.96875 14.203125 18.09375 
Q 12.984375 16.21875 12.984375 13.921875 
Q 12.984375 10.40625 15.640625 8.0625 
Q 18.3125 5.71875 23.4375 5.71875 
Q 28.515625 5.71875 32.46875 7.9375 
Q 36.421875 10.15625 38.28125 14.015625 
Q 39.703125 17 39.703125 22.796875 
z
" id="ArialMT-97"/>
      <path d="M 6.390625 0 
L 6.390625 71.578125 
L 15.1875 71.578125 
L 15.1875 0 
z
" id="ArialMT-108"/>
      <path d="M 42.09375 16.703125 
L 51.171875 15.578125 
Q 49.03125 7.625 43.21875 3.21875 
Q 37.40625 -1.171875 28.375 -1.171875 
Q 17 -1.171875 10.328125 5.828125 
Q 3.65625 12.84375 3.65625 25.484375 
Q 3.65625 38.578125 10.390625 45.796875 
Q 17.140625 53.03125 27.875 53.03125 
Q 38.28125 53.03125 44.875 45.953125 
Q 51.46875 38.875 51.46875 26.03125 
Q 51.46875 25.25 51.421875 23.6875 
L 12.75 23.6875 
Q 13.234375 15.140625 17.578125 10.59375 
Q 21.921875 6.0625 28.421875 6.0625 
Q 33.25 6.0625 36.671875 8.59375 
Q 40.09375 11.140625 42.09375 16.703125 
z
M 13.234375 30.90625 
L 42.1875 30.90625 
Q 41.609375 37.453125 38.875 40.71875 
Q 34.671875 45.796875 27.984375 45.796875 
Q 21.921875 45.796875 17.796875 41.75 
Q 13.671875 37.703125 13.234375 30.90625 
z
" id="ArialMT-101"/>
      <path d="M 7.71875 0 
L 7.71875 71.578125 
L 34.71875 71.578125 
Q 41.84375 71.578125 45.609375 70.90625 
Q 50.875 70.015625 54.4375 67.546875 
Q 58.015625 65.09375 60.1875 60.640625 
Q 62.359375 56.203125 62.359375 50.875 
Q 62.359375 41.75 56.546875 35.421875 
Q 50.734375 29.109375 35.546875 29.109375 
L 17.1875 29.109375 
L 17.1875 0 
z
M 17.1875 37.546875 
L 35.6875 37.546875 
Q 44.875 37.546875 48.734375 40.96875 
Q 52.59375 44.390625 52.59375 50.59375 
Q 52.59375 55.078125 50.3125 58.265625 
Q 48.046875 61.46875 44.34375 62.5 
Q 41.9375 63.140625 35.5 63.140625 
L 17.1875 63.140625 
z
" id="ArialMT-80"/>
      <path d="M 6.5 0 
L 6.5 51.859375 
L 14.40625 51.859375 
L 14.40625 44 
Q 17.4375 49.515625 20 51.265625 
Q 22.5625 53.03125 25.640625 53.03125 
Q 30.078125 53.03125 34.671875 50.203125 
L 31.640625 42.046875 
Q 28.421875 43.953125 25.203125 43.953125 
Q 22.3125 43.953125 20.015625 42.21875 
Q 17.71875 40.484375 16.75 37.40625 
Q 15.28125 32.71875 15.28125 27.15625 
L 15.28125 0 
z
" id="ArialMT-114"/>
      <path d="M 6.640625 61.46875 
L 6.640625 71.578125 
L 15.4375 71.578125 
L 15.4375 61.46875 
z
M 6.640625 0 
L 6.640625 51.859375 
L 15.4375 51.859375 
L 15.4375 0 
z
" id="ArialMT-105"/>
      <path d="M 40.4375 19 
L 49.078125 17.875 
Q 47.65625 8.9375 41.8125 3.875 
Q 35.984375 -1.171875 27.484375 -1.171875 
Q 16.84375 -1.171875 10.375 5.78125 
Q 3.90625 12.75 3.90625 25.734375 
Q 3.90625 34.125 6.6875 40.421875 
Q 9.46875 46.734375 15.15625 49.875 
Q 20.84375 53.03125 27.546875 53.03125 
Q 35.984375 53.03125 41.359375 48.75 
Q 46.734375 44.484375 48.25 36.625 
L 39.703125 35.296875 
Q 38.484375 40.53125 35.375 43.15625 
Q 32.28125 45.796875 27.875 45.796875 
Q 21.234375 45.796875 17.078125 41.03125 
Q 12.9375 36.28125 12.9375 25.984375 
Q 12.9375 15.53125 16.9375 10.796875 
Q 20.953125 6.0625 27.390625 6.0625 
Q 32.5625 6.0625 36.03125 9.234375 
Q 39.5 12.40625 40.4375 19 
z
" id="ArialMT-99"/>
     </defs>
     <g style="fill:#262626;" transform="translate(194.126563 249.874687)scale(0.12 -0.12)">
      <use xlink:href="#ArialMT-83"/>
      <use x="66.699219" xlink:href="#ArialMT-97"/>
      <use x="122.314453" xlink:href="#ArialMT-108"/>
      <use x="144.53125" xlink:href="#ArialMT-101"/>
      <use x="200.146484" xlink:href="#ArialMT-80"/>
      <use x="266.845703" xlink:href="#ArialMT-114"/>
      <use x="300.146484" xlink:href="#ArialMT-105"/>
      <use x="322.363281" xlink:href="#ArialMT-99"/>
      <use x="372.363281" xlink:href="#ArialMT-101"/>
     </g>
    </g>
   </g>
   <g id="matplotlib.axis_2">
    <g id="ytick_1">
     <g id="line2d_9"/>
     <g id="text_10">
      <!-- 0.000000 -->
      <defs>
       <path d="M 9.078125 0 
L 9.078125 10.015625 
L 19.09375 10.015625 
L 19.09375 0 
z
" id="ArialMT-46"/>
      </defs>
      <g style="fill:#262626;" transform="translate(7.2 228.218906)scale(0.1 -0.1)">
       <use xlink:href="#ArialMT-48"/>
       <use x="55.615234" xlink:href="#ArialMT-46"/>
       <use x="83.398438" xlink:href="#ArialMT-48"/>
       <use x="139.013672" xlink:href="#ArialMT-48"/>
       <use x="194.628906" xlink:href="#ArialMT-48"/>
       <use x="250.244141" xlink:href="#ArialMT-48"/>
       <use x="305.859375" xlink:href="#ArialMT-48"/>
       <use x="361.474609" xlink:href="#ArialMT-48"/>
      </g>
     </g>
    </g>
    <g id="ytick_2">
     <g id="line2d_10"/>
     <g id="text_11">
      <!-- 0.000002 -->
      <g style="fill:#262626;" transform="translate(7.2 203.877473)scale(0.1 -0.1)">
       <use xlink:href="#ArialMT-48"/>
       <use x="55.615234" xlink:href="#ArialMT-46"/>
       <use x="83.398438" xlink:href="#ArialMT-48"/>
       <use x="139.013672" xlink:href="#ArialMT-48"/>
       <use x="194.628906" xlink:href="#ArialMT-48"/>
       <use x="250.244141" xlink:href="#ArialMT-48"/>
       <use x="305.859375" xlink:href="#ArialMT-48"/>
       <use x="361.474609" xlink:href="#ArialMT-50"/>
      </g>
     </g>
    </g>
    <g id="ytick_3">
     <g id="line2d_11"/>
     <g id="text_12">
      <!-- 0.000004 -->
      <g style="fill:#262626;" transform="translate(7.2 179.536039)scale(0.1 -0.1)">
       <use xlink:href="#ArialMT-48"/>
       <use x="55.615234" xlink:href="#ArialMT-46"/>
       <use x="83.398438" xlink:href="#ArialMT-48"/>
       <use x="139.013672" xlink:href="#ArialMT-48"/>
       <use x="194.628906" xlink:href="#ArialMT-48"/>
       <use x="250.244141" xlink:href="#ArialMT-48"/>
       <use x="305.859375" xlink:href="#ArialMT-48"/>
       <use x="361.474609" xlink:href="#ArialMT-52"/>
      </g>
     </g>
    </g>
    <g id="ytick_4">
     <g id="line2d_12"/>
     <g id="text_13">
      <!-- 0.000006 -->
      <g style="fill:#262626;" transform="translate(7.2 155.194606)scale(0.1 -0.1)">
       <use xlink:href="#ArialMT-48"/>
       <use x="55.615234" xlink:href="#ArialMT-46"/>
       <use x="83.398438" xlink:href="#ArialMT-48"/>
       <use x="139.013672" xlink:href="#ArialMT-48"/>
       <use x="194.628906" xlink:href="#ArialMT-48"/>
       <use x="250.244141" xlink:href="#ArialMT-48"/>
       <use x="305.859375" xlink:href="#ArialMT-48"/>
       <use x="361.474609" xlink:href="#ArialMT-54"/>
      </g>
     </g>
    </g>
    <g id="ytick_5">
     <g id="line2d_13"/>
     <g id="text_14">
      <!-- 0.000008 -->
      <defs>
       <path d="M 17.671875 38.8125 
Q 12.203125 40.828125 9.5625 44.53125 
Q 6.9375 48.25 6.9375 53.421875 
Q 6.9375 61.234375 12.546875 66.546875 
Q 18.171875 71.875 27.484375 71.875 
Q 36.859375 71.875 42.578125 66.421875 
Q 48.296875 60.984375 48.296875 53.171875 
Q 48.296875 48.1875 45.671875 44.5 
Q 43.0625 40.828125 37.75 38.8125 
Q 44.34375 36.671875 47.78125 31.875 
Q 51.21875 27.09375 51.21875 20.453125 
Q 51.21875 11.28125 44.71875 5.03125 
Q 38.234375 -1.21875 27.640625 -1.21875 
Q 17.046875 -1.21875 10.546875 5.046875 
Q 4.046875 11.328125 4.046875 20.703125 
Q 4.046875 27.6875 7.59375 32.390625 
Q 11.140625 37.109375 17.671875 38.8125 
z
M 15.921875 53.71875 
Q 15.921875 48.640625 19.1875 45.40625 
Q 22.46875 42.1875 27.6875 42.1875 
Q 32.765625 42.1875 36.015625 45.375 
Q 39.265625 48.578125 39.265625 53.21875 
Q 39.265625 58.0625 35.90625 61.359375 
Q 32.5625 64.65625 27.59375 64.65625 
Q 22.5625 64.65625 19.234375 61.421875 
Q 15.921875 58.203125 15.921875 53.71875 
z
M 13.09375 20.65625 
Q 13.09375 16.890625 14.875 13.375 
Q 16.65625 9.859375 20.171875 7.921875 
Q 23.6875 6 27.734375 6 
Q 34.03125 6 38.125 10.046875 
Q 42.234375 14.109375 42.234375 20.359375 
Q 42.234375 26.703125 38.015625 30.859375 
Q 33.796875 35.015625 27.4375 35.015625 
Q 21.234375 35.015625 17.15625 30.90625 
Q 13.09375 26.8125 13.09375 20.65625 
z
" id="ArialMT-56"/>
      </defs>
      <g style="fill:#262626;" transform="translate(7.2 130.853172)scale(0.1 -0.1)">
       <use xlink:href="#ArialMT-48"/>
       <use x="55.615234" xlink:href="#ArialMT-46"/>
       <use x="83.398438" xlink:href="#ArialMT-48"/>
       <use x="139.013672" xlink:href="#ArialMT-48"/>
       <use x="194.628906" xlink:href="#ArialMT-48"/>
       <use x="250.244141" xlink:href="#ArialMT-48"/>
       <use x="305.859375" xlink:href="#ArialMT-48"/>
       <use x="361.474609" xlink:href="#ArialMT-56"/>
      </g>
     </g>
    </g>
    <g id="ytick_6">
     <g id="line2d_14"/>
     <g id="text_15">
      <!-- 0.000010 -->
      <g style="fill:#262626;" transform="translate(7.2 106.511739)scale(0.1 -0.1)">
       <use xlink:href="#ArialMT-48"/>
       <use x="55.615234" xlink:href="#ArialMT-46"/>
       <use x="83.398438" xlink:href="#ArialMT-48"/>
       <use x="139.013672" xlink:href="#ArialMT-48"/>
       <use x="194.628906" xlink:href="#ArialMT-48"/>
       <use x="250.244141" xlink:href="#ArialMT-48"/>
       <use x="305.859375" xlink:href="#ArialMT-49"/>
       <use x="361.474609" xlink:href="#ArialMT-48"/>
      </g>
     </g>
    </g>
    <g id="ytick_7">
     <g id="line2d_15"/>
     <g id="text_16">
      <!-- 0.000012 -->
      <g style="fill:#262626;" transform="translate(7.2 82.170305)scale(0.1 -0.1)">
       <use xlink:href="#ArialMT-48"/>
       <use x="55.615234" xlink:href="#ArialMT-46"/>
       <use x="83.398438" xlink:href="#ArialMT-48"/>
       <use x="139.013672" xlink:href="#ArialMT-48"/>
       <use x="194.628906" xlink:href="#ArialMT-48"/>
       <use x="250.244141" xlink:href="#ArialMT-48"/>
       <use x="305.859375" xlink:href="#ArialMT-49"/>
       <use x="361.474609" xlink:href="#ArialMT-50"/>
      </g>
     </g>
    </g>
    <g id="ytick_8">
     <g id="line2d_16"/>
     <g id="text_17">
      <!-- 0.000014 -->
      <g style="fill:#262626;" transform="translate(7.2 57.828872)scale(0.1 -0.1)">
       <use xlink:href="#ArialMT-48"/>
       <use x="55.615234" xlink:href="#ArialMT-46"/>
       <use x="83.398438" xlink:href="#ArialMT-48"/>
       <use x="139.013672" xlink:href="#ArialMT-48"/>
       <use x="194.628906" xlink:href="#ArialMT-48"/>
       <use x="250.244141" xlink:href="#ArialMT-48"/>
       <use x="305.859375" xlink:href="#ArialMT-49"/>
       <use x="361.474609" xlink:href="#ArialMT-52"/>
      </g>
     </g>
    </g>
    <g id="ytick_9">
     <g id="line2d_17"/>
     <g id="text_18">
      <!-- 0.000016 -->
      <g style="fill:#262626;" transform="translate(7.2 33.487438)scale(0.1 -0.1)">
       <use xlink:href="#ArialMT-48"/>
       <use x="55.615234" xlink:href="#ArialMT-46"/>
       <use x="83.398438" xlink:href="#ArialMT-48"/>
       <use x="139.013672" xlink:href="#ArialMT-48"/>
       <use x="194.628906" xlink:href="#ArialMT-48"/>
       <use x="250.244141" xlink:href="#ArialMT-48"/>
       <use x="305.859375" xlink:href="#ArialMT-49"/>
       <use x="361.474609" xlink:href="#ArialMT-54"/>
      </g>
     </g>
    </g>
   </g>
   <g id="patch_3">
    <path clip-path="url(#p4abeadb72f)" d="M 126.41466 224.64 
L 136.764703 224.64 
L 136.764703 213.307108 
L 126.41466 213.307108 
z
" style="fill:#e24a33;opacity:0.4;"/>
   </g>
   <g id="patch_4">
    <path clip-path="url(#p4abeadb72f)" d="M 136.764703 224.64 
L 147.114745 224.64 
L 147.114745 163.442382 
L 136.764703 163.442382 
z
" style="fill:#e24a33;opacity:0.4;"/>
   </g>
   <g id="patch_5">
    <path clip-path="url(#p4abeadb72f)" d="M 147.114745 224.64 
L 157.464788 224.64 
L 157.464788 148.709622 
L 147.114745 148.709622 
z
" style="fill:#e24a33;opacity:0.4;"/>
   </g>
   <g id="patch_6">
    <path clip-path="url(#p4abeadb72f)" d="M 157.464788 224.64 
L 167.814831 224.64 
L 167.814831 135.110151 
L 157.464788 135.110151 
z
" style="fill:#e24a33;opacity:0.4;"/>
   </g>
   <g id="patch_7">
    <path clip-path="url(#p4abeadb72f)" d="M 167.814831 224.64 
L 178.164874 224.64 
L 178.164874 157.775936 
L 167.814831 157.775936 
z
" style="fill:#e24a33;opacity:0.4;"/>
   </g>
   <g id="patch_8">
    <path clip-path="url(#p4abeadb72f)" d="M 178.164874 224.64 
L 188.514916 224.64 
L 188.514916 163.442382 
L 178.164874 163.442382 
z
" style="fill:#e24a33;opacity:0.4;"/>
   </g>
   <g id="patch_9">
    <path clip-path="url(#p4abeadb72f)" d="M 188.514916 224.64 
L 198.864959 224.64 
L 198.864959 189.508034 
L 188.514916 189.508034 
z
" style="fill:#e24a33;opacity:0.4;"/>
   </g>
   <g id="patch_10">
    <path clip-path="url(#p4abeadb72f)" d="M 198.864959 224.64 
L 209.215002 224.64 
L 209.215002 187.241456 
L 198.864959 187.241456 
z
" style="fill:#e24a33;opacity:0.4;"/>
   </g>
   <g id="patch_11">
    <path clip-path="url(#p4abeadb72f)" d="M 209.215002 224.64 
L 219.565044 224.64 
L 219.565044 198.574348 
L 209.215002 198.574348 
z
" style="fill:#e24a33;opacity:0.4;"/>
   </g>
   <g id="patch_12">
    <path clip-path="url(#p4abeadb72f)" d="M 219.565044 224.64 
L 229.915087 224.64 
L 229.915087 213.307108 
L 219.565044 213.307108 
z
" style="fill:#e24a33;opacity:0.4;"/>
   </g>
   <g id="patch_13">
    <path clip-path="url(#p4abeadb72f)" d="M 229.915087 224.64 
L 240.26513 224.64 
L 240.26513 207.640662 
L 229.915087 207.640662 
z
" style="fill:#e24a33;opacity:0.4;"/>
   </g>
   <g id="patch_14">
    <path clip-path="url(#p4abeadb72f)" d="M 240.26513 224.64 
L 250.615173 224.64 
L 250.615173 213.307108 
L 240.26513 213.307108 
z
" style="fill:#e24a33;opacity:0.4;"/>
   </g>
   <g id="patch_15">
    <path clip-path="url(#p4abeadb72f)" d="M 250.615173 224.64 
L 260.965215 224.64 
L 260.965215 216.706975 
L 250.615173 216.706975 
z
" style="fill:#e24a33;opacity:0.4;"/>
   </g>
   <g id="patch_16">
    <path clip-path="url(#p4abeadb72f)" d="M 260.965215 224.64 
L 271.315258 224.64 
L 271.315258 222.373422 
L 260.965215 222.373422 
z
" style="fill:#e24a33;opacity:0.4;"/>
   </g>
   <g id="patch_17">
    <path clip-path="url(#p4abeadb72f)" d="M 271.315258 224.64 
L 281.665301 224.64 
L 281.665301 220.106843 
L 271.315258 220.106843 
z
" style="fill:#e24a33;opacity:0.4;"/>
   </g>
   <g id="patch_18">
    <path clip-path="url(#p4abeadb72f)" d="M 281.665301 224.64 
L 292.015344 224.64 
L 292.015344 223.506711 
L 281.665301 223.506711 
z
" style="fill:#e24a33;opacity:0.4;"/>
   </g>
   <g id="patch_19">
    <path clip-path="url(#p4abeadb72f)" d="M 292.015344 224.64 
L 302.365386 224.64 
L 302.365386 224.64 
L 292.015344 224.64 
z
" style="fill:#e24a33;opacity:0.4;"/>
   </g>
   <g id="patch_20">
    <path clip-path="url(#p4abeadb72f)" d="M 302.365386 224.64 
L 312.715429 224.64 
L 312.715429 222.373422 
L 302.365386 222.373422 
z
" style="fill:#e24a33;opacity:0.4;"/>
   </g>
   <g id="patch_21">
    <path clip-path="url(#p4abeadb72f)" d="M 312.715429 224.64 
L 323.065472 224.64 
L 323.065472 223.506711 
L 312.715429 223.506711 
z
" style="fill:#e24a33;opacity:0.4;"/>
   </g>
   <g id="patch_22">
    <path clip-path="url(#p4abeadb72f)" d="M 323.065472 224.64 
L 333.415514 224.64 
L 333.415514 223.506711 
L 323.065472 223.506711 
z
" style="fill:#e24a33;opacity:0.4;"/>
   </g>
   <g id="patch_23">
    <path clip-path="url(#p4abeadb72f)" d="M 333.415514 224.64 
L 343.765557 224.64 
L 343.765557 222.373422 
L 333.415514 222.373422 
z
" style="fill:#e24a33;opacity:0.4;"/>
   </g>
   <g id="patch_24">
    <path clip-path="url(#p4abeadb72f)" d="M 91.630898 224.64 
L 95.800755 224.64 
L 95.800755 222.52688 
L 91.630898 222.52688 
z
" style="fill:#348abd;opacity:0.4;"/>
   </g>
   <g id="patch_25">
    <path clip-path="url(#p4abeadb72f)" d="M 95.800755 224.64 
L 99.970612 224.64 
L 99.970612 220.413761 
L 95.800755 220.413761 
z
" style="fill:#348abd;opacity:0.4;"/>
   </g>
   <g id="patch_26">
    <path clip-path="url(#p4abeadb72f)" d="M 99.970612 224.64 
L 104.140468 224.64 
L 104.140468 222.52688 
L 99.970612 222.52688 
z
" style="fill:#348abd;opacity:0.4;"/>
   </g>
   <g id="patch_27">
    <path clip-path="url(#p4abeadb72f)" d="M 104.140468 224.64 
L 108.310325 224.64 
L 108.310325 209.848163 
L 104.140468 209.848163 
z
" style="fill:#348abd;opacity:0.4;"/>
   </g>
   <g id="patch_28">
    <path clip-path="url(#p4abeadb72f)" d="M 108.310325 224.64 
L 112.480182 224.64 
L 112.480182 203.508805 
L 108.310325 203.508805 
z
" style="fill:#348abd;opacity:0.4;"/>
   </g>
   <g id="patch_29">
    <path clip-path="url(#p4abeadb72f)" d="M 112.480182 224.64 
L 116.650039 224.64 
L 116.650039 182.377609 
L 112.480182 182.377609 
z
" style="fill:#348abd;opacity:0.4;"/>
   </g>
   <g id="patch_30">
    <path clip-path="url(#p4abeadb72f)" d="M 116.650039 224.64 
L 120.819895 224.64 
L 120.819895 138.002099 
L 116.650039 138.002099 
z
" style="fill:#348abd;opacity:0.4;"/>
   </g>
   <g id="patch_31">
    <path clip-path="url(#p4abeadb72f)" d="M 120.819895 224.64 
L 124.989752 224.64 
L 124.989752 89.40035 
L 120.819895 89.40035 
z
" style="fill:#348abd;opacity:0.4;"/>
   </g>
   <g id="patch_32">
    <path clip-path="url(#p4abeadb72f)" d="M 124.989752 224.64 
L 129.159609 224.64 
L 129.159609 17.554286 
L 124.989752 17.554286 
z
" style="fill:#348abd;opacity:0.4;"/>
   </g>
   <g id="patch_33">
    <path clip-path="url(#p4abeadb72f)" d="M 129.159609 224.64 
L 133.329466 224.64 
L 133.329466 87.28723 
L 129.159609 87.28723 
z
" style="fill:#348abd;opacity:0.4;"/>
   </g>
   <g id="patch_34">
    <path clip-path="url(#p4abeadb72f)" d="M 133.329466 224.64 
L 137.499323 224.64 
L 137.499323 102.079067 
L 133.329466 102.079067 
z
" style="fill:#348abd;opacity:0.4;"/>
   </g>
   <g id="patch_35">
    <path clip-path="url(#p4abeadb72f)" d="M 137.499323 224.64 
L 141.669179 224.64 
L 141.669179 89.40035 
L 137.499323 89.40035 
z
" style="fill:#348abd;opacity:0.4;"/>
   </g>
   <g id="patch_36">
    <path clip-path="url(#p4abeadb72f)" d="M 141.669179 224.64 
L 145.839036 224.64 
L 145.839036 99.965948 
L 141.669179 99.965948 
z
" style="fill:#348abd;opacity:0.4;"/>
   </g>
   <g id="patch_37">
    <path clip-path="url(#p4abeadb72f)" d="M 145.839036 224.64 
L 150.008893 224.64 
L 150.008893 146.454577 
L 145.839036 146.454577 
z
" style="fill:#348abd;opacity:0.4;"/>
   </g>
   <g id="patch_38">
    <path clip-path="url(#p4abeadb72f)" d="M 150.008893 224.64 
L 154.17875 224.64 
L 154.17875 163.359534 
L 150.008893 163.359534 
z
" style="fill:#348abd;opacity:0.4;"/>
   </g>
   <g id="patch_39">
    <path clip-path="url(#p4abeadb72f)" d="M 154.17875 224.64 
L 158.348607 224.64 
L 158.348607 186.603848 
L 154.17875 186.603848 
z
" style="fill:#348abd;opacity:0.4;"/>
   </g>
   <g id="patch_40">
    <path clip-path="url(#p4abeadb72f)" d="M 158.348607 224.64 
L 162.518463 224.64 
L 162.518463 199.282566 
L 158.348607 199.282566 
z
" style="fill:#348abd;opacity:0.4;"/>
   </g>
   <g id="patch_41">
    <path clip-path="url(#p4abeadb72f)" d="M 162.518463 224.64 
L 166.68832 224.64 
L 166.68832 209.848163 
L 162.518463 209.848163 
z
" style="fill:#348abd;opacity:0.4;"/>
   </g>
   <g id="patch_42">
    <path clip-path="url(#p4abeadb72f)" d="M 166.68832 224.64 
L 170.858177 224.64 
L 170.858177 211.961283 
L 166.68832 211.961283 
z
" style="fill:#348abd;opacity:0.4;"/>
   </g>
   <g id="patch_43">
    <path clip-path="url(#p4abeadb72f)" d="M 170.858177 224.64 
L 175.028034 224.64 
L 175.028034 211.961283 
L 170.858177 211.961283 
z
" style="fill:#348abd;opacity:0.4;"/>
   </g>
   <g id="patch_44">
    <path clip-path="url(#p4abeadb72f)" d="M 175.028034 224.64 
L 179.197891 224.64 
L 179.197891 209.848163 
L 175.028034 209.848163 
z
" style="fill:#348abd;opacity:0.4;"/>
   </g>
   <g id="patch_45">
    <path clip-path="url(#p4abeadb72f)" d="M 179.197891 224.64 
L 183.367747 224.64 
L 183.367747 216.187522 
L 179.197891 216.187522 
z
" style="fill:#348abd;opacity:0.4;"/>
   </g>
   <g id="patch_46">
    <path clip-path="url(#p4abeadb72f)" d="M 183.367747 224.64 
L 187.537604 224.64 
L 187.537604 220.413761 
L 183.367747 220.413761 
z
" style="fill:#348abd;opacity:0.4;"/>
   </g>
   <g id="patch_47">
    <path clip-path="url(#p4abeadb72f)" d="M 187.537604 224.64 
L 191.707461 224.64 
L 191.707461 224.64 
L 187.537604 224.64 
z
" style="fill:#348abd;opacity:0.4;"/>
   </g>
   <g id="patch_48">
    <path clip-path="url(#p4abeadb72f)" d="M 191.707461 224.64 
L 195.877318 224.64 
L 195.877318 222.52688 
L 191.707461 222.52688 
z
" style="fill:#348abd;opacity:0.4;"/>
   </g>
   <g id="patch_49">
    <path clip-path="url(#p4abeadb72f)" d="M 79.314496 224.64 
L 83.818366 224.64 
L 83.818366 208.362895 
L 79.314496 208.362895 
z
" style="fill:#988ed5;opacity:0.4;"/>
   </g>
   <g id="patch_50">
    <path clip-path="url(#p4abeadb72f)" d="M 83.818366 224.64 
L 88.322235 224.64 
L 88.322235 218.129158 
L 83.818366 218.129158 
z
" style="fill:#988ed5;opacity:0.4;"/>
   </g>
   <g id="patch_51">
    <path clip-path="url(#p4abeadb72f)" d="M 88.322235 224.64 
L 92.826104 224.64 
L 92.826104 195.341211 
L 88.322235 195.341211 
z
" style="fill:#988ed5;opacity:0.4;"/>
   </g>
   <g id="patch_52">
    <path clip-path="url(#p4abeadb72f)" d="M 92.826104 224.64 
L 97.329973 224.64 
L 97.329973 198.596632 
L 92.826104 198.596632 
z
" style="fill:#988ed5;opacity:0.4;"/>
   </g>
   <g id="patch_53">
    <path clip-path="url(#p4abeadb72f)" d="M 97.329973 224.64 
L 101.833842 224.64 
L 101.833842 117.211109 
L 97.329973 117.211109 
z
" style="fill:#988ed5;opacity:0.4;"/>
   </g>
   <g id="patch_54">
    <path clip-path="url(#p4abeadb72f)" d="M 101.833842 224.64 
L 106.337711 224.64 
L 106.337711 100.934004 
L 101.833842 100.934004 
z
" style="fill:#988ed5;opacity:0.4;"/>
   </g>
   <g id="patch_55">
    <path clip-path="url(#p4abeadb72f)" d="M 106.337711 224.64 
L 110.84158 224.64 
L 110.84158 126.977372 
L 106.337711 126.977372 
z
" style="fill:#988ed5;opacity:0.4;"/>
   </g>
   <g id="patch_56">
    <path clip-path="url(#p4abeadb72f)" d="M 110.84158 224.64 
L 115.345449 224.64 
L 115.345449 22.803901 
L 110.84158 22.803901 
z
" style="fill:#988ed5;opacity:0.4;"/>
   </g>
   <g id="patch_57">
    <path clip-path="url(#p4abeadb72f)" d="M 115.345449 224.64 
L 119.849318 224.64 
L 119.849318 52.10269 
L 115.345449 52.10269 
z
" style="fill:#988ed5;opacity:0.4;"/>
   </g>
   <g id="patch_58">
    <path clip-path="url(#p4abeadb72f)" d="M 119.849318 224.64 
L 124.353188 224.64 
L 124.353188 35.825585 
L 119.849318 35.825585 
z
" style="fill:#988ed5;opacity:0.4;"/>
   </g>
   <g id="patch_59">
    <path clip-path="url(#p4abeadb72f)" d="M 124.353188 224.64 
L 128.857057 224.64 
L 128.857057 117.211109 
L 124.353188 117.211109 
z
" style="fill:#988ed5;opacity:0.4;"/>
   </g>
   <g id="patch_60">
    <path clip-path="url(#p4abeadb72f)" d="M 128.857057 224.64 
L 133.360926 224.64 
L 133.360926 156.27616 
L 128.857057 156.27616 
z
" style="fill:#988ed5;opacity:0.4;"/>
   </g>
   <g id="patch_61">
    <path clip-path="url(#p4abeadb72f)" d="M 133.360926 224.64 
L 137.864795 224.64 
L 137.864795 192.085791 
L 133.360926 192.085791 
z
" style="fill:#988ed5;opacity:0.4;"/>
   </g>
   <g id="patch_62">
    <path clip-path="url(#p4abeadb72f)" d="M 137.864795 224.64 
L 142.368664 224.64 
L 142.368664 208.362895 
L 137.864795 208.362895 
z
" style="fill:#988ed5;opacity:0.4;"/>
   </g>
   <g id="patch_63">
    <path clip-path="url(#p4abeadb72f)" d="M 142.368664 224.64 
L 146.872533 224.64 
L 146.872533 218.129158 
L 142.368664 218.129158 
z
" style="fill:#988ed5;opacity:0.4;"/>
   </g>
   <g id="patch_64">
    <path clip-path="url(#p4abeadb72f)" d="M 146.872533 224.64 
L 151.376402 224.64 
L 151.376402 221.384579 
L 146.872533 221.384579 
z
" style="fill:#988ed5;opacity:0.4;"/>
   </g>
   <g id="patch_65">
    <path clip-path="url(#p4abeadb72f)" d="M 151.376402 224.64 
L 155.880271 224.64 
L 155.880271 224.64 
L 151.376402 224.64 
z
" style="fill:#988ed5;opacity:0.4;"/>
   </g>
   <g id="patch_66">
    <path clip-path="url(#p4abeadb72f)" d="M 155.880271 224.64 
L 160.38414 224.64 
L 160.38414 224.64 
L 155.880271 224.64 
z
" style="fill:#988ed5;opacity:0.4;"/>
   </g>
   <g id="patch_67">
    <path clip-path="url(#p4abeadb72f)" d="M 160.38414 224.64 
L 164.888009 224.64 
L 164.888009 221.384579 
L 160.38414 221.384579 
z
" style="fill:#988ed5;opacity:0.4;"/>
   </g>
   <g id="patch_68">
    <path clip-path="url(#p4abeadb72f)" d="M 164.888009 224.64 
L 169.391879 224.64 
L 169.391879 224.64 
L 164.888009 224.64 
z
" style="fill:#988ed5;opacity:0.4;"/>
   </g>
   <g id="patch_69">
    <path clip-path="url(#p4abeadb72f)" d="M 169.391879 224.64 
L 173.895748 224.64 
L 173.895748 224.64 
L 169.391879 224.64 
z
" style="fill:#988ed5;opacity:0.4;"/>
   </g>
   <g id="patch_70">
    <path clip-path="url(#p4abeadb72f)" d="M 173.895748 224.64 
L 178.399617 224.64 
L 178.399617 221.384579 
L 173.895748 221.384579 
z
" style="fill:#988ed5;opacity:0.4;"/>
   </g>
   <g id="line2d_18">
    <path clip-path="url(#p4abeadb72f)" d="M 98.193711 224.61906 
L 104.661258 224.505857 
L 108.972955 224.219994 
L 111.128804 223.936145 
L 113.284653 223.499846 
L 115.440502 222.850971 
L 117.59635 221.915172 
L 119.752199 220.604226 
L 121.908048 218.818658 
L 124.063897 216.453958 
L 126.219746 213.411668 
L 128.375594 209.615828 
L 130.531443 205.033527 
L 132.687292 199.695909 
L 134.843141 193.713791 
L 143.466536 168.064607 
L 145.622384 162.627047 
L 147.778233 158.002126 
L 149.934082 154.246627 
L 152.089931 151.32931 
L 154.24578 149.164434 
L 156.401628 147.654301 
L 158.557477 146.725663 
L 160.713326 146.347721 
L 162.869175 146.526957 
L 165.025023 147.28332 
L 167.180872 148.619368 
L 169.336721 150.496107 
L 171.49257 152.825744 
L 173.648419 155.484008 
L 180.115965 164.200406 
L 186.583511 172.793555 
L 190.895209 178.265166 
L 193.051057 180.809699 
L 195.206906 183.147094 
L 197.362755 185.241809 
L 199.518604 187.101975 
L 203.830301 190.382896 
L 208.141999 193.727158 
L 212.453696 197.609041 
L 216.765394 201.732996 
L 218.921243 203.637852 
L 221.077092 205.306222 
L 223.23294 206.679091 
L 225.388789 207.744334 
L 227.544638 208.536677 
L 231.856335 209.607801 
L 236.168033 210.580967 
L 240.479731 211.904527 
L 246.947277 214.420289 
L 251.258974 216.019663 
L 255.570672 217.353165 
L 259.882369 218.454192 
L 266.349916 219.84733 
L 272.817462 221.018153 
L 281.440857 222.302442 
L 287.908404 223.054843 
L 292.220101 223.375126 
L 296.531799 223.493252 
L 302.999345 223.333751 
L 311.62274 223.05506 
L 318.090286 223.160166 
L 328.86953 223.473844 
L 343.960472 223.675976 
L 363.363111 224.568877 
L 371.986506 224.625184 
L 371.986506 224.625184 
" style="fill:none;stroke:#e24a33;stroke-linecap:round;stroke-width:1.5;"/>
   </g>
   <g id="line2d_19">
    <path clip-path="url(#p4abeadb72f)" d="M 79.594105 224.625137 
L 83.63568 224.516601 
L 86.666861 224.215725 
L 91.71883 223.379047 
L 93.739617 222.944573 
L 95.760405 222.30539 
L 97.781192 221.398294 
L 99.80198 220.192112 
L 100.812374 219.416693 
L 101.822767 218.45373 
L 102.833161 217.230617 
L 103.843555 215.674894 
L 104.853949 213.7276 
L 105.864342 211.352488 
L 106.874736 208.538661 
L 107.88513 205.296312 
L 109.905917 197.606731 
L 111.926705 188.310722 
L 112.937099 182.935993 
L 113.947492 176.9301 
L 114.957886 170.151324 
L 115.96828 162.464689 
L 116.978674 153.777238 
L 118.999461 133.452079 
L 123.041036 88.477017 
L 124.05143 79.284621 
L 125.061824 72.067226 
L 126.072217 67.193174 
L 127.082611 64.773756 
L 128.093005 64.637279 
L 129.103399 66.368645 
L 130.113792 69.405174 
L 134.155367 84.360522 
L 135.165761 87.344691 
L 136.176155 89.880958 
L 138.196942 93.971677 
L 139.207336 95.881363 
L 140.21773 98.051274 
L 141.228124 100.788659 
L 142.238517 104.365204 
L 143.248911 108.946458 
L 144.259305 114.541324 
L 146.280092 128.012645 
L 149.311273 149.137028 
L 151.332061 161.051926 
L 153.352848 170.904853 
L 155.373636 179.336385 
L 157.394423 186.93867 
L 159.415211 193.944273 
L 161.435998 200.122902 
L 162.446392 202.727604 
L 163.456786 204.915118 
L 164.46718 206.648975 
L 165.477573 207.935619 
L 166.487967 208.82416 
L 167.498361 209.395475 
L 168.508755 209.745641 
L 173.560723 210.978369 
L 175.581511 212.031403 
L 177.602298 213.493555 
L 181.643873 216.994905 
L 184.675055 219.512172 
L 186.695842 220.988156 
L 188.71663 222.194217 
L 190.737417 223.01149 
L 192.758205 223.422177 
L 205.893323 224.599213 
L 207.914111 224.625146 
L 207.914111 224.625146 
" style="fill:none;stroke:#348abd;stroke-linecap:round;stroke-width:1.5;"/>
   </g>
   <g id="line2d_20">
    <path clip-path="url(#p4abeadb72f)" d="M 67.622869 224.586484 
L 69.551505 224.451978 
L 71.480141 224.03108 
L 72.444459 223.630737 
L 73.408777 223.058824 
L 74.373095 222.297313 
L 76.301731 220.270766 
L 79.194684 216.950105 
L 81.12332 215.278792 
L 83.051956 213.751352 
L 84.016274 212.760859 
L 84.980592 211.492747 
L 85.94491 209.922672 
L 87.873545 206.075639 
L 89.802181 201.735108 
L 90.766499 199.346579 
L 91.730817 196.594525 
L 92.695135 193.194635 
L 93.659453 188.82308 
L 94.623771 183.197132 
L 95.588089 176.166775 
L 96.552407 167.793692 
L 100.409678 130.050181 
L 101.373996 122.726704 
L 102.338314 117.1164 
L 103.302632 113.124714 
L 104.26695 110.315686 
L 106.195586 105.449623 
L 107.159904 101.963979 
L 108.124222 97.133396 
L 109.088539 90.871458 
L 111.017175 75.323801 
L 112.945811 59.663194 
L 113.910129 53.218533 
L 114.874447 48.155038 
L 115.838765 44.593091 
L 116.803083 42.547345 
L 117.767401 42.011596 
L 118.731719 43.019594 
L 119.696036 45.656037 
L 120.660354 50.016279 
L 121.624672 56.136601 
L 122.58899 63.929044 
L 124.517626 83.426296 
L 128.374898 126.578984 
L 130.303534 145.676665 
L 132.232169 162.468914 
L 134.160805 176.900757 
L 136.089441 188.6799 
L 137.053759 193.545415 
L 138.018077 197.787391 
L 138.982395 201.489914 
L 140.911031 207.641436 
L 142.839666 212.554587 
L 144.768302 216.424496 
L 145.73262 217.980722 
L 146.696938 219.299766 
L 147.661256 220.404704 
L 148.625574 221.323981 
L 150.55421 222.712968 
L 152.482845 223.625026 
L 154.411481 224.138244 
L 156.340117 224.302365 
L 158.268753 224.167191 
L 161.161707 223.599074 
L 163.090342 223.24595 
L 165.018978 223.162499 
L 166.947614 223.393143 
L 169.840568 223.908605 
L 171.769204 224.011756 
L 173.697839 223.815941 
L 177.555111 223.176413 
L 179.483747 223.202797 
L 181.412383 223.528976 
L 185.269654 224.318446 
L 188.162608 224.569365 
L 190.091244 224.602028 
L 190.091244 224.602028 
" style="fill:none;stroke:#988ed5;stroke-linecap:round;stroke-width:1.5;"/>
   </g>
   <g id="patch_71">
    <path d="M 52.404688 224.64 
L 52.404688 7.2 
" style="fill:none;stroke:#262626;stroke-linecap:square;stroke-linejoin:miter;stroke-width:1.25;"/>
   </g>
   <g id="patch_72">
    <path d="M 387.204688 224.64 
L 387.204688 7.2 
" style="fill:none;stroke:#262626;stroke-linecap:square;stroke-linejoin:miter;stroke-width:1.25;"/>
   </g>
   <g id="patch_73">
    <path d="M 52.404688 224.64 
L 387.204688 224.64 
" style="fill:none;stroke:#262626;stroke-linecap:square;stroke-linejoin:miter;stroke-width:1.25;"/>
   </g>
   <g id="patch_74">
    <path d="M 52.404688 7.2 
L 387.204688 7.2 
" style="fill:none;stroke:#262626;stroke-linecap:square;stroke-linejoin:miter;stroke-width:1.25;"/>
   </g>
  </g>
 </g>
 <defs>
  <clipPath id="p4abeadb72f">
   <rect height="217.44" width="334.8" x="52.404688" y="7.2"/>
  </clipPath>
 </defs>
</svg>
