<?xml version="1.0" encoding="utf-8" standalone="no"?>
<!DOCTYPE svg PUBLIC "-//W3C//DTD SVG 1.1//EN"
  "http://www.w3.org/Graphics/SVG/1.1/DTD/svg11.dtd">
<!-- Created with matplotlib (https://matplotlib.org/) -->
<svg height="262.19625pt" version="1.1" viewBox="0 0 372.103125 262.19625" width="372.103125pt" xmlns="http://www.w3.org/2000/svg" xmlns:xlink="http://www.w3.org/1999/xlink">
 <defs>
  <style type="text/css">
*{stroke-linecap:butt;stroke-linejoin:round;}
  </style>
 </defs>
 <g id="figure_1">
  <g id="patch_1">
   <path d="M 0 262.19625 
L 372.103125 262.19625 
L 372.103125 0 
L 0 0 
z
" style="fill:#ffffff;"/>
  </g>
  <g id="axes_1">
   <g id="patch_2">
    <path d="M 30.103125 224.64 
L 364.903125 224.64 
L 364.903125 7.2 
L 30.103125 7.2 
z
" style="fill:#ffffff;"/>
   </g>
   <g id="patch_3">
    <path clip-path="url(#pfce7a1427a)" d="M 69.825047 224.64 
L 77.563112 224.64 
L 77.563112 220.682948 
L 69.825047 220.682948 
z
" style="fill:#ff0000;opacity:0.4;"/>
   </g>
   <g id="patch_4">
    <path clip-path="url(#pfce7a1427a)" d="M 77.563112 224.64 
L 85.301178 224.64 
L 85.301178 222.001965 
L 77.563112 222.001965 
z
" style="fill:#ff0000;opacity:0.4;"/>
   </g>
   <g id="patch_5">
    <path clip-path="url(#pfce7a1427a)" d="M 85.301178 224.64 
L 93.039243 224.64 
L 93.039243 224.64 
L 85.301178 224.64 
z
" style="fill:#ff0000;opacity:0.4;"/>
   </g>
   <g id="patch_6">
    <path clip-path="url(#pfce7a1427a)" d="M 93.039243 224.64 
L 100.777308 224.64 
L 100.777308 224.64 
L 93.039243 224.64 
z
" style="fill:#ff0000;opacity:0.4;"/>
   </g>
   <g id="patch_7">
    <path clip-path="url(#pfce7a1427a)" d="M 100.777308 224.64 
L 108.515374 224.64 
L 108.515374 222.001965 
L 100.777308 222.001965 
z
" style="fill:#ff0000;opacity:0.4;"/>
   </g>
   <g id="patch_8">
    <path clip-path="url(#pfce7a1427a)" d="M 108.515374 224.64 
L 116.253439 224.64 
L 116.253439 219.363931 
L 108.515374 219.363931 
z
" style="fill:#ff0000;opacity:0.4;"/>
   </g>
   <g id="patch_9">
    <path clip-path="url(#pfce7a1427a)" d="M 116.253439 224.64 
L 123.991504 224.64 
L 123.991504 218.044914 
L 116.253439 218.044914 
z
" style="fill:#ff0000;opacity:0.4;"/>
   </g>
   <g id="patch_10">
    <path clip-path="url(#pfce7a1427a)" d="M 123.991504 224.64 
L 131.72957 224.64 
L 131.72957 216.725896 
L 123.991504 216.725896 
z
" style="fill:#ff0000;opacity:0.4;"/>
   </g>
   <g id="patch_11">
    <path clip-path="url(#pfce7a1427a)" d="M 131.72957 224.64 
L 139.467635 224.64 
L 139.467635 216.725896 
L 131.72957 216.725896 
z
" style="fill:#ff0000;opacity:0.4;"/>
   </g>
   <g id="patch_12">
    <path clip-path="url(#pfce7a1427a)" d="M 139.467635 224.64 
L 147.2057 224.64 
L 147.2057 192.983585 
L 139.467635 192.983585 
z
" style="fill:#ff0000;opacity:0.4;"/>
   </g>
   <g id="patch_13">
    <path clip-path="url(#pfce7a1427a)" d="M 147.2057 224.64 
L 154.943766 224.64 
L 154.943766 178.474395 
L 147.2057 178.474395 
z
" style="fill:#ff0000;opacity:0.4;"/>
   </g>
   <g id="patch_14">
    <path clip-path="url(#pfce7a1427a)" d="M 154.943766 224.64 
L 162.681831 224.64 
L 162.681831 190.345551 
L 154.943766 190.345551 
z
" style="fill:#ff0000;opacity:0.4;"/>
   </g>
   <g id="patch_15">
    <path clip-path="url(#pfce7a1427a)" d="M 162.681831 224.64 
L 170.419896 224.64 
L 170.419896 157.370118 
L 162.681831 157.370118 
z
" style="fill:#ff0000;opacity:0.4;"/>
   </g>
   <g id="patch_16">
    <path clip-path="url(#pfce7a1427a)" d="M 170.419896 224.64 
L 178.157962 224.64 
L 178.157962 117.7996 
L 170.419896 117.7996 
z
" style="fill:#ff0000;opacity:0.4;"/>
   </g>
   <g id="patch_17">
    <path clip-path="url(#pfce7a1427a)" d="M 178.157962 224.64 
L 185.896027 224.64 
L 185.896027 71.633995 
L 178.157962 71.633995 
z
" style="fill:#ff0000;opacity:0.4;"/>
   </g>
   <g id="patch_18">
    <path clip-path="url(#pfce7a1427a)" d="M 185.896027 224.64 
L 193.634092 224.64 
L 193.634092 17.554286 
L 185.896027 17.554286 
z
" style="fill:#ff0000;opacity:0.4;"/>
   </g>
   <g id="patch_19">
    <path clip-path="url(#pfce7a1427a)" d="M 193.634092 224.64 
L 201.372158 224.64 
L 201.372158 50.529718 
L 193.634092 50.529718 
z
" style="fill:#ff0000;opacity:0.4;"/>
   </g>
   <g id="patch_20">
    <path clip-path="url(#pfce7a1427a)" d="M 201.372158 224.64 
L 209.110223 224.64 
L 209.110223 62.400874 
L 201.372158 62.400874 
z
" style="fill:#ff0000;opacity:0.4;"/>
   </g>
   <g id="patch_21">
    <path clip-path="url(#pfce7a1427a)" d="M 209.110223 224.64 
L 216.848288 224.64 
L 216.848288 38.658562 
L 209.110223 38.658562 
z
" style="fill:#ff0000;opacity:0.4;"/>
   </g>
   <g id="patch_22">
    <path clip-path="url(#pfce7a1427a)" d="M 216.848288 224.64 
L 224.586354 224.64 
L 224.586354 65.038908 
L 216.848288 65.038908 
z
" style="fill:#ff0000;opacity:0.4;"/>
   </g>
   <g id="patch_23">
    <path clip-path="url(#pfce7a1427a)" d="M 224.586354 224.64 
L 232.324419 224.64 
L 232.324419 120.437634 
L 224.586354 120.437634 
z
" style="fill:#ff0000;opacity:0.4;"/>
   </g>
   <g id="patch_24">
    <path clip-path="url(#pfce7a1427a)" d="M 232.324419 224.64 
L 240.062484 224.64 
L 240.062484 115.161565 
L 232.324419 115.161565 
z
" style="fill:#ff0000;opacity:0.4;"/>
   </g>
   <g id="patch_25">
    <path clip-path="url(#pfce7a1427a)" d="M 240.062484 224.64 
L 247.80055 224.64 
L 247.80055 130.989773 
L 240.062484 130.989773 
z
" style="fill:#ff0000;opacity:0.4;"/>
   </g>
   <g id="patch_26">
    <path clip-path="url(#pfce7a1427a)" d="M 247.80055 224.64 
L 255.538615 224.64 
L 255.538615 150.775032 
L 247.80055 150.775032 
z
" style="fill:#ff0000;opacity:0.4;"/>
   </g>
   <g id="patch_27">
    <path clip-path="url(#pfce7a1427a)" d="M 255.538615 224.64 
L 263.27668 224.64 
L 263.27668 183.750464 
L 255.538615 183.750464 
z
" style="fill:#ff0000;opacity:0.4;"/>
   </g>
   <g id="patch_28">
    <path clip-path="url(#pfce7a1427a)" d="M 263.27668 224.64 
L 271.014746 224.64 
L 271.014746 173.198326 
L 263.27668 173.198326 
z
" style="fill:#ff0000;opacity:0.4;"/>
   </g>
   <g id="patch_29">
    <path clip-path="url(#pfce7a1427a)" d="M 271.014746 224.64 
L 278.752811 224.64 
L 278.752811 204.854741 
L 271.014746 204.854741 
z
" style="fill:#ff0000;opacity:0.4;"/>
   </g>
   <g id="patch_30">
    <path clip-path="url(#pfce7a1427a)" d="M 278.752811 224.64 
L 286.490876 224.64 
L 286.490876 192.983585 
L 278.752811 192.983585 
z
" style="fill:#ff0000;opacity:0.4;"/>
   </g>
   <g id="patch_31">
    <path clip-path="url(#pfce7a1427a)" d="M 286.490876 224.64 
L 294.228942 224.64 
L 294.228942 211.449827 
L 286.490876 211.449827 
z
" style="fill:#ff0000;opacity:0.4;"/>
   </g>
   <g id="patch_32">
    <path clip-path="url(#pfce7a1427a)" d="M 294.228942 224.64 
L 301.967007 224.64 
L 301.967007 218.044914 
L 294.228942 218.044914 
z
" style="fill:#ff0000;opacity:0.4;"/>
   </g>
   <g id="patch_33">
    <path clip-path="url(#pfce7a1427a)" d="M 301.967007 224.64 
L 309.705072 224.64 
L 309.705072 222.001965 
L 301.967007 222.001965 
z
" style="fill:#ff0000;opacity:0.4;"/>
   </g>
   <g id="patch_34">
    <path clip-path="url(#pfce7a1427a)" d="M 309.705072 224.64 
L 317.443138 224.64 
L 317.443138 220.682948 
L 309.705072 220.682948 
z
" style="fill:#ff0000;opacity:0.4;"/>
   </g>
   <g id="patch_35">
    <path clip-path="url(#pfce7a1427a)" d="M 317.443138 224.64 
L 325.181203 224.64 
L 325.181203 220.682948 
L 317.443138 220.682948 
z
" style="fill:#ff0000;opacity:0.4;"/>
   </g>
   <g id="matplotlib.axis_1">
    <g id="xtick_1">
     <g id="line2d_1">
      <defs>
       <path d="M 0 0 
L 0 3.5 
" id="me6a315f2f9" style="stroke:#000000;stroke-width:0.8;"/>
      </defs>
      <g>
       <use style="stroke:#000000;stroke-width:0.8;" x="73.343761" xlink:href="#me6a315f2f9" y="224.64"/>
      </g>
     </g>
     <g id="text_1">
      <!-- 10.5 -->
      <defs>
       <path d="M 12.40625 8.296875 
L 28.515625 8.296875 
L 28.515625 63.921875 
L 10.984375 60.40625 
L 10.984375 69.390625 
L 28.421875 72.90625 
L 38.28125 72.90625 
L 38.28125 8.296875 
L 54.390625 8.296875 
L 54.390625 0 
L 12.40625 0 
z
" id="DejaVuSans-49"/>
       <path d="M 31.78125 66.40625 
Q 24.171875 66.40625 20.328125 58.90625 
Q 16.5 51.421875 16.5 36.375 
Q 16.5 21.390625 20.328125 13.890625 
Q 24.171875 6.390625 31.78125 6.390625 
Q 39.453125 6.390625 43.28125 13.890625 
Q 47.125 21.390625 47.125 36.375 
Q 47.125 51.421875 43.28125 58.90625 
Q 39.453125 66.40625 31.78125 66.40625 
z
M 31.78125 74.21875 
Q 44.046875 74.21875 50.515625 64.515625 
Q 56.984375 54.828125 56.984375 36.375 
Q 56.984375 17.96875 50.515625 8.265625 
Q 44.046875 -1.421875 31.78125 -1.421875 
Q 19.53125 -1.421875 13.0625 8.265625 
Q 6.59375 17.96875 6.59375 36.375 
Q 6.59375 54.828125 13.0625 64.515625 
Q 19.53125 74.21875 31.78125 74.21875 
z
" id="DejaVuSans-48"/>
       <path d="M 10.6875 12.40625 
L 21 12.40625 
L 21 0 
L 10.6875 0 
z
" id="DejaVuSans-46"/>
       <path d="M 10.796875 72.90625 
L 49.515625 72.90625 
L 49.515625 64.59375 
L 19.828125 64.59375 
L 19.828125 46.734375 
Q 21.96875 47.46875 24.109375 47.828125 
Q 26.265625 48.1875 28.421875 48.1875 
Q 40.625 48.1875 47.75 41.5 
Q 54.890625 34.8125 54.890625 23.390625 
Q 54.890625 11.625 47.5625 5.09375 
Q 40.234375 -1.421875 26.90625 -1.421875 
Q 22.3125 -1.421875 17.546875 -0.640625 
Q 12.796875 0.140625 7.71875 1.703125 
L 7.71875 11.625 
Q 12.109375 9.234375 16.796875 8.0625 
Q 21.484375 6.890625 26.703125 6.890625 
Q 35.15625 6.890625 40.078125 11.328125 
Q 45.015625 15.765625 45.015625 23.390625 
Q 45.015625 31 40.078125 35.4375 
Q 35.15625 39.890625 26.703125 39.890625 
Q 22.75 39.890625 18.8125 39.015625 
Q 14.890625 38.140625 10.796875 36.28125 
z
" id="DejaVuSans-53"/>
      </defs>
      <g transform="translate(62.210949 239.238437)scale(0.1 -0.1)">
       <use xlink:href="#DejaVuSans-49"/>
       <use x="63.623047" xlink:href="#DejaVuSans-48"/>
       <use x="127.246094" xlink:href="#DejaVuSans-46"/>
       <use x="159.033203" xlink:href="#DejaVuSans-53"/>
      </g>
     </g>
    </g>
    <g id="xtick_2">
     <g id="line2d_2">
      <g>
       <use style="stroke:#000000;stroke-width:0.8;" x="117.595532" xlink:href="#me6a315f2f9" y="224.64"/>
      </g>
     </g>
     <g id="text_2">
      <!-- 11.0 -->
      <g transform="translate(106.46272 239.238437)scale(0.1 -0.1)">
       <use xlink:href="#DejaVuSans-49"/>
       <use x="63.623047" xlink:href="#DejaVuSans-49"/>
       <use x="127.246094" xlink:href="#DejaVuSans-46"/>
       <use x="159.033203" xlink:href="#DejaVuSans-48"/>
      </g>
     </g>
    </g>
    <g id="xtick_3">
     <g id="line2d_3">
      <g>
       <use style="stroke:#000000;stroke-width:0.8;" x="161.847303" xlink:href="#me6a315f2f9" y="224.64"/>
      </g>
     </g>
     <g id="text_3">
      <!-- 11.5 -->
      <g transform="translate(150.714491 239.238437)scale(0.1 -0.1)">
       <use xlink:href="#DejaVuSans-49"/>
       <use x="63.623047" xlink:href="#DejaVuSans-49"/>
       <use x="127.246094" xlink:href="#DejaVuSans-46"/>
       <use x="159.033203" xlink:href="#DejaVuSans-53"/>
      </g>
     </g>
    </g>
    <g id="xtick_4">
     <g id="line2d_4">
      <g>
       <use style="stroke:#000000;stroke-width:0.8;" x="206.099074" xlink:href="#me6a315f2f9" y="224.64"/>
      </g>
     </g>
     <g id="text_4">
      <!-- 12.0 -->
      <defs>
       <path d="M 19.1875 8.296875 
L 53.609375 8.296875 
L 53.609375 0 
L 7.328125 0 
L 7.328125 8.296875 
Q 12.9375 14.109375 22.625 23.890625 
Q 32.328125 33.6875 34.8125 36.53125 
Q 39.546875 41.84375 41.421875 45.53125 
Q 43.3125 49.21875 43.3125 52.78125 
Q 43.3125 58.59375 39.234375 62.25 
Q 35.15625 65.921875 28.609375 65.921875 
Q 23.96875 65.921875 18.8125 64.3125 
Q 13.671875 62.703125 7.8125 59.421875 
L 7.8125 69.390625 
Q 13.765625 71.78125 18.9375 73 
Q 24.125 74.21875 28.421875 74.21875 
Q 39.75 74.21875 46.484375 68.546875 
Q 53.21875 62.890625 53.21875 53.421875 
Q 53.21875 48.921875 51.53125 44.890625 
Q 49.859375 40.875 45.40625 35.40625 
Q 44.1875 33.984375 37.640625 27.21875 
Q 31.109375 20.453125 19.1875 8.296875 
z
" id="DejaVuSans-50"/>
      </defs>
      <g transform="translate(194.966262 239.238437)scale(0.1 -0.1)">
       <use xlink:href="#DejaVuSans-49"/>
       <use x="63.623047" xlink:href="#DejaVuSans-50"/>
       <use x="127.246094" xlink:href="#DejaVuSans-46"/>
       <use x="159.033203" xlink:href="#DejaVuSans-48"/>
      </g>
     </g>
    </g>
    <g id="xtick_5">
     <g id="line2d_5">
      <g>
       <use style="stroke:#000000;stroke-width:0.8;" x="250.350845" xlink:href="#me6a315f2f9" y="224.64"/>
      </g>
     </g>
     <g id="text_5">
      <!-- 12.5 -->
      <g transform="translate(239.218033 239.238437)scale(0.1 -0.1)">
       <use xlink:href="#DejaVuSans-49"/>
       <use x="63.623047" xlink:href="#DejaVuSans-50"/>
       <use x="127.246094" xlink:href="#DejaVuSans-46"/>
       <use x="159.033203" xlink:href="#DejaVuSans-53"/>
      </g>
     </g>
    </g>
    <g id="xtick_6">
     <g id="line2d_6">
      <g>
       <use style="stroke:#000000;stroke-width:0.8;" x="294.602616" xlink:href="#me6a315f2f9" y="224.64"/>
      </g>
     </g>
     <g id="text_6">
      <!-- 13.0 -->
      <defs>
       <path d="M 40.578125 39.3125 
Q 47.65625 37.796875 51.625 33 
Q 55.609375 28.21875 55.609375 21.1875 
Q 55.609375 10.40625 48.1875 4.484375 
Q 40.765625 -1.421875 27.09375 -1.421875 
Q 22.515625 -1.421875 17.65625 -0.515625 
Q 12.796875 0.390625 7.625 2.203125 
L 7.625 11.71875 
Q 11.71875 9.328125 16.59375 8.109375 
Q 21.484375 6.890625 26.8125 6.890625 
Q 36.078125 6.890625 40.9375 10.546875 
Q 45.796875 14.203125 45.796875 21.1875 
Q 45.796875 27.640625 41.28125 31.265625 
Q 36.765625 34.90625 28.71875 34.90625 
L 20.21875 34.90625 
L 20.21875 43.015625 
L 29.109375 43.015625 
Q 36.375 43.015625 40.234375 45.921875 
Q 44.09375 48.828125 44.09375 54.296875 
Q 44.09375 59.90625 40.109375 62.90625 
Q 36.140625 65.921875 28.71875 65.921875 
Q 24.65625 65.921875 20.015625 65.03125 
Q 15.375 64.15625 9.8125 62.3125 
L 9.8125 71.09375 
Q 15.4375 72.65625 20.34375 73.4375 
Q 25.25 74.21875 29.59375 74.21875 
Q 40.828125 74.21875 47.359375 69.109375 
Q 53.90625 64.015625 53.90625 55.328125 
Q 53.90625 49.265625 50.4375 45.09375 
Q 46.96875 40.921875 40.578125 39.3125 
z
" id="DejaVuSans-51"/>
      </defs>
      <g transform="translate(283.469804 239.238437)scale(0.1 -0.1)">
       <use xlink:href="#DejaVuSans-49"/>
       <use x="63.623047" xlink:href="#DejaVuSans-51"/>
       <use x="127.246094" xlink:href="#DejaVuSans-46"/>
       <use x="159.033203" xlink:href="#DejaVuSans-48"/>
      </g>
     </g>
    </g>
    <g id="xtick_7">
     <g id="line2d_7">
      <g>
       <use style="stroke:#000000;stroke-width:0.8;" x="338.854387" xlink:href="#me6a315f2f9" y="224.64"/>
      </g>
     </g>
     <g id="text_7">
      <!-- 13.5 -->
      <g transform="translate(327.721575 239.238437)scale(0.1 -0.1)">
       <use xlink:href="#DejaVuSans-49"/>
       <use x="63.623047" xlink:href="#DejaVuSans-51"/>
       <use x="127.246094" xlink:href="#DejaVuSans-46"/>
       <use x="159.033203" xlink:href="#DejaVuSans-53"/>
      </g>
     </g>
    </g>
    <g id="text_8">
     <!-- SalePrice -->
     <defs>
      <path d="M 53.515625 70.515625 
L 53.515625 60.890625 
Q 47.90625 63.578125 42.921875 64.890625 
Q 37.9375 66.21875 33.296875 66.21875 
Q 25.25 66.21875 20.875 63.09375 
Q 16.5 59.96875 16.5 54.203125 
Q 16.5 49.359375 19.40625 46.890625 
Q 22.3125 44.4375 30.421875 42.921875 
L 36.375 41.703125 
Q 47.40625 39.59375 52.65625 34.296875 
Q 57.90625 29 57.90625 20.125 
Q 57.90625 9.515625 50.796875 4.046875 
Q 43.703125 -1.421875 29.984375 -1.421875 
Q 24.8125 -1.421875 18.96875 -0.25 
Q 13.140625 0.921875 6.890625 3.21875 
L 6.890625 13.375 
Q 12.890625 10.015625 18.65625 8.296875 
Q 24.421875 6.59375 29.984375 6.59375 
Q 38.421875 6.59375 43.015625 9.90625 
Q 47.609375 13.234375 47.609375 19.390625 
Q 47.609375 24.75 44.3125 27.78125 
Q 41.015625 30.8125 33.5 32.328125 
L 27.484375 33.5 
Q 16.453125 35.6875 11.515625 40.375 
Q 6.59375 45.0625 6.59375 53.421875 
Q 6.59375 63.09375 13.40625 68.65625 
Q 20.21875 74.21875 32.171875 74.21875 
Q 37.3125 74.21875 42.625 73.28125 
Q 47.953125 72.359375 53.515625 70.515625 
z
" id="DejaVuSans-83"/>
      <path d="M 34.28125 27.484375 
Q 23.390625 27.484375 19.1875 25 
Q 14.984375 22.515625 14.984375 16.5 
Q 14.984375 11.71875 18.140625 8.90625 
Q 21.296875 6.109375 26.703125 6.109375 
Q 34.1875 6.109375 38.703125 11.40625 
Q 43.21875 16.703125 43.21875 25.484375 
L 43.21875 27.484375 
z
M 52.203125 31.203125 
L 52.203125 0 
L 43.21875 0 
L 43.21875 8.296875 
Q 40.140625 3.328125 35.546875 0.953125 
Q 30.953125 -1.421875 24.3125 -1.421875 
Q 15.921875 -1.421875 10.953125 3.296875 
Q 6 8.015625 6 15.921875 
Q 6 25.140625 12.171875 29.828125 
Q 18.359375 34.515625 30.609375 34.515625 
L 43.21875 34.515625 
L 43.21875 35.40625 
Q 43.21875 41.609375 39.140625 45 
Q 35.0625 48.390625 27.6875 48.390625 
Q 23 48.390625 18.546875 47.265625 
Q 14.109375 46.140625 10.015625 43.890625 
L 10.015625 52.203125 
Q 14.9375 54.109375 19.578125 55.046875 
Q 24.21875 56 28.609375 56 
Q 40.484375 56 46.34375 49.84375 
Q 52.203125 43.703125 52.203125 31.203125 
z
" id="DejaVuSans-97"/>
      <path d="M 9.421875 75.984375 
L 18.40625 75.984375 
L 18.40625 0 
L 9.421875 0 
z
" id="DejaVuSans-108"/>
      <path d="M 56.203125 29.59375 
L 56.203125 25.203125 
L 14.890625 25.203125 
Q 15.484375 15.921875 20.484375 11.0625 
Q 25.484375 6.203125 34.421875 6.203125 
Q 39.59375 6.203125 44.453125 7.46875 
Q 49.3125 8.734375 54.109375 11.28125 
L 54.109375 2.78125 
Q 49.265625 0.734375 44.1875 -0.34375 
Q 39.109375 -1.421875 33.890625 -1.421875 
Q 20.796875 -1.421875 13.15625 6.1875 
Q 5.515625 13.8125 5.515625 26.8125 
Q 5.515625 40.234375 12.765625 48.109375 
Q 20.015625 56 32.328125 56 
Q 43.359375 56 49.78125 48.890625 
Q 56.203125 41.796875 56.203125 29.59375 
z
M 47.21875 32.234375 
Q 47.125 39.59375 43.09375 43.984375 
Q 39.0625 48.390625 32.421875 48.390625 
Q 24.90625 48.390625 20.390625 44.140625 
Q 15.875 39.890625 15.1875 32.171875 
z
" id="DejaVuSans-101"/>
      <path d="M 19.671875 64.796875 
L 19.671875 37.40625 
L 32.078125 37.40625 
Q 38.96875 37.40625 42.71875 40.96875 
Q 46.484375 44.53125 46.484375 51.125 
Q 46.484375 57.671875 42.71875 61.234375 
Q 38.96875 64.796875 32.078125 64.796875 
z
M 9.8125 72.90625 
L 32.078125 72.90625 
Q 44.34375 72.90625 50.609375 67.359375 
Q 56.890625 61.8125 56.890625 51.125 
Q 56.890625 40.328125 50.609375 34.8125 
Q 44.34375 29.296875 32.078125 29.296875 
L 19.671875 29.296875 
L 19.671875 0 
L 9.8125 0 
z
" id="DejaVuSans-80"/>
      <path d="M 41.109375 46.296875 
Q 39.59375 47.171875 37.8125 47.578125 
Q 36.03125 48 33.890625 48 
Q 26.265625 48 22.1875 43.046875 
Q 18.109375 38.09375 18.109375 28.8125 
L 18.109375 0 
L 9.078125 0 
L 9.078125 54.6875 
L 18.109375 54.6875 
L 18.109375 46.1875 
Q 20.953125 51.171875 25.484375 53.578125 
Q 30.03125 56 36.53125 56 
Q 37.453125 56 38.578125 55.875 
Q 39.703125 55.765625 41.0625 55.515625 
z
" id="DejaVuSans-114"/>
      <path d="M 9.421875 54.6875 
L 18.40625 54.6875 
L 18.40625 0 
L 9.421875 0 
z
M 9.421875 75.984375 
L 18.40625 75.984375 
L 18.40625 64.59375 
L 9.421875 64.59375 
z
" id="DejaVuSans-105"/>
      <path d="M 48.78125 52.59375 
L 48.78125 44.1875 
Q 44.96875 46.296875 41.140625 47.34375 
Q 37.3125 48.390625 33.40625 48.390625 
Q 24.65625 48.390625 19.8125 42.84375 
Q 14.984375 37.3125 14.984375 27.296875 
Q 14.984375 17.28125 19.8125 11.734375 
Q 24.65625 6.203125 33.40625 6.203125 
Q 37.3125 6.203125 41.140625 7.25 
Q 44.96875 8.296875 48.78125 10.40625 
L 48.78125 2.09375 
Q 45.015625 0.34375 40.984375 -0.53125 
Q 36.96875 -1.421875 32.421875 -1.421875 
Q 20.0625 -1.421875 12.78125 6.34375 
Q 5.515625 14.109375 5.515625 27.296875 
Q 5.515625 40.671875 12.859375 48.328125 
Q 20.21875 56 33.015625 56 
Q 37.15625 56 41.109375 55.140625 
Q 45.0625 54.296875 48.78125 52.59375 
z
" id="DejaVuSans-99"/>
     </defs>
     <g transform="translate(174.514844 252.916562)scale(0.1 -0.1)">
      <use xlink:href="#DejaVuSans-83"/>
      <use x="63.476562" xlink:href="#DejaVuSans-97"/>
      <use x="124.755859" xlink:href="#DejaVuSans-108"/>
      <use x="152.539062" xlink:href="#DejaVuSans-101"/>
      <use x="214.0625" xlink:href="#DejaVuSans-80"/>
      <use x="274.349609" xlink:href="#DejaVuSans-114"/>
      <use x="315.462891" xlink:href="#DejaVuSans-105"/>
      <use x="343.246094" xlink:href="#DejaVuSans-99"/>
      <use x="398.226562" xlink:href="#DejaVuSans-101"/>
     </g>
    </g>
   </g>
   <g id="matplotlib.axis_2">
    <g id="ytick_1">
     <g id="line2d_8">
      <defs>
       <path d="M 0 0 
L -3.5 0 
" id="md69cea6d70" style="stroke:#000000;stroke-width:0.8;"/>
      </defs>
      <g>
       <use style="stroke:#000000;stroke-width:0.8;" x="30.103125" xlink:href="#md69cea6d70" y="224.64"/>
      </g>
     </g>
     <g id="text_9">
      <!-- 0.0 -->
      <g transform="translate(7.2 228.439219)scale(0.1 -0.1)">
       <use xlink:href="#DejaVuSans-48"/>
       <use x="63.623047" xlink:href="#DejaVuSans-46"/>
       <use x="95.410156" xlink:href="#DejaVuSans-48"/>
      </g>
     </g>
    </g>
    <g id="ytick_2">
     <g id="line2d_9">
      <g>
       <use style="stroke:#000000;stroke-width:0.8;" x="30.103125" xlink:href="#md69cea6d70" y="191.057455"/>
      </g>
     </g>
     <g id="text_10">
      <!-- 0.2 -->
      <g transform="translate(7.2 194.856674)scale(0.1 -0.1)">
       <use xlink:href="#DejaVuSans-48"/>
       <use x="63.623047" xlink:href="#DejaVuSans-46"/>
       <use x="95.410156" xlink:href="#DejaVuSans-50"/>
      </g>
     </g>
    </g>
    <g id="ytick_3">
     <g id="line2d_10">
      <g>
       <use style="stroke:#000000;stroke-width:0.8;" x="30.103125" xlink:href="#md69cea6d70" y="157.474911"/>
      </g>
     </g>
     <g id="text_11">
      <!-- 0.4 -->
      <defs>
       <path d="M 37.796875 64.3125 
L 12.890625 25.390625 
L 37.796875 25.390625 
z
M 35.203125 72.90625 
L 47.609375 72.90625 
L 47.609375 25.390625 
L 58.015625 25.390625 
L 58.015625 17.1875 
L 47.609375 17.1875 
L 47.609375 0 
L 37.796875 0 
L 37.796875 17.1875 
L 4.890625 17.1875 
L 4.890625 26.703125 
z
" id="DejaVuSans-52"/>
      </defs>
      <g transform="translate(7.2 161.27413)scale(0.1 -0.1)">
       <use xlink:href="#DejaVuSans-48"/>
       <use x="63.623047" xlink:href="#DejaVuSans-46"/>
       <use x="95.410156" xlink:href="#DejaVuSans-52"/>
      </g>
     </g>
    </g>
    <g id="ytick_4">
     <g id="line2d_11">
      <g>
       <use style="stroke:#000000;stroke-width:0.8;" x="30.103125" xlink:href="#md69cea6d70" y="123.892366"/>
      </g>
     </g>
     <g id="text_12">
      <!-- 0.6 -->
      <defs>
       <path d="M 33.015625 40.375 
Q 26.375 40.375 22.484375 35.828125 
Q 18.609375 31.296875 18.609375 23.390625 
Q 18.609375 15.53125 22.484375 10.953125 
Q 26.375 6.390625 33.015625 6.390625 
Q 39.65625 6.390625 43.53125 10.953125 
Q 47.40625 15.53125 47.40625 23.390625 
Q 47.40625 31.296875 43.53125 35.828125 
Q 39.65625 40.375 33.015625 40.375 
z
M 52.59375 71.296875 
L 52.59375 62.3125 
Q 48.875 64.0625 45.09375 64.984375 
Q 41.3125 65.921875 37.59375 65.921875 
Q 27.828125 65.921875 22.671875 59.328125 
Q 17.53125 52.734375 16.796875 39.40625 
Q 19.671875 43.65625 24.015625 45.921875 
Q 28.375 48.1875 33.59375 48.1875 
Q 44.578125 48.1875 50.953125 41.515625 
Q 57.328125 34.859375 57.328125 23.390625 
Q 57.328125 12.15625 50.6875 5.359375 
Q 44.046875 -1.421875 33.015625 -1.421875 
Q 20.359375 -1.421875 13.671875 8.265625 
Q 6.984375 17.96875 6.984375 36.375 
Q 6.984375 53.65625 15.1875 63.9375 
Q 23.390625 74.21875 37.203125 74.21875 
Q 40.921875 74.21875 44.703125 73.484375 
Q 48.484375 72.75 52.59375 71.296875 
z
" id="DejaVuSans-54"/>
      </defs>
      <g transform="translate(7.2 127.691585)scale(0.1 -0.1)">
       <use xlink:href="#DejaVuSans-48"/>
       <use x="63.623047" xlink:href="#DejaVuSans-46"/>
       <use x="95.410156" xlink:href="#DejaVuSans-54"/>
      </g>
     </g>
    </g>
    <g id="ytick_5">
     <g id="line2d_12">
      <g>
       <use style="stroke:#000000;stroke-width:0.8;" x="30.103125" xlink:href="#md69cea6d70" y="90.309822"/>
      </g>
     </g>
     <g id="text_13">
      <!-- 0.8 -->
      <defs>
       <path d="M 31.78125 34.625 
Q 24.75 34.625 20.71875 30.859375 
Q 16.703125 27.09375 16.703125 20.515625 
Q 16.703125 13.921875 20.71875 10.15625 
Q 24.75 6.390625 31.78125 6.390625 
Q 38.8125 6.390625 42.859375 10.171875 
Q 46.921875 13.96875 46.921875 20.515625 
Q 46.921875 27.09375 42.890625 30.859375 
Q 38.875 34.625 31.78125 34.625 
z
M 21.921875 38.8125 
Q 15.578125 40.375 12.03125 44.71875 
Q 8.5 49.078125 8.5 55.328125 
Q 8.5 64.0625 14.71875 69.140625 
Q 20.953125 74.21875 31.78125 74.21875 
Q 42.671875 74.21875 48.875 69.140625 
Q 55.078125 64.0625 55.078125 55.328125 
Q 55.078125 49.078125 51.53125 44.71875 
Q 48 40.375 41.703125 38.8125 
Q 48.828125 37.15625 52.796875 32.3125 
Q 56.78125 27.484375 56.78125 20.515625 
Q 56.78125 9.90625 50.3125 4.234375 
Q 43.84375 -1.421875 31.78125 -1.421875 
Q 19.734375 -1.421875 13.25 4.234375 
Q 6.78125 9.90625 6.78125 20.515625 
Q 6.78125 27.484375 10.78125 32.3125 
Q 14.796875 37.15625 21.921875 38.8125 
z
M 18.3125 54.390625 
Q 18.3125 48.734375 21.84375 45.5625 
Q 25.390625 42.390625 31.78125 42.390625 
Q 38.140625 42.390625 41.71875 45.5625 
Q 45.3125 48.734375 45.3125 54.390625 
Q 45.3125 60.0625 41.71875 63.234375 
Q 38.140625 66.40625 31.78125 66.40625 
Q 25.390625 66.40625 21.84375 63.234375 
Q 18.3125 60.0625 18.3125 54.390625 
z
" id="DejaVuSans-56"/>
      </defs>
      <g transform="translate(7.2 94.109041)scale(0.1 -0.1)">
       <use xlink:href="#DejaVuSans-48"/>
       <use x="63.623047" xlink:href="#DejaVuSans-46"/>
       <use x="95.410156" xlink:href="#DejaVuSans-56"/>
      </g>
     </g>
    </g>
    <g id="ytick_6">
     <g id="line2d_13">
      <g>
       <use style="stroke:#000000;stroke-width:0.8;" x="30.103125" xlink:href="#md69cea6d70" y="56.727277"/>
      </g>
     </g>
     <g id="text_14">
      <!-- 1.0 -->
      <g transform="translate(7.2 60.526496)scale(0.1 -0.1)">
       <use xlink:href="#DejaVuSans-49"/>
       <use x="63.623047" xlink:href="#DejaVuSans-46"/>
       <use x="95.410156" xlink:href="#DejaVuSans-48"/>
      </g>
     </g>
    </g>
    <g id="ytick_7">
     <g id="line2d_14">
      <g>
       <use style="stroke:#000000;stroke-width:0.8;" x="30.103125" xlink:href="#md69cea6d70" y="23.144733"/>
      </g>
     </g>
     <g id="text_15">
      <!-- 1.2 -->
      <g transform="translate(7.2 26.943952)scale(0.1 -0.1)">
       <use xlink:href="#DejaVuSans-49"/>
       <use x="63.623047" xlink:href="#DejaVuSans-46"/>
       <use x="95.410156" xlink:href="#DejaVuSans-50"/>
      </g>
     </g>
    </g>
   </g>
   <g id="line2d_15">
    <path clip-path="url(#pfce7a1427a)" d="M 45.321307 224.636483 
L 74.381151 224.52272 
L 85.08741 224.281035 
L 92.734738 223.886206 
L 98.8526 223.321374 
L 103.440996 222.673987 
L 108.029393 221.758589 
L 111.088324 220.957457 
L 114.147255 219.969308 
L 117.206186 218.760975 
L 120.265117 217.296212 
L 123.324048 215.536139 
L 126.382979 213.439903 
L 129.44191 210.965587 
L 132.500841 208.071381 
L 135.559772 204.717005 
L 138.618703 200.865377 
L 141.677634 196.484492 
L 144.736565 191.549464 
L 147.795496 186.044653 
L 150.854427 179.965799 
L 153.913358 173.322044 
L 156.972289 166.137744 
L 160.03122 158.453932 
L 164.619617 146.125005 
L 169.208013 133.082753 
L 181.443737 97.797689 
L 184.502668 89.624457 
L 187.561599 82.015513 
L 190.62053 75.121431 
L 193.679461 69.083962 
L 195.208927 66.427148 
L 196.738392 64.031206 
L 198.267858 61.909274 
L 199.797323 60.073104 
L 201.326789 58.532949 
L 202.856254 57.297467 
L 204.38572 56.373646 
L 205.915185 55.766733 
L 207.444651 55.480184 
L 208.974116 55.515634 
L 210.503582 55.872882 
L 212.033047 56.54989 
L 213.562513 57.542802 
L 215.091978 58.845984 
L 216.621444 60.452077 
L 218.150909 62.352061 
L 219.680375 64.535346 
L 221.20984 66.989865 
L 222.739306 69.70219 
L 225.798237 75.840465 
L 228.857168 82.820339 
L 231.916099 90.498853 
L 234.97503 98.72476 
L 239.563427 111.751996 
L 251.799151 147.057419 
L 256.387547 159.322124 
L 259.446478 166.953527 
L 262.505409 174.080051 
L 265.56434 180.662557 
L 268.623271 186.678442 
L 271.682202 192.120131 
L 274.741133 196.993239 
L 277.800064 201.314528 
L 280.858995 205.109772 
L 283.917926 208.41163 
L 286.976857 211.257625 
L 290.035788 213.688283 
L 293.094719 215.745493 
L 296.15365 217.471103 
L 299.212581 218.905792 
L 302.271512 220.088178 
L 305.330443 221.054186 
L 308.389374 221.836626 
L 312.977771 222.729637 
L 317.566167 223.360309 
L 323.68403 223.909689 
L 331.331357 224.292946 
L 340.50815 224.506537 
L 349.684943 224.592077 
L 349.684943 224.592077 
" style="fill:none;stroke:#282828;stroke-linecap:square;stroke-width:1.5;"/>
   </g>
   <g id="patch_36">
    <path d="M 30.103125 224.64 
L 30.103125 7.2 
" style="fill:none;stroke:#000000;stroke-linecap:square;stroke-linejoin:miter;stroke-width:0.8;"/>
   </g>
   <g id="patch_37">
    <path d="M 364.903125 224.64 
L 364.903125 7.2 
" style="fill:none;stroke:#000000;stroke-linecap:square;stroke-linejoin:miter;stroke-width:0.8;"/>
   </g>
   <g id="patch_38">
    <path d="M 30.103125 224.64 
L 364.903125 224.64 
" style="fill:none;stroke:#000000;stroke-linecap:square;stroke-linejoin:miter;stroke-width:0.8;"/>
   </g>
   <g id="patch_39">
    <path d="M 30.103125 7.2 
L 364.903125 7.2 
" style="fill:none;stroke:#000000;stroke-linecap:square;stroke-linejoin:miter;stroke-width:0.8;"/>
   </g>
  </g>
 </g>
 <defs>
  <clipPath id="pfce7a1427a">
   <rect height="217.44" width="334.8" x="30.103125" y="7.2"/>
  </clipPath>
 </defs>
</svg>
