<?xml version="1.0" encoding="utf-8" standalone="no"?>
<!DOCTYPE svg PUBLIC "-//W3C//DTD SVG 1.1//EN"
  "http://www.w3.org/Graphics/SVG/1.1/DTD/svg11.dtd">
<!-- Created with matplotlib (https://matplotlib.org/) -->
<svg height="422.834062pt" version="1.1" viewBox="0 0 456.84 422.834062" width="456.84pt" xmlns="http://www.w3.org/2000/svg" xmlns:xlink="http://www.w3.org/1999/xlink">
 <defs>
  <style type="text/css">
*{stroke-linecap:butt;stroke-linejoin:round;}
  </style>
 </defs>
 <g id="figure_1">
  <g id="patch_1">
   <path d="M 0 422.834062 
L 456.84 422.834062 
L 456.84 0 
L 0 0 
z
" style="fill:#ffffff;"/>
  </g>
  <g id="axes_1">
   <g id="patch_2">
    <path d="M 59.04 387.72 
L 449.64 387.72 
L 449.64 7.2 
L 59.04 7.2 
z
" style="fill:#ffffff;"/>
   </g>
   <g id="matplotlib.axis_1">
    <g id="xtick_1">
     <g id="line2d_1"/>
     <g id="text_1">
      <!-- 1 -->
      <defs>
       <path d="M 37.25 0 
L 28.46875 0 
L 28.46875 56 
Q 25.296875 52.984375 20.140625 49.953125 
Q 14.984375 46.921875 10.890625 45.40625 
L 10.890625 53.90625 
Q 18.265625 57.375 23.78125 62.296875 
Q 29.296875 67.234375 31.59375 71.875 
L 37.25 71.875 
z
" id="ArialMT-49"/>
      </defs>
      <g style="fill:#262626;" transform="translate(75.789531 398.377812)scale(0.1 -0.1)">
       <use xlink:href="#ArialMT-49"/>
      </g>
     </g>
    </g>
    <g id="xtick_2">
     <g id="line2d_2"/>
     <g id="text_2">
      <!-- 2 -->
      <defs>
       <path d="M 50.34375 8.453125 
L 50.34375 0 
L 3.03125 0 
Q 2.9375 3.171875 4.046875 6.109375 
Q 5.859375 10.9375 9.828125 15.625 
Q 13.8125 20.3125 21.34375 26.46875 
Q 33.015625 36.03125 37.109375 41.625 
Q 41.21875 47.21875 41.21875 52.203125 
Q 41.21875 57.421875 37.46875 61 
Q 33.734375 64.59375 27.734375 64.59375 
Q 21.390625 64.59375 17.578125 60.78125 
Q 13.765625 56.984375 13.71875 50.25 
L 4.6875 51.171875 
Q 5.609375 61.28125 11.65625 66.578125 
Q 17.71875 71.875 27.9375 71.875 
Q 38.234375 71.875 44.234375 66.15625 
Q 50.25 60.453125 50.25 52 
Q 50.25 47.703125 48.484375 43.546875 
Q 46.734375 39.40625 42.65625 34.8125 
Q 38.578125 30.21875 29.109375 22.21875 
Q 21.1875 15.578125 18.9375 13.203125 
Q 16.703125 10.84375 15.234375 8.453125 
z
" id="ArialMT-50"/>
      </defs>
      <g style="fill:#262626;" transform="translate(114.849531 398.377812)scale(0.1 -0.1)">
       <use xlink:href="#ArialMT-50"/>
      </g>
     </g>
    </g>
    <g id="xtick_3">
     <g id="line2d_3"/>
     <g id="text_3">
      <!-- 3 -->
      <defs>
       <path d="M 4.203125 18.890625 
L 12.984375 20.0625 
Q 14.5 12.59375 18.140625 9.296875 
Q 21.78125 6 27 6 
Q 33.203125 6 37.46875 10.296875 
Q 41.75 14.59375 41.75 20.953125 
Q 41.75 27 37.796875 30.921875 
Q 33.84375 34.859375 27.734375 34.859375 
Q 25.25 34.859375 21.53125 33.890625 
L 22.515625 41.609375 
Q 23.390625 41.5 23.921875 41.5 
Q 29.546875 41.5 34.03125 44.421875 
Q 38.53125 47.359375 38.53125 53.46875 
Q 38.53125 58.296875 35.25 61.46875 
Q 31.984375 64.65625 26.8125 64.65625 
Q 21.6875 64.65625 18.265625 61.421875 
Q 14.84375 58.203125 13.875 51.765625 
L 5.078125 53.328125 
Q 6.6875 62.15625 12.390625 67.015625 
Q 18.109375 71.875 26.609375 71.875 
Q 32.46875 71.875 37.390625 69.359375 
Q 42.328125 66.84375 44.9375 62.5 
Q 47.5625 58.15625 47.5625 53.265625 
Q 47.5625 48.640625 45.0625 44.828125 
Q 42.578125 41.015625 37.703125 38.765625 
Q 44.046875 37.3125 47.5625 32.6875 
Q 51.078125 28.078125 51.078125 21.140625 
Q 51.078125 11.765625 44.234375 5.25 
Q 37.40625 -1.265625 26.953125 -1.265625 
Q 17.53125 -1.265625 11.296875 4.34375 
Q 5.078125 9.96875 4.203125 18.890625 
z
" id="ArialMT-51"/>
      </defs>
      <g style="fill:#262626;" transform="translate(153.909531 398.377812)scale(0.1 -0.1)">
       <use xlink:href="#ArialMT-51"/>
      </g>
     </g>
    </g>
    <g id="xtick_4">
     <g id="line2d_4"/>
     <g id="text_4">
      <!-- 4 -->
      <defs>
       <path d="M 32.328125 0 
L 32.328125 17.140625 
L 1.265625 17.140625 
L 1.265625 25.203125 
L 33.9375 71.578125 
L 41.109375 71.578125 
L 41.109375 25.203125 
L 50.78125 25.203125 
L 50.78125 17.140625 
L 41.109375 17.140625 
L 41.109375 0 
z
M 32.328125 25.203125 
L 32.328125 57.46875 
L 9.90625 25.203125 
z
" id="ArialMT-52"/>
      </defs>
      <g style="fill:#262626;" transform="translate(192.969531 398.377812)scale(0.1 -0.1)">
       <use xlink:href="#ArialMT-52"/>
      </g>
     </g>
    </g>
    <g id="xtick_5">
     <g id="line2d_5"/>
     <g id="text_5">
      <!-- 5 -->
      <defs>
       <path d="M 4.15625 18.75 
L 13.375 19.53125 
Q 14.40625 12.796875 18.140625 9.390625 
Q 21.875 6 27.15625 6 
Q 33.5 6 37.890625 10.78125 
Q 42.28125 15.578125 42.28125 23.484375 
Q 42.28125 31 38.0625 35.34375 
Q 33.84375 39.703125 27 39.703125 
Q 22.75 39.703125 19.328125 37.765625 
Q 15.921875 35.84375 13.96875 32.765625 
L 5.71875 33.84375 
L 12.640625 70.609375 
L 48.25 70.609375 
L 48.25 62.203125 
L 19.671875 62.203125 
L 15.828125 42.96875 
Q 22.265625 47.46875 29.34375 47.46875 
Q 38.71875 47.46875 45.15625 40.96875 
Q 51.609375 34.46875 51.609375 24.265625 
Q 51.609375 14.546875 45.953125 7.46875 
Q 39.0625 -1.21875 27.15625 -1.21875 
Q 17.390625 -1.21875 11.203125 4.25 
Q 5.03125 9.71875 4.15625 18.75 
z
" id="ArialMT-53"/>
      </defs>
      <g style="fill:#262626;" transform="translate(232.029531 398.377812)scale(0.1 -0.1)">
       <use xlink:href="#ArialMT-53"/>
      </g>
     </g>
    </g>
    <g id="xtick_6">
     <g id="line2d_6"/>
     <g id="text_6">
      <!-- 6 -->
      <defs>
       <path d="M 49.75 54.046875 
L 41.015625 53.375 
Q 39.84375 58.546875 37.703125 60.890625 
Q 34.125 64.65625 28.90625 64.65625 
Q 24.703125 64.65625 21.53125 62.3125 
Q 17.390625 59.28125 14.984375 53.46875 
Q 12.59375 47.65625 12.5 36.921875 
Q 15.671875 41.75 20.265625 44.09375 
Q 24.859375 46.4375 29.890625 46.4375 
Q 38.671875 46.4375 44.84375 39.96875 
Q 51.03125 33.5 51.03125 23.25 
Q 51.03125 16.5 48.125 10.71875 
Q 45.21875 4.9375 40.140625 1.859375 
Q 35.0625 -1.21875 28.609375 -1.21875 
Q 17.625 -1.21875 10.6875 6.859375 
Q 3.765625 14.9375 3.765625 33.5 
Q 3.765625 54.25 11.421875 63.671875 
Q 18.109375 71.875 29.4375 71.875 
Q 37.890625 71.875 43.28125 67.140625 
Q 48.6875 62.40625 49.75 54.046875 
z
M 13.875 23.1875 
Q 13.875 18.65625 15.796875 14.5 
Q 17.71875 10.359375 21.1875 8.171875 
Q 24.65625 6 28.46875 6 
Q 34.03125 6 38.03125 10.484375 
Q 42.046875 14.984375 42.046875 22.703125 
Q 42.046875 30.125 38.078125 34.390625 
Q 34.125 38.671875 28.125 38.671875 
Q 22.171875 38.671875 18.015625 34.390625 
Q 13.875 30.125 13.875 23.1875 
z
" id="ArialMT-54"/>
      </defs>
      <g style="fill:#262626;" transform="translate(271.089531 398.377812)scale(0.1 -0.1)">
       <use xlink:href="#ArialMT-54"/>
      </g>
     </g>
    </g>
    <g id="xtick_7">
     <g id="line2d_7"/>
     <g id="text_7">
      <!-- 7 -->
      <defs>
       <path d="M 4.734375 62.203125 
L 4.734375 70.65625 
L 51.078125 70.65625 
L 51.078125 63.8125 
Q 44.234375 56.546875 37.515625 44.484375 
Q 30.8125 32.421875 27.15625 19.671875 
Q 24.515625 10.6875 23.78125 0 
L 14.75 0 
Q 14.890625 8.453125 18.0625 20.40625 
Q 21.234375 32.375 27.171875 43.484375 
Q 33.109375 54.59375 39.796875 62.203125 
z
" id="ArialMT-55"/>
      </defs>
      <g style="fill:#262626;" transform="translate(310.149531 398.377812)scale(0.1 -0.1)">
       <use xlink:href="#ArialMT-55"/>
      </g>
     </g>
    </g>
    <g id="xtick_8">
     <g id="line2d_8"/>
     <g id="text_8">
      <!-- 8 -->
      <defs>
       <path d="M 17.671875 38.8125 
Q 12.203125 40.828125 9.5625 44.53125 
Q 6.9375 48.25 6.9375 53.421875 
Q 6.9375 61.234375 12.546875 66.546875 
Q 18.171875 71.875 27.484375 71.875 
Q 36.859375 71.875 42.578125 66.421875 
Q 48.296875 60.984375 48.296875 53.171875 
Q 48.296875 48.1875 45.671875 44.5 
Q 43.0625 40.828125 37.75 38.8125 
Q 44.34375 36.671875 47.78125 31.875 
Q 51.21875 27.09375 51.21875 20.453125 
Q 51.21875 11.28125 44.71875 5.03125 
Q 38.234375 -1.21875 27.640625 -1.21875 
Q 17.046875 -1.21875 10.546875 5.046875 
Q 4.046875 11.328125 4.046875 20.703125 
Q 4.046875 27.6875 7.59375 32.390625 
Q 11.140625 37.109375 17.671875 38.8125 
z
M 15.921875 53.71875 
Q 15.921875 48.640625 19.1875 45.40625 
Q 22.46875 42.1875 27.6875 42.1875 
Q 32.765625 42.1875 36.015625 45.375 
Q 39.265625 48.578125 39.265625 53.21875 
Q 39.265625 58.0625 35.90625 61.359375 
Q 32.5625 64.65625 27.59375 64.65625 
Q 22.5625 64.65625 19.234375 61.421875 
Q 15.921875 58.203125 15.921875 53.71875 
z
M 13.09375 20.65625 
Q 13.09375 16.890625 14.875 13.375 
Q 16.65625 9.859375 20.171875 7.921875 
Q 23.6875 6 27.734375 6 
Q 34.03125 6 38.125 10.046875 
Q 42.234375 14.109375 42.234375 20.359375 
Q 42.234375 26.703125 38.015625 30.859375 
Q 33.796875 35.015625 27.4375 35.015625 
Q 21.234375 35.015625 17.15625 30.90625 
Q 13.09375 26.8125 13.09375 20.65625 
z
" id="ArialMT-56"/>
      </defs>
      <g style="fill:#262626;" transform="translate(349.209531 398.377812)scale(0.1 -0.1)">
       <use xlink:href="#ArialMT-56"/>
      </g>
     </g>
    </g>
    <g id="xtick_9">
     <g id="line2d_9"/>
     <g id="text_9">
      <!-- 9 -->
      <defs>
       <path d="M 5.46875 16.546875 
L 13.921875 17.328125 
Q 14.984375 11.375 18.015625 8.6875 
Q 21.046875 6 25.78125 6 
Q 29.828125 6 32.875 7.859375 
Q 35.9375 9.71875 37.890625 12.8125 
Q 39.84375 15.921875 41.15625 21.1875 
Q 42.484375 26.46875 42.484375 31.9375 
Q 42.484375 32.515625 42.4375 33.6875 
Q 39.796875 29.5 35.234375 26.875 
Q 30.671875 24.265625 25.34375 24.265625 
Q 16.453125 24.265625 10.296875 30.703125 
Q 4.15625 37.15625 4.15625 47.703125 
Q 4.15625 58.59375 10.578125 65.234375 
Q 17 71.875 26.65625 71.875 
Q 33.640625 71.875 39.421875 68.109375 
Q 45.21875 64.359375 48.21875 57.390625 
Q 51.21875 50.4375 51.21875 37.25 
Q 51.21875 23.53125 48.234375 15.40625 
Q 45.265625 7.28125 39.375 3.03125 
Q 33.5 -1.21875 25.59375 -1.21875 
Q 17.1875 -1.21875 11.859375 3.4375 
Q 6.546875 8.109375 5.46875 16.546875 
z
M 41.453125 48.140625 
Q 41.453125 55.71875 37.421875 60.15625 
Q 33.40625 64.59375 27.734375 64.59375 
Q 21.875 64.59375 17.53125 59.8125 
Q 13.1875 55.03125 13.1875 47.40625 
Q 13.1875 40.578125 17.3125 36.296875 
Q 21.4375 32.03125 27.484375 32.03125 
Q 33.59375 32.03125 37.515625 36.296875 
Q 41.453125 40.578125 41.453125 48.140625 
z
" id="ArialMT-57"/>
      </defs>
      <g style="fill:#262626;" transform="translate(388.269531 398.377812)scale(0.1 -0.1)">
       <use xlink:href="#ArialMT-57"/>
      </g>
     </g>
    </g>
    <g id="xtick_10">
     <g id="line2d_10"/>
     <g id="text_10">
      <!-- 10 -->
      <defs>
       <path d="M 4.15625 35.296875 
Q 4.15625 48 6.765625 55.734375 
Q 9.375 63.484375 14.515625 67.671875 
Q 19.671875 71.875 27.484375 71.875 
Q 33.25 71.875 37.59375 69.546875 
Q 41.9375 67.234375 44.765625 62.859375 
Q 47.609375 58.5 49.21875 52.21875 
Q 50.828125 45.953125 50.828125 35.296875 
Q 50.828125 22.703125 48.234375 14.96875 
Q 45.65625 7.234375 40.5 3 
Q 35.359375 -1.21875 27.484375 -1.21875 
Q 17.140625 -1.21875 11.234375 6.203125 
Q 4.15625 15.140625 4.15625 35.296875 
z
M 13.1875 35.296875 
Q 13.1875 17.671875 17.3125 11.828125 
Q 21.4375 6 27.484375 6 
Q 33.546875 6 37.671875 11.859375 
Q 41.796875 17.71875 41.796875 35.296875 
Q 41.796875 52.984375 37.671875 58.78125 
Q 33.546875 64.59375 27.390625 64.59375 
Q 21.34375 64.59375 17.71875 59.46875 
Q 13.1875 52.9375 13.1875 35.296875 
z
" id="ArialMT-48"/>
      </defs>
      <g style="fill:#262626;" transform="translate(424.549062 398.377812)scale(0.1 -0.1)">
       <use xlink:href="#ArialMT-49"/>
       <use x="55.615234" xlink:href="#ArialMT-48"/>
      </g>
     </g>
    </g>
    <g id="text_11">
     <!-- Overall Quality -->
     <defs>
      <path d="M 4.828125 34.859375 
Q 4.828125 52.6875 14.390625 62.765625 
Q 23.96875 72.859375 39.109375 72.859375 
Q 49.03125 72.859375 56.984375 68.109375 
Q 64.9375 63.375 69.109375 54.90625 
Q 73.296875 46.4375 73.296875 35.6875 
Q 73.296875 24.8125 68.890625 16.21875 
Q 64.5 7.625 56.4375 3.203125 
Q 48.390625 -1.21875 39.0625 -1.21875 
Q 28.953125 -1.21875 20.984375 3.65625 
Q 13.03125 8.546875 8.921875 16.984375 
Q 4.828125 25.4375 4.828125 34.859375 
z
M 14.59375 34.71875 
Q 14.59375 21.78125 21.546875 14.328125 
Q 28.515625 6.890625 39.015625 6.890625 
Q 49.703125 6.890625 56.609375 14.40625 
Q 63.53125 21.921875 63.53125 35.75 
Q 63.53125 44.484375 60.578125 51 
Q 57.625 57.515625 51.921875 61.109375 
Q 46.234375 64.703125 39.15625 64.703125 
Q 29.109375 64.703125 21.84375 57.78125 
Q 14.59375 50.875 14.59375 34.71875 
z
" id="ArialMT-79"/>
      <path d="M 21 0 
L 1.265625 51.859375 
L 10.546875 51.859375 
L 21.6875 20.796875 
Q 23.484375 15.765625 25 10.359375 
Q 26.171875 14.453125 28.265625 20.21875 
L 39.796875 51.859375 
L 48.828125 51.859375 
L 29.203125 0 
z
" id="ArialMT-118"/>
      <path d="M 42.09375 16.703125 
L 51.171875 15.578125 
Q 49.03125 7.625 43.21875 3.21875 
Q 37.40625 -1.171875 28.375 -1.171875 
Q 17 -1.171875 10.328125 5.828125 
Q 3.65625 12.84375 3.65625 25.484375 
Q 3.65625 38.578125 10.390625 45.796875 
Q 17.140625 53.03125 27.875 53.03125 
Q 38.28125 53.03125 44.875 45.953125 
Q 51.46875 38.875 51.46875 26.03125 
Q 51.46875 25.25 51.421875 23.6875 
L 12.75 23.6875 
Q 13.234375 15.140625 17.578125 10.59375 
Q 21.921875 6.0625 28.421875 6.0625 
Q 33.25 6.0625 36.671875 8.59375 
Q 40.09375 11.140625 42.09375 16.703125 
z
M 13.234375 30.90625 
L 42.1875 30.90625 
Q 41.609375 37.453125 38.875 40.71875 
Q 34.671875 45.796875 27.984375 45.796875 
Q 21.921875 45.796875 17.796875 41.75 
Q 13.671875 37.703125 13.234375 30.90625 
z
" id="ArialMT-101"/>
      <path d="M 6.5 0 
L 6.5 51.859375 
L 14.40625 51.859375 
L 14.40625 44 
Q 17.4375 49.515625 20 51.265625 
Q 22.5625 53.03125 25.640625 53.03125 
Q 30.078125 53.03125 34.671875 50.203125 
L 31.640625 42.046875 
Q 28.421875 43.953125 25.203125 43.953125 
Q 22.3125 43.953125 20.015625 42.21875 
Q 17.71875 40.484375 16.75 37.40625 
Q 15.28125 32.71875 15.28125 27.15625 
L 15.28125 0 
z
" id="ArialMT-114"/>
      <path d="M 40.4375 6.390625 
Q 35.546875 2.25 31.03125 0.53125 
Q 26.515625 -1.171875 21.34375 -1.171875 
Q 12.796875 -1.171875 8.203125 3 
Q 3.609375 7.171875 3.609375 13.671875 
Q 3.609375 17.484375 5.34375 20.625 
Q 7.078125 23.78125 9.890625 25.6875 
Q 12.703125 27.59375 16.21875 28.5625 
Q 18.796875 29.25 24.03125 29.890625 
Q 34.671875 31.15625 39.703125 32.90625 
Q 39.75 34.71875 39.75 35.203125 
Q 39.75 40.578125 37.25 42.78125 
Q 33.890625 45.75 27.25 45.75 
Q 21.046875 45.75 18.09375 43.578125 
Q 15.140625 41.40625 13.71875 35.890625 
L 5.125 37.0625 
Q 6.296875 42.578125 8.984375 45.96875 
Q 11.671875 49.359375 16.75 51.1875 
Q 21.828125 53.03125 28.515625 53.03125 
Q 35.15625 53.03125 39.296875 51.46875 
Q 43.453125 49.90625 45.40625 47.53125 
Q 47.359375 45.171875 48.140625 41.546875 
Q 48.578125 39.3125 48.578125 33.453125 
L 48.578125 21.734375 
Q 48.578125 9.46875 49.140625 6.21875 
Q 49.703125 2.984375 51.375 0 
L 42.1875 0 
Q 40.828125 2.734375 40.4375 6.390625 
z
M 39.703125 26.03125 
Q 34.90625 24.078125 25.34375 22.703125 
Q 19.921875 21.921875 17.671875 20.9375 
Q 15.4375 19.96875 14.203125 18.09375 
Q 12.984375 16.21875 12.984375 13.921875 
Q 12.984375 10.40625 15.640625 8.0625 
Q 18.3125 5.71875 23.4375 5.71875 
Q 28.515625 5.71875 32.46875 7.9375 
Q 36.421875 10.15625 38.28125 14.015625 
Q 39.703125 17 39.703125 22.796875 
z
" id="ArialMT-97"/>
      <path d="M 6.390625 0 
L 6.390625 71.578125 
L 15.1875 71.578125 
L 15.1875 0 
z
" id="ArialMT-108"/>
      <path id="ArialMT-32"/>
      <path d="M 61.96875 7.671875 
Q 68.5625 3.125 74.125 1.03125 
L 71.34375 -5.5625 
Q 63.625 -2.78125 55.953125 3.21875 
Q 48 -1.21875 38.375 -1.21875 
Q 28.65625 -1.21875 20.75 3.46875 
Q 12.84375 8.15625 8.5625 16.640625 
Q 4.296875 25.140625 4.296875 35.796875 
Q 4.296875 46.390625 8.59375 55.078125 
Q 12.890625 63.765625 20.828125 68.3125 
Q 28.765625 72.859375 38.578125 72.859375 
Q 48.484375 72.859375 56.4375 68.140625 
Q 64.40625 63.421875 68.578125 54.953125 
Q 72.75 46.484375 72.75 35.84375 
Q 72.75 27 70.0625 19.9375 
Q 67.390625 12.890625 61.96875 7.671875 
z
M 41.109375 19.78125 
Q 49.3125 17.484375 54.640625 12.9375 
Q 62.984375 20.5625 62.984375 35.84375 
Q 62.984375 44.53125 60.03125 51.015625 
Q 57.078125 57.515625 51.390625 61.109375 
Q 45.703125 64.703125 38.625 64.703125 
Q 28.03125 64.703125 21.046875 57.453125 
Q 14.0625 50.203125 14.0625 35.796875 
Q 14.0625 21.828125 20.96875 14.359375 
Q 27.875 6.890625 38.625 6.890625 
Q 43.703125 6.890625 48.1875 8.796875 
Q 43.75 11.671875 38.8125 12.890625 
z
" id="ArialMT-81"/>
      <path d="M 40.578125 0 
L 40.578125 7.625 
Q 34.515625 -1.171875 24.125 -1.171875 
Q 19.53125 -1.171875 15.546875 0.578125 
Q 11.578125 2.34375 9.640625 5 
Q 7.71875 7.671875 6.9375 11.53125 
Q 6.390625 14.109375 6.390625 19.734375 
L 6.390625 51.859375 
L 15.1875 51.859375 
L 15.1875 23.09375 
Q 15.1875 16.21875 15.71875 13.8125 
Q 16.546875 10.359375 19.234375 8.375 
Q 21.921875 6.390625 25.875 6.390625 
Q 29.828125 6.390625 33.296875 8.421875 
Q 36.765625 10.453125 38.203125 13.9375 
Q 39.65625 17.4375 39.65625 24.078125 
L 39.65625 51.859375 
L 48.4375 51.859375 
L 48.4375 0 
z
" id="ArialMT-117"/>
      <path d="M 6.640625 61.46875 
L 6.640625 71.578125 
L 15.4375 71.578125 
L 15.4375 61.46875 
z
M 6.640625 0 
L 6.640625 51.859375 
L 15.4375 51.859375 
L 15.4375 0 
z
" id="ArialMT-105"/>
      <path d="M 25.78125 7.859375 
L 27.046875 0.09375 
Q 23.34375 -0.6875 20.40625 -0.6875 
Q 15.625 -0.6875 12.984375 0.828125 
Q 10.359375 2.34375 9.28125 4.8125 
Q 8.203125 7.28125 8.203125 15.1875 
L 8.203125 45.015625 
L 1.765625 45.015625 
L 1.765625 51.859375 
L 8.203125 51.859375 
L 8.203125 64.703125 
L 16.9375 69.96875 
L 16.9375 51.859375 
L 25.78125 51.859375 
L 25.78125 45.015625 
L 16.9375 45.015625 
L 16.9375 14.703125 
Q 16.9375 10.9375 17.40625 9.859375 
Q 17.875 8.796875 18.921875 8.15625 
Q 19.96875 7.515625 21.921875 7.515625 
Q 23.390625 7.515625 25.78125 7.859375 
z
" id="ArialMT-116"/>
      <path d="M 6.203125 -19.96875 
L 5.21875 -11.71875 
Q 8.109375 -12.5 10.25 -12.5 
Q 13.1875 -12.5 14.9375 -11.515625 
Q 16.703125 -10.546875 17.828125 -8.796875 
Q 18.65625 -7.46875 20.515625 -2.25 
Q 20.75 -1.515625 21.296875 -0.09375 
L 1.609375 51.859375 
L 11.078125 51.859375 
L 21.875 21.828125 
Q 23.96875 16.109375 25.640625 9.8125 
Q 27.15625 15.875 29.25 21.625 
L 40.328125 51.859375 
L 49.125 51.859375 
L 29.390625 -0.875 
Q 26.21875 -9.421875 24.46875 -12.640625 
Q 22.125 -17 19.09375 -19.015625 
Q 16.0625 -21.046875 11.859375 -21.046875 
Q 9.328125 -21.046875 6.203125 -19.96875 
z
" id="ArialMT-121"/>
     </defs>
     <g style="fill:#262626;" transform="translate(214.995938 413.108437)scale(0.12 -0.12)">
      <use xlink:href="#ArialMT-79"/>
      <use x="77.783203" xlink:href="#ArialMT-118"/>
      <use x="127.783203" xlink:href="#ArialMT-101"/>
      <use x="183.398438" xlink:href="#ArialMT-114"/>
      <use x="216.699219" xlink:href="#ArialMT-97"/>
      <use x="272.314453" xlink:href="#ArialMT-108"/>
      <use x="294.53125" xlink:href="#ArialMT-108"/>
      <use x="316.748047" xlink:href="#ArialMT-32"/>
      <use x="344.53125" xlink:href="#ArialMT-81"/>
      <use x="422.314453" xlink:href="#ArialMT-117"/>
      <use x="477.929688" xlink:href="#ArialMT-97"/>
      <use x="533.544922" xlink:href="#ArialMT-108"/>
      <use x="555.761719" xlink:href="#ArialMT-105"/>
      <use x="577.978516" xlink:href="#ArialMT-116"/>
      <use x="605.761719" xlink:href="#ArialMT-121"/>
     </g>
    </g>
   </g>
   <g id="matplotlib.axis_2">
    <g id="ytick_1">
     <g id="line2d_11"/>
     <g id="text_12">
      <!-- 100000 -->
      <g style="fill:#262626;" transform="translate(22.174375 335.839747)scale(0.1 -0.1)">
       <use xlink:href="#ArialMT-49"/>
       <use x="55.615234" xlink:href="#ArialMT-48"/>
       <use x="111.230469" xlink:href="#ArialMT-48"/>
       <use x="166.845703" xlink:href="#ArialMT-48"/>
       <use x="222.460938" xlink:href="#ArialMT-48"/>
       <use x="278.076172" xlink:href="#ArialMT-48"/>
      </g>
     </g>
    </g>
    <g id="ytick_2">
     <g id="line2d_12"/>
     <g id="text_13">
      <!-- 200000 -->
      <g style="fill:#262626;" transform="translate(22.174375 277.217942)scale(0.1 -0.1)">
       <use xlink:href="#ArialMT-50"/>
       <use x="55.615234" xlink:href="#ArialMT-48"/>
       <use x="111.230469" xlink:href="#ArialMT-48"/>
       <use x="166.845703" xlink:href="#ArialMT-48"/>
       <use x="222.460938" xlink:href="#ArialMT-48"/>
       <use x="278.076172" xlink:href="#ArialMT-48"/>
      </g>
     </g>
    </g>
    <g id="ytick_3">
     <g id="line2d_13"/>
     <g id="text_14">
      <!-- 300000 -->
      <g style="fill:#262626;" transform="translate(22.174375 218.596137)scale(0.1 -0.1)">
       <use xlink:href="#ArialMT-51"/>
       <use x="55.615234" xlink:href="#ArialMT-48"/>
       <use x="111.230469" xlink:href="#ArialMT-48"/>
       <use x="166.845703" xlink:href="#ArialMT-48"/>
       <use x="222.460938" xlink:href="#ArialMT-48"/>
       <use x="278.076172" xlink:href="#ArialMT-48"/>
      </g>
     </g>
    </g>
    <g id="ytick_4">
     <g id="line2d_14"/>
     <g id="text_15">
      <!-- 400000 -->
      <g style="fill:#262626;" transform="translate(22.174375 159.974332)scale(0.1 -0.1)">
       <use xlink:href="#ArialMT-52"/>
       <use x="55.615234" xlink:href="#ArialMT-48"/>
       <use x="111.230469" xlink:href="#ArialMT-48"/>
       <use x="166.845703" xlink:href="#ArialMT-48"/>
       <use x="222.460938" xlink:href="#ArialMT-48"/>
       <use x="278.076172" xlink:href="#ArialMT-48"/>
      </g>
     </g>
    </g>
    <g id="ytick_5">
     <g id="line2d_15"/>
     <g id="text_16">
      <!-- 500000 -->
      <g style="fill:#262626;" transform="translate(22.174375 101.352526)scale(0.1 -0.1)">
       <use xlink:href="#ArialMT-53"/>
       <use x="55.615234" xlink:href="#ArialMT-48"/>
       <use x="111.230469" xlink:href="#ArialMT-48"/>
       <use x="166.845703" xlink:href="#ArialMT-48"/>
       <use x="222.460938" xlink:href="#ArialMT-48"/>
       <use x="278.076172" xlink:href="#ArialMT-48"/>
      </g>
     </g>
    </g>
    <g id="ytick_6">
     <g id="line2d_16"/>
     <g id="text_17">
      <!-- 600000 -->
      <g style="fill:#262626;" transform="translate(22.174375 42.730721)scale(0.1 -0.1)">
       <use xlink:href="#ArialMT-54"/>
       <use x="55.615234" xlink:href="#ArialMT-48"/>
       <use x="111.230469" xlink:href="#ArialMT-48"/>
       <use x="166.845703" xlink:href="#ArialMT-48"/>
       <use x="222.460938" xlink:href="#ArialMT-48"/>
       <use x="278.076172" xlink:href="#ArialMT-48"/>
      </g>
     </g>
    </g>
    <g id="text_18">
     <!-- Sale Price -->
     <defs>
      <path d="M 4.5 23 
L 13.421875 23.78125 
Q 14.0625 18.40625 16.375 14.96875 
Q 18.703125 11.53125 23.578125 9.40625 
Q 28.46875 7.28125 34.578125 7.28125 
Q 39.984375 7.28125 44.140625 8.890625 
Q 48.296875 10.5 50.3125 13.296875 
Q 52.34375 16.109375 52.34375 19.4375 
Q 52.34375 22.796875 50.390625 25.3125 
Q 48.4375 27.828125 43.953125 29.546875 
Q 41.0625 30.671875 31.203125 33.03125 
Q 21.34375 35.40625 17.390625 37.5 
Q 12.25 40.1875 9.734375 44.15625 
Q 7.234375 48.140625 7.234375 53.078125 
Q 7.234375 58.5 10.296875 63.203125 
Q 13.375 67.921875 19.28125 70.359375 
Q 25.203125 72.796875 32.421875 72.796875 
Q 40.375 72.796875 46.453125 70.234375 
Q 52.546875 67.671875 55.8125 62.6875 
Q 59.078125 57.71875 59.328125 51.421875 
L 50.25 50.734375 
Q 49.515625 57.515625 45.28125 60.984375 
Q 41.0625 64.453125 32.8125 64.453125 
Q 24.21875 64.453125 20.28125 61.296875 
Q 16.359375 58.15625 16.359375 53.71875 
Q 16.359375 49.859375 19.140625 47.359375 
Q 21.875 44.875 33.421875 42.265625 
Q 44.96875 39.65625 49.265625 37.703125 
Q 55.515625 34.8125 58.484375 30.390625 
Q 61.46875 25.984375 61.46875 20.21875 
Q 61.46875 14.5 58.203125 9.4375 
Q 54.9375 4.390625 48.796875 1.578125 
Q 42.671875 -1.21875 35.015625 -1.21875 
Q 25.296875 -1.21875 18.71875 1.609375 
Q 12.15625 4.4375 8.421875 10.125 
Q 4.6875 15.828125 4.5 23 
z
" id="ArialMT-83"/>
      <path d="M 7.71875 0 
L 7.71875 71.578125 
L 34.71875 71.578125 
Q 41.84375 71.578125 45.609375 70.90625 
Q 50.875 70.015625 54.4375 67.546875 
Q 58.015625 65.09375 60.1875 60.640625 
Q 62.359375 56.203125 62.359375 50.875 
Q 62.359375 41.75 56.546875 35.421875 
Q 50.734375 29.109375 35.546875 29.109375 
L 17.1875 29.109375 
L 17.1875 0 
z
M 17.1875 37.546875 
L 35.6875 37.546875 
Q 44.875 37.546875 48.734375 40.96875 
Q 52.59375 44.390625 52.59375 50.59375 
Q 52.59375 55.078125 50.3125 58.265625 
Q 48.046875 61.46875 44.34375 62.5 
Q 41.9375 63.140625 35.5 63.140625 
L 17.1875 63.140625 
z
" id="ArialMT-80"/>
      <path d="M 40.4375 19 
L 49.078125 17.875 
Q 47.65625 8.9375 41.8125 3.875 
Q 35.984375 -1.171875 27.484375 -1.171875 
Q 16.84375 -1.171875 10.375 5.78125 
Q 3.90625 12.75 3.90625 25.734375 
Q 3.90625 34.125 6.6875 40.421875 
Q 9.46875 46.734375 15.15625 49.875 
Q 20.84375 53.03125 27.546875 53.03125 
Q 35.984375 53.03125 41.359375 48.75 
Q 46.734375 44.484375 48.25 36.625 
L 39.703125 35.296875 
Q 38.484375 40.53125 35.375 43.15625 
Q 32.28125 45.796875 27.875 45.796875 
Q 21.234375 45.796875 17.078125 41.03125 
Q 12.9375 36.28125 12.9375 25.984375 
Q 12.9375 15.53125 16.9375 10.796875 
Q 20.953125 6.0625 27.390625 6.0625 
Q 32.5625 6.0625 36.03125 9.234375 
Q 39.5 12.40625 40.4375 19 
z
" id="ArialMT-99"/>
     </defs>
     <g style="fill:#262626;" transform="translate(15.789375 224.805)rotate(-90)scale(0.12 -0.12)">
      <use xlink:href="#ArialMT-83"/>
      <use x="66.699219" xlink:href="#ArialMT-97"/>
      <use x="122.314453" xlink:href="#ArialMT-108"/>
      <use x="144.53125" xlink:href="#ArialMT-101"/>
      <use x="200.146484" xlink:href="#ArialMT-32"/>
      <use x="227.929688" xlink:href="#ArialMT-80"/>
      <use x="294.628906" xlink:href="#ArialMT-114"/>
      <use x="327.929688" xlink:href="#ArialMT-105"/>
      <use x="350.146484" xlink:href="#ArialMT-99"/>
      <use x="400.146484" xlink:href="#ArialMT-101"/>
     </g>
    </g>
   </g>
   <g id="patch_3">
    <path clip-path="url(#pe3955127f5)" d="M 62.946 364.664044 
L 94.194 364.664044 
L 94.194 358.303578 
L 62.946 358.303578 
L 62.946 364.664044 
z
" style="fill:#ea96a3;stroke:#484848;stroke-linejoin:miter;stroke-width:1.5;"/>
   </g>
   <g id="patch_4">
    <path clip-path="url(#pe3955127f5)" d="M 102.006 362.946132 
L 133.254 362.946132 
L 133.254 355.709563 
L 102.006 355.709563 
L 102.006 362.946132 
z
" style="fill:#d7944e;stroke:#484848;stroke-linejoin:miter;stroke-width:1.5;"/>
   </g>
   <g id="patch_5">
    <path clip-path="url(#pe3955127f5)" d="M 141.066 346.623183 
L 172.314 346.623183 
L 172.314 333.726386 
L 141.066 333.726386 
L 141.066 346.623183 
z
" style="fill:#ab9e47;stroke:#484848;stroke-linejoin:miter;stroke-width:1.5;"/>
   </g>
   <g id="patch_6">
    <path clip-path="url(#pe3955127f5)" d="M 180.126 339.295458 
L 211.374 339.295458 
L 211.374 317.312281 
L 180.126 317.312281 
L 180.126 339.295458 
z
" style="fill:#7fa946;stroke:#484848;stroke-linejoin:miter;stroke-width:1.5;"/>
   </g>
   <g id="patch_7">
    <path clip-path="url(#pe3955127f5)" d="M 219.186 321.708916 
L 250.434 321.708916 
L 250.434 304.708593 
L 219.186 304.708593 
L 219.186 321.708916 
z
" style="fill:#49ae83;stroke:#484848;stroke-linejoin:miter;stroke-width:1.5;"/>
   </g>
   <g id="patch_8">
    <path clip-path="url(#pe3955127f5)" d="M 258.246 309.32506 
L 289.494 309.32506 
L 289.494 284.777179 
L 258.246 284.777179 
L 258.246 309.32506 
z
" style="fill:#4baba4;stroke:#484848;stroke-linejoin:miter;stroke-width:1.5;"/>
   </g>
   <g id="patch_9">
    <path clip-path="url(#pe3955127f5)" d="M 297.306 285.674093 
L 328.554 285.674093 
L 328.554 255.612831 
L 297.306 255.612831 
L 297.306 285.674093 
z
" style="fill:#50acc3;stroke:#484848;stroke-linejoin:miter;stroke-width:1.5;"/>
   </g>
   <g id="patch_10">
    <path clip-path="url(#pe3955127f5)" d="M 336.366 253.380806 
L 367.614 253.380806 
L 367.614 211.353368 
L 336.366 211.353368 
L 336.366 253.380806 
z
" style="fill:#94aee8;stroke:#484848;stroke-linejoin:miter;stroke-width:1.5;"/>
   </g>
   <g id="patch_11">
    <path clip-path="url(#pe3955127f5)" d="M 375.426 203.890519 
L 406.674 203.890519 
L 406.674 162.424092 
L 375.426 162.424092 
L 375.426 203.890519 
z
" style="fill:#ce9be9;stroke:#484848;stroke-linejoin:miter;stroke-width:1.5;"/>
   </g>
   <g id="patch_12">
    <path clip-path="url(#pe3955127f5)" d="M 414.486 165.005503 
L 445.734 165.005503 
L 445.734 117.631757 
L 414.486 117.631757 
L 414.486 165.005503 
z
" style="fill:#e88fcc;stroke:#484848;stroke-linejoin:miter;stroke-width:1.5;"/>
   </g>
   <g id="line2d_17">
    <path clip-path="url(#pe3955127f5)" d="M 78.57 364.664044 
L 78.57 367.844277 
" style="fill:none;stroke:#484848;stroke-linecap:round;stroke-width:1.5;"/>
   </g>
   <g id="line2d_18">
    <path clip-path="url(#pe3955127f5)" d="M 78.57 358.303578 
L 78.57 355.123345 
" style="fill:none;stroke:#484848;stroke-linecap:round;stroke-width:1.5;"/>
   </g>
   <g id="line2d_19">
    <path clip-path="url(#pe3955127f5)" d="M 70.758 367.844277 
L 86.382 367.844277 
" style="fill:none;stroke:#484848;stroke-linecap:round;stroke-width:1.5;"/>
   </g>
   <g id="line2d_20">
    <path clip-path="url(#pe3955127f5)" d="M 70.758 355.123345 
L 86.382 355.123345 
" style="fill:none;stroke:#484848;stroke-linecap:round;stroke-width:1.5;"/>
   </g>
   <g id="line2d_21"/>
   <g id="line2d_22">
    <path clip-path="url(#pe3955127f5)" d="M 117.63 362.946132 
L 117.63 370.182701 
" style="fill:none;stroke:#484848;stroke-linecap:round;stroke-width:1.5;"/>
   </g>
   <g id="line2d_23">
    <path clip-path="url(#pe3955127f5)" d="M 117.63 355.709563 
L 117.63 355.709563 
" style="fill:none;stroke:#484848;stroke-linecap:round;stroke-width:1.5;"/>
   </g>
   <g id="line2d_24">
    <path clip-path="url(#pe3955127f5)" d="M 109.818 370.182701 
L 125.442 370.182701 
" style="fill:none;stroke:#484848;stroke-linecap:round;stroke-width:1.5;"/>
   </g>
   <g id="line2d_25">
    <path clip-path="url(#pe3955127f5)" d="M 109.818 355.709563 
L 125.442 355.709563 
" style="fill:none;stroke:#484848;stroke-linecap:round;stroke-width:1.5;"/>
   </g>
   <g id="line2d_26"/>
   <g id="line2d_27">
    <path clip-path="url(#pe3955127f5)" d="M 156.69 346.623183 
L 156.69 360.399308 
" style="fill:none;stroke:#484848;stroke-linecap:round;stroke-width:1.5;"/>
   </g>
   <g id="line2d_28">
    <path clip-path="url(#pe3955127f5)" d="M 156.69 333.726386 
L 156.69 316.916584 
" style="fill:none;stroke:#484848;stroke-linecap:round;stroke-width:1.5;"/>
   </g>
   <g id="line2d_29">
    <path clip-path="url(#pe3955127f5)" d="M 148.878 360.399308 
L 164.502 360.399308 
" style="fill:none;stroke:#484848;stroke-linecap:round;stroke-width:1.5;"/>
   </g>
   <g id="line2d_30">
    <path clip-path="url(#pe3955127f5)" d="M 148.878 316.916584 
L 164.502 316.916584 
" style="fill:none;stroke:#484848;stroke-linecap:round;stroke-width:1.5;"/>
   </g>
   <g id="line2d_31">
    <defs>
     <path d="M -0 3.535534 
L 2.12132 0 
L -0 -3.535534 
L -2.12132 -0 
z
" id="mecf155c061" style="stroke:#484848;stroke-linejoin:miter;"/>
    </defs>
    <g clip-path="url(#pe3955127f5)">
     <use style="fill:#484848;stroke:#484848;stroke-linejoin:miter;" x="156.69" xlink:href="#mecf155c061" y="368.664982"/>
     <use style="fill:#484848;stroke:#484848;stroke-linejoin:miter;" x="156.69" xlink:href="#mecf155c061" y="309.046606"/>
    </g>
   </g>
   <g id="line2d_32">
    <path clip-path="url(#pe3955127f5)" d="M 195.75 339.295458 
L 195.75 370.423636 
" style="fill:none;stroke:#484848;stroke-linecap:round;stroke-width:1.5;"/>
   </g>
   <g id="line2d_33">
    <path clip-path="url(#pe3955127f5)" d="M 195.75 317.312281 
L 195.75 287.708269 
" style="fill:none;stroke:#484848;stroke-linecap:round;stroke-width:1.5;"/>
   </g>
   <g id="line2d_34">
    <path clip-path="url(#pe3955127f5)" d="M 187.938 370.423636 
L 203.562 370.423636 
" style="fill:none;stroke:#484848;stroke-linecap:round;stroke-width:1.5;"/>
   </g>
   <g id="line2d_35">
    <path clip-path="url(#pe3955127f5)" d="M 187.938 287.708269 
L 203.562 287.708269 
" style="fill:none;stroke:#484848;stroke-linecap:round;stroke-width:1.5;"/>
   </g>
   <g id="line2d_36">
    <g clip-path="url(#pe3955127f5)">
     <use style="fill:#484848;stroke:#484848;stroke-linejoin:miter;" x="195.75" xlink:href="#mecf155c061" y="240.810825"/>
    </g>
   </g>
   <g id="line2d_37">
    <path clip-path="url(#pe3955127f5)" d="M 234.81 321.708916 
L 234.81 345.157638 
" style="fill:none;stroke:#484848;stroke-linecap:round;stroke-width:1.5;"/>
   </g>
   <g id="line2d_38">
    <path clip-path="url(#pe3955127f5)" d="M 234.81 304.708593 
L 234.81 279.501216 
" style="fill:none;stroke:#484848;stroke-linecap:round;stroke-width:1.5;"/>
   </g>
   <g id="line2d_39">
    <path clip-path="url(#pe3955127f5)" d="M 226.998 345.157638 
L 242.622 345.157638 
" style="fill:none;stroke:#484848;stroke-linecap:round;stroke-width:1.5;"/>
   </g>
   <g id="line2d_40">
    <path clip-path="url(#pe3955127f5)" d="M 226.998 279.501216 
L 242.622 279.501216 
" style="fill:none;stroke:#484848;stroke-linecap:round;stroke-width:1.5;"/>
   </g>
   <g id="line2d_41">
    <g clip-path="url(#pe3955127f5)">
     <use style="fill:#484848;stroke:#484848;stroke-linejoin:miter;" x="234.81" xlink:href="#mecf155c061" y="351.899146"/>
     <use style="fill:#484848;stroke:#484848;stroke-linejoin:miter;" x="234.81" xlink:href="#mecf155c061" y="355.709563"/>
     <use style="fill:#484848;stroke:#484848;stroke-linejoin:miter;" x="234.81" xlink:href="#mecf155c061" y="348.088729"/>
     <use style="fill:#484848;stroke:#484848;stroke-linejoin:miter;" x="234.81" xlink:href="#mecf155c061" y="351.606037"/>
     <use style="fill:#484848;stroke:#484848;stroke-linejoin:miter;" x="234.81" xlink:href="#mecf155c061" y="358.058539"/>
     <use style="fill:#484848;stroke:#484848;stroke-linejoin:miter;" x="234.81" xlink:href="#mecf155c061" y="354.312606"/>
     <use style="fill:#484848;stroke:#484848;stroke-linejoin:miter;" x="234.81" xlink:href="#mecf155c061" y="258.983585"/>
     <use style="fill:#484848;stroke:#484848;stroke-linejoin:miter;" x="234.81" xlink:href="#mecf155c061" y="263.38022"/>
     <use style="fill:#484848;stroke:#484848;stroke-linejoin:miter;" x="234.81" xlink:href="#mecf155c061" y="273.345927"/>
     <use style="fill:#484848;stroke:#484848;stroke-linejoin:miter;" x="234.81" xlink:href="#mecf155c061" y="278.24671"/>
     <use style="fill:#484848;stroke:#484848;stroke-linejoin:miter;" x="234.81" xlink:href="#mecf155c061" y="275.104581"/>
     <use style="fill:#484848;stroke:#484848;stroke-linejoin:miter;" x="234.81" xlink:href="#mecf155c061" y="259.862912"/>
     <use style="fill:#484848;stroke:#484848;stroke-linejoin:miter;" x="234.81" xlink:href="#mecf155c061" y="256.668023"/>
     <use style="fill:#484848;stroke:#484848;stroke-linejoin:miter;" x="234.81" xlink:href="#mecf155c061" y="273.639036"/>
     <use style="fill:#484848;stroke:#484848;stroke-linejoin:miter;" x="234.81" xlink:href="#mecf155c061" y="269.242401"/>
     <use style="fill:#484848;stroke:#484848;stroke-linejoin:miter;" x="234.81" xlink:href="#mecf155c061" y="263.087111"/>
     <use style="fill:#484848;stroke:#484848;stroke-linejoin:miter;" x="234.81" xlink:href="#mecf155c061" y="277.156344"/>
    </g>
   </g>
   <g id="line2d_42">
    <path clip-path="url(#pe3955127f5)" d="M 273.87 309.32506 
L 273.87 344.57142 
" style="fill:none;stroke:#484848;stroke-linecap:round;stroke-width:1.5;"/>
   </g>
   <g id="line2d_43">
    <path clip-path="url(#pe3955127f5)" d="M 273.87 284.777179 
L 273.87 248.43166 
" style="fill:none;stroke:#484848;stroke-linecap:round;stroke-width:1.5;"/>
   </g>
   <g id="line2d_44">
    <path clip-path="url(#pe3955127f5)" d="M 266.058 344.57142 
L 281.682 344.57142 
" style="fill:none;stroke:#484848;stroke-linecap:round;stroke-width:1.5;"/>
   </g>
   <g id="line2d_45">
    <path clip-path="url(#pe3955127f5)" d="M 266.058 248.43166 
L 281.682 248.43166 
" style="fill:none;stroke:#484848;stroke-linecap:round;stroke-width:1.5;"/>
   </g>
   <g id="line2d_46">
    <g clip-path="url(#pe3955127f5)">
     <use style="fill:#484848;stroke:#484848;stroke-linejoin:miter;" x="273.87" xlink:href="#mecf155c061" y="346.330074"/>
     <use style="fill:#484848;stroke:#484848;stroke-linejoin:miter;" x="273.87" xlink:href="#mecf155c061" y="240.810825"/>
     <use style="fill:#484848;stroke:#484848;stroke-linejoin:miter;" x="273.87" xlink:href="#mecf155c061" y="247.845442"/>
     <use style="fill:#484848;stroke:#484848;stroke-linejoin:miter;" x="273.87" xlink:href="#mecf155c061" y="244.328133"/>
     <use style="fill:#484848;stroke:#484848;stroke-linejoin:miter;" x="273.87" xlink:href="#mecf155c061" y="231.431336"/>
     <use style="fill:#484848;stroke:#484848;stroke-linejoin:miter;" x="273.87" xlink:href="#mecf155c061" y="229.690269"/>
     <use style="fill:#484848;stroke:#484848;stroke-linejoin:miter;" x="273.87" xlink:href="#mecf155c061" y="239.931498"/>
     <use style="fill:#484848;stroke:#484848;stroke-linejoin:miter;" x="273.87" xlink:href="#mecf155c061" y="238.759062"/>
     <use style="fill:#484848;stroke:#484848;stroke-linejoin:miter;" x="273.87" xlink:href="#mecf155c061" y="228.500246"/>
    </g>
   </g>
   <g id="line2d_47">
    <path clip-path="url(#pe3955127f5)" d="M 312.93 285.674093 
L 312.93 322.353756 
" style="fill:none;stroke:#484848;stroke-linecap:round;stroke-width:1.5;"/>
   </g>
   <g id="line2d_48">
    <path clip-path="url(#pe3955127f5)" d="M 312.93 255.612831 
L 312.93 213.844795 
" style="fill:none;stroke:#484848;stroke-linecap:round;stroke-width:1.5;"/>
   </g>
   <g id="line2d_49">
    <path clip-path="url(#pe3955127f5)" d="M 305.118 322.353756 
L 320.742 322.353756 
" style="fill:none;stroke:#484848;stroke-linecap:round;stroke-width:1.5;"/>
   </g>
   <g id="line2d_50">
    <path clip-path="url(#pe3955127f5)" d="M 305.118 213.844795 
L 320.742 213.844795 
" style="fill:none;stroke:#484848;stroke-linecap:round;stroke-width:1.5;"/>
   </g>
   <g id="line2d_51">
    <g clip-path="url(#pe3955127f5)">
     <use style="fill:#484848;stroke:#484848;stroke-linejoin:miter;" x="312.93" xlink:href="#mecf155c061" y="342.519657"/>
     <use style="fill:#484848;stroke:#484848;stroke-linejoin:miter;" x="312.93" xlink:href="#mecf155c061" y="190.982291"/>
     <use style="fill:#484848;stroke:#484848;stroke-linejoin:miter;" x="312.93" xlink:href="#mecf155c061" y="205.784296"/>
     <use style="fill:#484848;stroke:#484848;stroke-linejoin:miter;" x="312.93" xlink:href="#mecf155c061" y="171.050877"/>
     <use style="fill:#484848;stroke:#484848;stroke-linejoin:miter;" x="312.93" xlink:href="#mecf155c061" y="194.499599"/>
     <use style="fill:#484848;stroke:#484848;stroke-linejoin:miter;" x="312.93" xlink:href="#mecf155c061" y="208.05765"/>
     <use style="fill:#484848;stroke:#484848;stroke-linejoin:miter;" x="312.93" xlink:href="#mecf155c061" y="194.499599"/>
     <use style="fill:#484848;stroke:#484848;stroke-linejoin:miter;" x="312.93" xlink:href="#mecf155c061" y="165.792501"/>
     <use style="fill:#484848;stroke:#484848;stroke-linejoin:miter;" x="312.93" xlink:href="#mecf155c061" y="208.275723"/>
     <use style="fill:#484848;stroke:#484848;stroke-linejoin:miter;" x="312.93" xlink:href="#mecf155c061" y="203.29287"/>
     <use style="fill:#484848;stroke:#484848;stroke-linejoin:miter;" x="312.93" xlink:href="#mecf155c061" y="198.603125"/>
     <use style="fill:#484848;stroke:#484848;stroke-linejoin:miter;" x="312.93" xlink:href="#mecf155c061" y="203.29287"/>
    </g>
   </g>
   <g id="line2d_52">
    <path clip-path="url(#pe3955127f5)" d="M 351.99 253.380806 
L 351.99 304.708593 
" style="fill:none;stroke:#484848;stroke-linecap:round;stroke-width:1.5;"/>
   </g>
   <g id="line2d_53">
    <path clip-path="url(#pe3955127f5)" d="M 351.99 211.353368 
L 351.99 150.533245 
" style="fill:none;stroke:#484848;stroke-linecap:round;stroke-width:1.5;"/>
   </g>
   <g id="line2d_54">
    <path clip-path="url(#pe3955127f5)" d="M 344.178 304.708593 
L 359.802 304.708593 
" style="fill:none;stroke:#484848;stroke-linecap:round;stroke-width:1.5;"/>
   </g>
   <g id="line2d_55">
    <path clip-path="url(#pe3955127f5)" d="M 344.178 150.533245 
L 359.802 150.533245 
" style="fill:none;stroke:#484848;stroke-linecap:round;stroke-width:1.5;"/>
   </g>
   <g id="line2d_56">
    <g clip-path="url(#pe3955127f5)">
     <use style="fill:#484848;stroke:#484848;stroke-linejoin:miter;" x="351.99" xlink:href="#mecf155c061" y="319.364044"/>
     <use style="fill:#484848;stroke:#484848;stroke-linejoin:miter;" x="351.99" xlink:href="#mecf155c061" y="75.497334"/>
     <use style="fill:#484848;stroke:#484848;stroke-linejoin:miter;" x="351.99" xlink:href="#mecf155c061" y="142.91241"/>
     <use style="fill:#484848;stroke:#484848;stroke-linejoin:miter;" x="351.99" xlink:href="#mecf155c061" y="138.808884"/>
     <use style="fill:#484848;stroke:#484848;stroke-linejoin:miter;" x="351.99" xlink:href="#mecf155c061" y="132.946703"/>
     <use style="fill:#484848;stroke:#484848;stroke-linejoin:miter;" x="351.99" xlink:href="#mecf155c061" y="141.816182"/>
    </g>
   </g>
   <g id="line2d_57">
    <path clip-path="url(#pe3955127f5)" d="M 391.05 203.890519 
L 391.05 250.776532 
" style="fill:none;stroke:#484848;stroke-linecap:round;stroke-width:1.5;"/>
   </g>
   <g id="line2d_58">
    <path clip-path="url(#pe3955127f5)" d="M 391.05 162.424092 
L 391.05 106.566891 
" style="fill:none;stroke:#484848;stroke-linecap:round;stroke-width:1.5;"/>
   </g>
   <g id="line2d_59">
    <path clip-path="url(#pe3955127f5)" d="M 383.238 250.776532 
L 398.862 250.776532 
" style="fill:none;stroke:#484848;stroke-linecap:round;stroke-width:1.5;"/>
   </g>
   <g id="line2d_60">
    <path clip-path="url(#pe3955127f5)" d="M 383.238 106.566891 
L 398.862 106.566891 
" style="fill:none;stroke:#484848;stroke-linecap:round;stroke-width:1.5;"/>
   </g>
   <g id="line2d_61">
    <g clip-path="url(#pe3955127f5)">
     <use style="fill:#484848;stroke:#484848;stroke-linejoin:miter;" x="391.05" xlink:href="#mecf155c061" y="64.604817"/>
     <use style="fill:#484848;stroke:#484848;stroke-linejoin:miter;" x="391.05" xlink:href="#mecf155c061" y="96.696738"/>
     <use style="fill:#484848;stroke:#484848;stroke-linejoin:miter;" x="391.05" xlink:href="#mecf155c061" y="32.318271"/>
     <use style="fill:#484848;stroke:#484848;stroke-linejoin:miter;" x="391.05" xlink:href="#mecf155c061" y="49.156798"/>
    </g>
   </g>
   <g id="line2d_62">
    <path clip-path="url(#pe3955127f5)" d="M 430.11 165.005503 
L 430.11 209.15505 
" style="fill:none;stroke:#484848;stroke-linecap:round;stroke-width:1.5;"/>
   </g>
   <g id="line2d_63">
    <path clip-path="url(#pe3955127f5)" d="M 430.11 117.631757 
L 430.11 65.531627 
" style="fill:none;stroke:#484848;stroke-linecap:round;stroke-width:1.5;"/>
   </g>
   <g id="line2d_64">
    <path clip-path="url(#pe3955127f5)" d="M 422.298 209.15505 
L 437.922 209.15505 
" style="fill:none;stroke:#484848;stroke-linecap:round;stroke-width:1.5;"/>
   </g>
   <g id="line2d_65">
    <path clip-path="url(#pe3955127f5)" d="M 422.298 65.531627 
L 437.922 65.531627 
" style="fill:none;stroke:#484848;stroke-linecap:round;stroke-width:1.5;"/>
   </g>
   <g id="line2d_66">
    <g clip-path="url(#pe3955127f5)">
     <use style="fill:#484848;stroke:#484848;stroke-linejoin:miter;" x="430.11" xlink:href="#mecf155c061" y="24.496364"/>
    </g>
   </g>
   <g id="line2d_67">
    <path clip-path="url(#pe3955127f5)" d="M 62.946 361.483811 
L 94.194 361.483811 
" style="fill:none;stroke:#484848;stroke-linecap:round;stroke-width:1.5;"/>
   </g>
   <g id="line2d_68">
    <path clip-path="url(#pe3955127f5)" d="M 102.006 355.709563 
L 133.254 355.709563 
" style="fill:none;stroke:#484848;stroke-linecap:round;stroke-width:1.5;"/>
   </g>
   <g id="line2d_69">
    <path clip-path="url(#pe3955127f5)" d="M 141.066 340.321339 
L 172.314 340.321339 
" style="fill:none;stroke:#484848;stroke-linecap:round;stroke-width:1.5;"/>
   </g>
   <g id="line2d_70">
    <path clip-path="url(#pe3955127f5)" d="M 180.126 327.571097 
L 211.374 327.571097 
" style="fill:none;stroke:#484848;stroke-linecap:round;stroke-width:1.5;"/>
   </g>
   <g id="line2d_71">
    <path clip-path="url(#pe3955127f5)" d="M 219.186 312.915645 
L 250.434 312.915645 
" style="fill:none;stroke:#484848;stroke-linecap:round;stroke-width:1.5;"/>
   </g>
   <g id="line2d_72">
    <path clip-path="url(#pe3955127f5)" d="M 258.246 297.087758 
L 289.494 297.087758 
" style="fill:none;stroke:#484848;stroke-linecap:round;stroke-width:1.5;"/>
   </g>
   <g id="line2d_73">
    <path clip-path="url(#pe3955127f5)" d="M 297.306 273.556379 
L 328.554 273.556379 
" style="fill:none;stroke:#484848;stroke-linecap:round;stroke-width:1.5;"/>
   </g>
   <g id="line2d_74">
    <path clip-path="url(#pe3955127f5)" d="M 336.366 232.750327 
L 367.614 232.750327 
" style="fill:none;stroke:#484848;stroke-linecap:round;stroke-width:1.5;"/>
   </g>
   <g id="line2d_75">
    <path clip-path="url(#pe3955127f5)" d="M 375.426 188.637418 
L 406.674 188.637418 
" style="fill:none;stroke:#484848;stroke-linecap:round;stroke-width:1.5;"/>
   </g>
   <g id="line2d_76">
    <path clip-path="url(#pe3955127f5)" d="M 414.486 137.407823 
L 445.734 137.407823 
" style="fill:none;stroke:#484848;stroke-linecap:round;stroke-width:1.5;"/>
   </g>
   <g id="patch_13">
    <path d="M 59.04 387.72 
L 59.04 7.2 
" style="fill:none;stroke:#262626;stroke-linecap:square;stroke-linejoin:miter;stroke-width:1.25;"/>
   </g>
   <g id="patch_14">
    <path d="M 449.64 387.72 
L 449.64 7.2 
" style="fill:none;stroke:#262626;stroke-linecap:square;stroke-linejoin:miter;stroke-width:1.25;"/>
   </g>
   <g id="patch_15">
    <path d="M 59.04 387.72 
L 449.64 387.72 
" style="fill:none;stroke:#262626;stroke-linecap:square;stroke-linejoin:miter;stroke-width:1.25;"/>
   </g>
   <g id="patch_16">
    <path d="M 59.04 7.2 
L 449.64 7.2 
" style="fill:none;stroke:#262626;stroke-linecap:square;stroke-linejoin:miter;stroke-width:1.25;"/>
   </g>
  </g>
 </g>
 <defs>
  <clipPath id="pe3955127f5">
   <rect height="380.52" width="390.6" x="59.04" y="7.2"/>
  </clipPath>
 </defs>
</svg>
